<?xml version="1.0" encoding="utf-8" standalone="no"?>
<!DOCTYPE svg PUBLIC "-//W3C//DTD SVG 1.1//EN"
  "http://www.w3.org/Graphics/SVG/1.1/DTD/svg11.dtd">
<svg xmlns:xlink="http://www.w3.org/1999/xlink" width="427.583125pt" height="325.986375pt" viewBox="0 0 427.583125 325.986375" xmlns="http://www.w3.org/2000/svg" version="1.1">
 <metadata>
  <rdf:RDF xmlns:dc="http://purl.org/dc/elements/1.1/" xmlns:cc="http://creativecommons.org/ns#" xmlns:rdf="http://www.w3.org/1999/02/22-rdf-syntax-ns#">
   <cc:Work>
    <dc:type rdf:resource="http://purl.org/dc/dcmitype/StillImage"/>
    <dc:date>2023-06-19T07:29:28.571892</dc:date>
    <dc:format>image/svg+xml</dc:format>
    <dc:creator>
     <cc:Agent>
      <dc:title>Matplotlib v3.6.2, https://matplotlib.org/</dc:title>
     </cc:Agent>
    </dc:creator>
   </cc:Work>
  </rdf:RDF>
 </metadata>
 <defs>
  <style type="text/css">*{stroke-linejoin: round; stroke-linecap: butt}</style>
 </defs>
 <g id="figure_1">
  <g id="patch_1">
   <path d="M 0 325.986375 
L 427.583125 325.986375 
L 427.583125 0 
L 0 0 
z
" style="fill: #ffffff"/>
  </g>
  <g id="axes_1">
   <g id="patch_2">
    <path d="M 53.328125 288.430125 
L 410.448125 288.430125 
L 410.448125 22.318125 
L 53.328125 22.318125 
z
" style="fill: #ffffff"/>
   </g>
   <g id="patch_3">
    <path d="M 54.723125 288.430125 
L 56.118125 288.430125 
L 56.118125 286.402605 
L 54.723125 286.402605 
z
" clip-path="url(#p78dec96e8c)" style="fill: #1f77b4"/>
   </g>
   <g id="patch_4">
    <path d="M 60.303125 288.430125 
L 61.698125 288.430125 
L 61.698125 286.402605 
L 60.303125 286.402605 
z
" clip-path="url(#p78dec96e8c)" style="fill: #1f77b4"/>
   </g>
   <g id="patch_5">
    <path d="M 65.883125 288.430125 
L 67.278125 288.430125 
L 67.278125 286.402605 
L 65.883125 286.402605 
z
" clip-path="url(#p78dec96e8c)" style="fill: #1f77b4"/>
   </g>
   <g id="patch_6">
    <path d="M 71.463125 288.430125 
L 72.858125 288.430125 
L 72.858125 286.402605 
L 71.463125 286.402605 
z
" clip-path="url(#p78dec96e8c)" style="fill: #1f77b4"/>
   </g>
   <g id="patch_7">
    <path d="M 77.043125 288.430125 
L 78.438125 288.430125 
L 78.438125 286.402605 
L 77.043125 286.402605 
z
" clip-path="url(#p78dec96e8c)" style="fill: #1f77b4"/>
   </g>
   <g id="patch_8">
    <path d="M 82.623125 288.430125 
L 84.018125 288.430125 
L 84.018125 286.402605 
L 82.623125 286.402605 
z
" clip-path="url(#p78dec96e8c)" style="fill: #1f77b4"/>
   </g>
   <g id="patch_9">
    <path d="M 88.203125 288.430125 
L 89.598125 288.430125 
L 89.598125 286.402605 
L 88.203125 286.402605 
z
" clip-path="url(#p78dec96e8c)" style="fill: #1f77b4"/>
   </g>
   <g id="patch_10">
    <path d="M 93.783125 288.430125 
L 95.178125 288.430125 
L 95.178125 286.402605 
L 93.783125 286.402605 
z
" clip-path="url(#p78dec96e8c)" style="fill: #1f77b4"/>
   </g>
   <g id="patch_11">
    <path d="M 99.363125 288.430125 
L 100.758125 288.430125 
L 100.758125 284.375085 
L 99.363125 284.375085 
z
" clip-path="url(#p78dec96e8c)" style="fill: #1f77b4"/>
   </g>
   <g id="patch_12">
    <path d="M 104.943125 288.430125 
L 106.338125 288.430125 
L 106.338125 284.375085 
L 104.943125 284.375085 
z
" clip-path="url(#p78dec96e8c)" style="fill: #1f77b4"/>
   </g>
   <g id="patch_13">
    <path d="M 110.523125 288.430125 
L 111.918125 288.430125 
L 111.918125 284.375085 
L 110.523125 284.375085 
z
" clip-path="url(#p78dec96e8c)" style="fill: #1f77b4"/>
   </g>
   <g id="patch_14">
    <path d="M 116.103125 288.430125 
L 117.498125 288.430125 
L 117.498125 284.375085 
L 116.103125 284.375085 
z
" clip-path="url(#p78dec96e8c)" style="fill: #1f77b4"/>
   </g>
   <g id="patch_15">
    <path d="M 121.683125 288.430125 
L 123.078125 288.430125 
L 123.078125 286.402605 
L 121.683125 286.402605 
z
" clip-path="url(#p78dec96e8c)" style="fill: #1f77b4"/>
   </g>
   <g id="patch_16">
    <path d="M 127.263125 288.430125 
L 128.658125 288.430125 
L 128.658125 286.402605 
L 127.263125 286.402605 
z
" clip-path="url(#p78dec96e8c)" style="fill: #1f77b4"/>
   </g>
   <g id="patch_17">
    <path d="M 132.843125 288.430125 
L 134.238125 288.430125 
L 134.238125 284.375085 
L 132.843125 284.375085 
z
" clip-path="url(#p78dec96e8c)" style="fill: #1f77b4"/>
   </g>
   <g id="patch_18">
    <path d="M 138.423125 288.430125 
L 139.818125 288.430125 
L 139.818125 284.375085 
L 138.423125 284.375085 
z
" clip-path="url(#p78dec96e8c)" style="fill: #1f77b4"/>
   </g>
   <g id="patch_19">
    <path d="M 144.003125 288.430125 
L 145.398125 288.430125 
L 145.398125 282.347565 
L 144.003125 282.347565 
z
" clip-path="url(#p78dec96e8c)" style="fill: #1f77b4"/>
   </g>
   <g id="patch_20">
    <path d="M 149.583125 288.430125 
L 150.978125 288.430125 
L 150.978125 282.347565 
L 149.583125 282.347565 
z
" clip-path="url(#p78dec96e8c)" style="fill: #1f77b4"/>
   </g>
   <g id="patch_21">
    <path d="M 155.163125 288.430125 
L 156.558125 288.430125 
L 156.558125 282.347565 
L 155.163125 282.347565 
z
" clip-path="url(#p78dec96e8c)" style="fill: #1f77b4"/>
   </g>
   <g id="patch_22">
    <path d="M 160.743125 288.430125 
L 162.138125 288.430125 
L 162.138125 282.347565 
L 160.743125 282.347565 
z
" clip-path="url(#p78dec96e8c)" style="fill: #1f77b4"/>
   </g>
   <g id="patch_23">
    <path d="M 166.323125 288.430125 
L 167.718125 288.430125 
L 167.718125 282.347565 
L 166.323125 282.347565 
z
" clip-path="url(#p78dec96e8c)" style="fill: #1f77b4"/>
   </g>
   <g id="patch_24">
    <path d="M 171.903125 288.430125 
L 173.298125 288.430125 
L 173.298125 282.347565 
L 171.903125 282.347565 
z
" clip-path="url(#p78dec96e8c)" style="fill: #1f77b4"/>
   </g>
   <g id="patch_25">
    <path d="M 177.483125 288.430125 
L 178.878125 288.430125 
L 178.878125 282.347565 
L 177.483125 282.347565 
z
" clip-path="url(#p78dec96e8c)" style="fill: #1f77b4"/>
   </g>
   <g id="patch_26">
    <path d="M 183.063125 288.430125 
L 184.458125 288.430125 
L 184.458125 282.347565 
L 183.063125 282.347565 
z
" clip-path="url(#p78dec96e8c)" style="fill: #1f77b4"/>
   </g>
   <g id="patch_27">
    <path d="M 188.643125 288.430125 
L 190.038125 288.430125 
L 190.038125 280.320045 
L 188.643125 280.320045 
z
" clip-path="url(#p78dec96e8c)" style="fill: #1f77b4"/>
   </g>
   <g id="patch_28">
    <path d="M 194.223125 288.430125 
L 195.618125 288.430125 
L 195.618125 280.320045 
L 194.223125 280.320045 
z
" clip-path="url(#p78dec96e8c)" style="fill: #1f77b4"/>
   </g>
   <g id="patch_29">
    <path d="M 199.803125 288.430125 
L 201.198125 288.430125 
L 201.198125 282.347565 
L 199.803125 282.347565 
z
" clip-path="url(#p78dec96e8c)" style="fill: #1f77b4"/>
   </g>
   <g id="patch_30">
    <path d="M 205.383125 288.430125 
L 206.778125 288.430125 
L 206.778125 278.292525 
L 205.383125 278.292525 
z
" clip-path="url(#p78dec96e8c)" style="fill: #1f77b4"/>
   </g>
   <g id="patch_31">
    <path d="M 210.963125 288.430125 
L 212.358125 288.430125 
L 212.358125 280.320045 
L 210.963125 280.320045 
z
" clip-path="url(#p78dec96e8c)" style="fill: #1f77b4"/>
   </g>
   <g id="patch_32">
    <path d="M 216.543125 288.430125 
L 217.938125 288.430125 
L 217.938125 280.320045 
L 216.543125 280.320045 
z
" clip-path="url(#p78dec96e8c)" style="fill: #1f77b4"/>
   </g>
   <g id="patch_33">
    <path d="M 222.123125 288.430125 
L 223.518125 288.430125 
L 223.518125 278.292525 
L 222.123125 278.292525 
z
" clip-path="url(#p78dec96e8c)" style="fill: #1f77b4"/>
   </g>
   <g id="patch_34">
    <path d="M 227.703125 288.430125 
L 229.098125 288.430125 
L 229.098125 270.182445 
L 227.703125 270.182445 
z
" clip-path="url(#p78dec96e8c)" style="fill: #1f77b4"/>
   </g>
   <g id="patch_35">
    <path d="M 233.283125 288.430125 
L 234.678125 288.430125 
L 234.678125 278.292525 
L 233.283125 278.292525 
z
" clip-path="url(#p78dec96e8c)" style="fill: #1f77b4"/>
   </g>
   <g id="patch_36">
    <path d="M 238.863125 288.430125 
L 240.258125 288.430125 
L 240.258125 278.292525 
L 238.863125 278.292525 
z
" clip-path="url(#p78dec96e8c)" style="fill: #1f77b4"/>
   </g>
   <g id="patch_37">
    <path d="M 244.443125 288.430125 
L 245.838125 288.430125 
L 245.838125 278.292525 
L 244.443125 278.292525 
z
" clip-path="url(#p78dec96e8c)" style="fill: #1f77b4"/>
   </g>
   <g id="patch_38">
    <path d="M 250.023125 288.430125 
L 251.418125 288.430125 
L 251.418125 278.292525 
L 250.023125 278.292525 
z
" clip-path="url(#p78dec96e8c)" style="fill: #1f77b4"/>
   </g>
   <g id="patch_39">
    <path d="M 255.603125 288.430125 
L 256.998125 288.430125 
L 256.998125 276.265005 
L 255.603125 276.265005 
z
" clip-path="url(#p78dec96e8c)" style="fill: #1f77b4"/>
   </g>
   <g id="patch_40">
    <path d="M 261.183125 288.430125 
L 262.578125 288.430125 
L 262.578125 278.292525 
L 261.183125 278.292525 
z
" clip-path="url(#p78dec96e8c)" style="fill: #1f77b4"/>
   </g>
   <g id="patch_41">
    <path d="M 266.763125 288.430125 
L 268.158125 288.430125 
L 268.158125 278.292525 
L 266.763125 278.292525 
z
" clip-path="url(#p78dec96e8c)" style="fill: #1f77b4"/>
   </g>
   <g id="patch_42">
    <path d="M 272.343125 288.430125 
L 273.738125 288.430125 
L 273.738125 278.292525 
L 272.343125 278.292525 
z
" clip-path="url(#p78dec96e8c)" style="fill: #1f77b4"/>
   </g>
   <g id="patch_43">
    <path d="M 277.923125 288.430125 
L 279.318125 288.430125 
L 279.318125 276.265005 
L 277.923125 276.265005 
z
" clip-path="url(#p78dec96e8c)" style="fill: #1f77b4"/>
   </g>
   <g id="patch_44">
    <path d="M 283.503125 288.430125 
L 284.898125 288.430125 
L 284.898125 278.292525 
L 283.503125 278.292525 
z
" clip-path="url(#p78dec96e8c)" style="fill: #1f77b4"/>
   </g>
   <g id="patch_45">
    <path d="M 289.083125 288.430125 
L 290.478125 288.430125 
L 290.478125 278.292525 
L 289.083125 278.292525 
z
" clip-path="url(#p78dec96e8c)" style="fill: #1f77b4"/>
   </g>
   <g id="patch_46">
    <path d="M 294.663125 288.430125 
L 296.058125 288.430125 
L 296.058125 278.292525 
L 294.663125 278.292525 
z
" clip-path="url(#p78dec96e8c)" style="fill: #1f77b4"/>
   </g>
   <g id="patch_47">
    <path d="M 300.243125 288.430125 
L 301.638125 288.430125 
L 301.638125 274.237485 
L 300.243125 274.237485 
z
" clip-path="url(#p78dec96e8c)" style="fill: #1f77b4"/>
   </g>
   <g id="patch_48">
    <path d="M 305.823125 288.430125 
L 307.218125 288.430125 
L 307.218125 276.265005 
L 305.823125 276.265005 
z
" clip-path="url(#p78dec96e8c)" style="fill: #1f77b4"/>
   </g>
   <g id="patch_49">
    <path d="M 311.403125 288.430125 
L 312.798125 288.430125 
L 312.798125 274.237485 
L 311.403125 274.237485 
z
" clip-path="url(#p78dec96e8c)" style="fill: #1f77b4"/>
   </g>
   <g id="patch_50">
    <path d="M 316.983125 288.430125 
L 318.378125 288.430125 
L 318.378125 276.265005 
L 316.983125 276.265005 
z
" clip-path="url(#p78dec96e8c)" style="fill: #1f77b4"/>
   </g>
   <g id="patch_51">
    <path d="M 322.563125 288.430125 
L 323.958125 288.430125 
L 323.958125 272.209965 
L 322.563125 272.209965 
z
" clip-path="url(#p78dec96e8c)" style="fill: #1f77b4"/>
   </g>
   <g id="patch_52">
    <path d="M 328.143125 288.430125 
L 329.538125 288.430125 
L 329.538125 274.237485 
L 328.143125 274.237485 
z
" clip-path="url(#p78dec96e8c)" style="fill: #1f77b4"/>
   </g>
   <g id="patch_53">
    <path d="M 333.723125 288.430125 
L 335.118125 288.430125 
L 335.118125 274.237485 
L 333.723125 274.237485 
z
" clip-path="url(#p78dec96e8c)" style="fill: #1f77b4"/>
   </g>
   <g id="patch_54">
    <path d="M 339.303125 288.430125 
L 340.698125 288.430125 
L 340.698125 262.072365 
L 339.303125 262.072365 
z
" clip-path="url(#p78dec96e8c)" style="fill: #1f77b4"/>
   </g>
   <g id="patch_55">
    <path d="M 344.883125 288.430125 
L 346.278125 288.430125 
L 346.278125 272.209965 
L 344.883125 272.209965 
z
" clip-path="url(#p78dec96e8c)" style="fill: #1f77b4"/>
   </g>
   <g id="patch_56">
    <path d="M 350.463125 288.430125 
L 351.858125 288.430125 
L 351.858125 260.044845 
L 350.463125 260.044845 
z
" clip-path="url(#p78dec96e8c)" style="fill: #1f77b4"/>
   </g>
   <g id="patch_57">
    <path d="M 356.043125 288.430125 
L 357.438125 288.430125 
L 357.438125 272.209965 
L 356.043125 272.209965 
z
" clip-path="url(#p78dec96e8c)" style="fill: #1f77b4"/>
   </g>
   <g id="patch_58">
    <path d="M 361.623125 288.430125 
L 363.018125 288.430125 
L 363.018125 272.209965 
L 361.623125 272.209965 
z
" clip-path="url(#p78dec96e8c)" style="fill: #1f77b4"/>
   </g>
   <g id="patch_59">
    <path d="M 367.203125 288.430125 
L 368.598125 288.430125 
L 368.598125 274.237485 
L 367.203125 274.237485 
z
" clip-path="url(#p78dec96e8c)" style="fill: #1f77b4"/>
   </g>
   <g id="patch_60">
    <path d="M 372.783125 288.430125 
L 374.178125 288.430125 
L 374.178125 286.402605 
L 372.783125 286.402605 
z
" clip-path="url(#p78dec96e8c)" style="fill: #1f77b4"/>
   </g>
   <g id="patch_61">
    <path d="M 378.363125 288.430125 
L 379.758125 288.430125 
L 379.758125 274.237485 
L 378.363125 274.237485 
z
" clip-path="url(#p78dec96e8c)" style="fill: #1f77b4"/>
   </g>
   <g id="patch_62">
    <path d="M 383.943125 288.430125 
L 385.338125 288.430125 
L 385.338125 272.209965 
L 383.943125 272.209965 
z
" clip-path="url(#p78dec96e8c)" style="fill: #1f77b4"/>
   </g>
   <g id="patch_63">
    <path d="M 389.523125 288.430125 
L 390.918125 288.430125 
L 390.918125 272.209965 
L 389.523125 272.209965 
z
" clip-path="url(#p78dec96e8c)" style="fill: #1f77b4"/>
   </g>
   <g id="patch_64">
    <path d="M 395.103125 288.430125 
L 396.498125 288.430125 
L 396.498125 270.182445 
L 395.103125 270.182445 
z
" clip-path="url(#p78dec96e8c)" style="fill: #1f77b4"/>
   </g>
   <g id="patch_65">
    <path d="M 400.683125 288.430125 
L 402.078125 288.430125 
L 402.078125 272.209965 
L 400.683125 272.209965 
z
" clip-path="url(#p78dec96e8c)" style="fill: #1f77b4"/>
   </g>
   <g id="patch_66">
    <path d="M 406.263125 288.430125 
L 407.658125 288.430125 
L 407.658125 268.154925 
L 406.263125 268.154925 
z
" clip-path="url(#p78dec96e8c)" style="fill: #1f77b4"/>
   </g>
   <g id="patch_67">
    <path d="M 56.118125 288.430125 
L 57.513125 288.430125 
L 57.513125 284.470125 
L 56.118125 284.470125 
z
" clip-path="url(#p78dec96e8c)" style="fill: #ff7f0e"/>
   </g>
   <g id="patch_68">
    <path d="M 61.698125 288.430125 
L 63.093125 288.430125 
L 63.093125 280.510125 
L 61.698125 280.510125 
z
" clip-path="url(#p78dec96e8c)" style="fill: #ff7f0e"/>
   </g>
   <g id="patch_69">
    <path d="M 67.278125 288.430125 
L 68.673125 288.430125 
L 68.673125 276.550125 
L 67.278125 276.550125 
z
" clip-path="url(#p78dec96e8c)" style="fill: #ff7f0e"/>
   </g>
   <g id="patch_70">
    <path d="M 72.858125 288.430125 
L 74.253125 288.430125 
L 74.253125 272.590125 
L 72.858125 272.590125 
z
" clip-path="url(#p78dec96e8c)" style="fill: #ff7f0e"/>
   </g>
   <g id="patch_71">
    <path d="M 78.438125 288.430125 
L 79.833125 288.430125 
L 79.833125 268.630125 
L 78.438125 268.630125 
z
" clip-path="url(#p78dec96e8c)" style="fill: #ff7f0e"/>
   </g>
   <g id="patch_72">
    <path d="M 84.018125 288.430125 
L 85.413125 288.430125 
L 85.413125 264.670125 
L 84.018125 264.670125 
z
" clip-path="url(#p78dec96e8c)" style="fill: #ff7f0e"/>
   </g>
   <g id="patch_73">
    <path d="M 89.598125 288.430125 
L 90.993125 288.430125 
L 90.993125 260.710125 
L 89.598125 260.710125 
z
" clip-path="url(#p78dec96e8c)" style="fill: #ff7f0e"/>
   </g>
   <g id="patch_74">
    <path d="M 95.178125 288.430125 
L 96.573125 288.430125 
L 96.573125 256.750125 
L 95.178125 256.750125 
z
" clip-path="url(#p78dec96e8c)" style="fill: #ff7f0e"/>
   </g>
   <g id="patch_75">
    <path d="M 100.758125 288.430125 
L 102.153125 288.430125 
L 102.153125 252.790125 
L 100.758125 252.790125 
z
" clip-path="url(#p78dec96e8c)" style="fill: #ff7f0e"/>
   </g>
   <g id="patch_76">
    <path d="M 106.338125 288.430125 
L 107.733125 288.430125 
L 107.733125 248.830125 
L 106.338125 248.830125 
z
" clip-path="url(#p78dec96e8c)" style="fill: #ff7f0e"/>
   </g>
   <g id="patch_77">
    <path d="M 111.918125 288.430125 
L 113.313125 288.430125 
L 113.313125 244.870125 
L 111.918125 244.870125 
z
" clip-path="url(#p78dec96e8c)" style="fill: #ff7f0e"/>
   </g>
   <g id="patch_78">
    <path d="M 117.498125 288.430125 
L 118.893125 288.430125 
L 118.893125 240.910125 
L 117.498125 240.910125 
z
" clip-path="url(#p78dec96e8c)" style="fill: #ff7f0e"/>
   </g>
   <g id="patch_79">
    <path d="M 123.078125 288.430125 
L 124.473125 288.430125 
L 124.473125 236.950125 
L 123.078125 236.950125 
z
" clip-path="url(#p78dec96e8c)" style="fill: #ff7f0e"/>
   </g>
   <g id="patch_80">
    <path d="M 128.658125 288.430125 
L 130.053125 288.430125 
L 130.053125 232.990125 
L 128.658125 232.990125 
z
" clip-path="url(#p78dec96e8c)" style="fill: #ff7f0e"/>
   </g>
   <g id="patch_81">
    <path d="M 134.238125 288.430125 
L 135.633125 288.430125 
L 135.633125 229.030125 
L 134.238125 229.030125 
z
" clip-path="url(#p78dec96e8c)" style="fill: #ff7f0e"/>
   </g>
   <g id="patch_82">
    <path d="M 139.818125 288.430125 
L 141.213125 288.430125 
L 141.213125 225.070125 
L 139.818125 225.070125 
z
" clip-path="url(#p78dec96e8c)" style="fill: #ff7f0e"/>
   </g>
   <g id="patch_83">
    <path d="M 145.398125 288.430125 
L 146.793125 288.430125 
L 146.793125 221.110125 
L 145.398125 221.110125 
z
" clip-path="url(#p78dec96e8c)" style="fill: #ff7f0e"/>
   </g>
   <g id="patch_84">
    <path d="M 150.978125 288.430125 
L 152.373125 288.430125 
L 152.373125 217.150125 
L 150.978125 217.150125 
z
" clip-path="url(#p78dec96e8c)" style="fill: #ff7f0e"/>
   </g>
   <g id="patch_85">
    <path d="M 156.558125 288.430125 
L 157.953125 288.430125 
L 157.953125 213.190125 
L 156.558125 213.190125 
z
" clip-path="url(#p78dec96e8c)" style="fill: #ff7f0e"/>
   </g>
   <g id="patch_86">
    <path d="M 162.138125 288.430125 
L 163.533125 288.430125 
L 163.533125 209.230125 
L 162.138125 209.230125 
z
" clip-path="url(#p78dec96e8c)" style="fill: #ff7f0e"/>
   </g>
   <g id="patch_87">
    <path d="M 167.718125 288.430125 
L 169.113125 288.430125 
L 169.113125 205.270125 
L 167.718125 205.270125 
z
" clip-path="url(#p78dec96e8c)" style="fill: #ff7f0e"/>
   </g>
   <g id="patch_88">
    <path d="M 173.298125 288.430125 
L 174.693125 288.430125 
L 174.693125 201.310125 
L 173.298125 201.310125 
z
" clip-path="url(#p78dec96e8c)" style="fill: #ff7f0e"/>
   </g>
   <g id="patch_89">
    <path d="M 178.878125 288.430125 
L 180.273125 288.430125 
L 180.273125 197.350125 
L 178.878125 197.350125 
z
" clip-path="url(#p78dec96e8c)" style="fill: #ff7f0e"/>
   </g>
   <g id="patch_90">
    <path d="M 184.458125 288.430125 
L 185.853125 288.430125 
L 185.853125 193.390125 
L 184.458125 193.390125 
z
" clip-path="url(#p78dec96e8c)" style="fill: #ff7f0e"/>
   </g>
   <g id="patch_91">
    <path d="M 190.038125 288.430125 
L 191.433125 288.430125 
L 191.433125 189.430125 
L 190.038125 189.430125 
z
" clip-path="url(#p78dec96e8c)" style="fill: #ff7f0e"/>
   </g>
   <g id="patch_92">
    <path d="M 195.618125 288.430125 
L 197.013125 288.430125 
L 197.013125 185.470125 
L 195.618125 185.470125 
z
" clip-path="url(#p78dec96e8c)" style="fill: #ff7f0e"/>
   </g>
   <g id="patch_93">
    <path d="M 201.198125 288.430125 
L 202.593125 288.430125 
L 202.593125 181.510125 
L 201.198125 181.510125 
z
" clip-path="url(#p78dec96e8c)" style="fill: #ff7f0e"/>
   </g>
   <g id="patch_94">
    <path d="M 206.778125 288.430125 
L 208.173125 288.430125 
L 208.173125 177.550125 
L 206.778125 177.550125 
z
" clip-path="url(#p78dec96e8c)" style="fill: #ff7f0e"/>
   </g>
   <g id="patch_95">
    <path d="M 212.358125 288.430125 
L 213.753125 288.430125 
L 213.753125 173.590125 
L 212.358125 173.590125 
z
" clip-path="url(#p78dec96e8c)" style="fill: #ff7f0e"/>
   </g>
   <g id="patch_96">
    <path d="M 217.938125 288.430125 
L 219.333125 288.430125 
L 219.333125 169.630125 
L 217.938125 169.630125 
z
" clip-path="url(#p78dec96e8c)" style="fill: #ff7f0e"/>
   </g>
   <g id="patch_97">
    <path d="M 223.518125 288.430125 
L 224.913125 288.430125 
L 224.913125 165.670125 
L 223.518125 165.670125 
z
" clip-path="url(#p78dec96e8c)" style="fill: #ff7f0e"/>
   </g>
   <g id="patch_98">
    <path d="M 229.098125 288.430125 
L 230.493125 288.430125 
L 230.493125 161.710125 
L 229.098125 161.710125 
z
" clip-path="url(#p78dec96e8c)" style="fill: #ff7f0e"/>
   </g>
   <g id="patch_99">
    <path d="M 234.678125 288.430125 
L 236.073125 288.430125 
L 236.073125 157.750125 
L 234.678125 157.750125 
z
" clip-path="url(#p78dec96e8c)" style="fill: #ff7f0e"/>
   </g>
   <g id="patch_100">
    <path d="M 240.258125 288.430125 
L 241.653125 288.430125 
L 241.653125 153.790125 
L 240.258125 153.790125 
z
" clip-path="url(#p78dec96e8c)" style="fill: #ff7f0e"/>
   </g>
   <g id="patch_101">
    <path d="M 245.838125 288.430125 
L 247.233125 288.430125 
L 247.233125 149.830125 
L 245.838125 149.830125 
z
" clip-path="url(#p78dec96e8c)" style="fill: #ff7f0e"/>
   </g>
   <g id="patch_102">
    <path d="M 251.418125 288.430125 
L 252.813125 288.430125 
L 252.813125 145.870125 
L 251.418125 145.870125 
z
" clip-path="url(#p78dec96e8c)" style="fill: #ff7f0e"/>
   </g>
   <g id="patch_103">
    <path d="M 256.998125 288.430125 
L 258.393125 288.430125 
L 258.393125 141.910125 
L 256.998125 141.910125 
z
" clip-path="url(#p78dec96e8c)" style="fill: #ff7f0e"/>
   </g>
   <g id="patch_104">
    <path d="M 262.578125 288.430125 
L 263.973125 288.430125 
L 263.973125 137.950125 
L 262.578125 137.950125 
z
" clip-path="url(#p78dec96e8c)" style="fill: #ff7f0e"/>
   </g>
   <g id="patch_105">
    <path d="M 268.158125 288.430125 
L 269.553125 288.430125 
L 269.553125 133.990125 
L 268.158125 133.990125 
z
" clip-path="url(#p78dec96e8c)" style="fill: #ff7f0e"/>
   </g>
   <g id="patch_106">
    <path d="M 273.738125 288.430125 
L 275.133125 288.430125 
L 275.133125 130.030125 
L 273.738125 130.030125 
z
" clip-path="url(#p78dec96e8c)" style="fill: #ff7f0e"/>
   </g>
   <g id="patch_107">
    <path d="M 279.318125 288.430125 
L 280.713125 288.430125 
L 280.713125 126.070125 
L 279.318125 126.070125 
z
" clip-path="url(#p78dec96e8c)" style="fill: #ff7f0e"/>
   </g>
   <g id="patch_108">
    <path d="M 284.898125 288.430125 
L 286.293125 288.430125 
L 286.293125 122.110125 
L 284.898125 122.110125 
z
" clip-path="url(#p78dec96e8c)" style="fill: #ff7f0e"/>
   </g>
   <g id="patch_109">
    <path d="M 290.478125 288.430125 
L 291.873125 288.430125 
L 291.873125 118.150125 
L 290.478125 118.150125 
z
" clip-path="url(#p78dec96e8c)" style="fill: #ff7f0e"/>
   </g>
   <g id="patch_110">
    <path d="M 296.058125 288.430125 
L 297.453125 288.430125 
L 297.453125 114.190125 
L 296.058125 114.190125 
z
" clip-path="url(#p78dec96e8c)" style="fill: #ff7f0e"/>
   </g>
   <g id="patch_111">
    <path d="M 301.638125 288.430125 
L 303.033125 288.430125 
L 303.033125 110.230125 
L 301.638125 110.230125 
z
" clip-path="url(#p78dec96e8c)" style="fill: #ff7f0e"/>
   </g>
   <g id="patch_112">
    <path d="M 307.218125 288.430125 
L 308.613125 288.430125 
L 308.613125 106.270125 
L 307.218125 106.270125 
z
" clip-path="url(#p78dec96e8c)" style="fill: #ff7f0e"/>
   </g>
   <g id="patch_113">
    <path d="M 312.798125 288.430125 
L 314.193125 288.430125 
L 314.193125 102.310125 
L 312.798125 102.310125 
z
" clip-path="url(#p78dec96e8c)" style="fill: #ff7f0e"/>
   </g>
   <g id="patch_114">
    <path d="M 318.378125 288.430125 
L 319.773125 288.430125 
L 319.773125 98.350125 
L 318.378125 98.350125 
z
" clip-path="url(#p78dec96e8c)" style="fill: #ff7f0e"/>
   </g>
   <g id="patch_115">
    <path d="M 323.958125 288.430125 
L 325.353125 288.430125 
L 325.353125 94.390125 
L 323.958125 94.390125 
z
" clip-path="url(#p78dec96e8c)" style="fill: #ff7f0e"/>
   </g>
   <g id="patch_116">
    <path d="M 329.538125 288.430125 
L 330.933125 288.430125 
L 330.933125 90.430125 
L 329.538125 90.430125 
z
" clip-path="url(#p78dec96e8c)" style="fill: #ff7f0e"/>
   </g>
   <g id="patch_117">
    <path d="M 335.118125 288.430125 
L 336.513125 288.430125 
L 336.513125 86.470125 
L 335.118125 86.470125 
z
" clip-path="url(#p78dec96e8c)" style="fill: #ff7f0e"/>
   </g>
   <g id="patch_118">
    <path d="M 340.698125 288.430125 
L 342.093125 288.430125 
L 342.093125 82.510125 
L 340.698125 82.510125 
z
" clip-path="url(#p78dec96e8c)" style="fill: #ff7f0e"/>
   </g>
   <g id="patch_119">
    <path d="M 346.278125 288.430125 
L 347.673125 288.430125 
L 347.673125 78.550125 
L 346.278125 78.550125 
z
" clip-path="url(#p78dec96e8c)" style="fill: #ff7f0e"/>
   </g>
   <g id="patch_120">
    <path d="M 351.858125 288.430125 
L 353.253125 288.430125 
L 353.253125 74.590125 
L 351.858125 74.590125 
z
" clip-path="url(#p78dec96e8c)" style="fill: #ff7f0e"/>
   </g>
   <g id="patch_121">
    <path d="M 357.438125 288.430125 
L 358.833125 288.430125 
L 358.833125 70.630125 
L 357.438125 70.630125 
z
" clip-path="url(#p78dec96e8c)" style="fill: #ff7f0e"/>
   </g>
   <g id="patch_122">
    <path d="M 363.018125 288.430125 
L 364.413125 288.430125 
L 364.413125 66.670125 
L 363.018125 66.670125 
z
" clip-path="url(#p78dec96e8c)" style="fill: #ff7f0e"/>
   </g>
   <g id="patch_123">
    <path d="M 368.598125 288.430125 
L 369.993125 288.430125 
L 369.993125 62.710125 
L 368.598125 62.710125 
z
" clip-path="url(#p78dec96e8c)" style="fill: #ff7f0e"/>
   </g>
   <g id="patch_124">
    <path d="M 374.178125 288.430125 
L 375.573125 288.430125 
L 375.573125 58.750125 
L 374.178125 58.750125 
z
" clip-path="url(#p78dec96e8c)" style="fill: #ff7f0e"/>
   </g>
   <g id="patch_125">
    <path d="M 379.758125 288.430125 
L 381.153125 288.430125 
L 381.153125 54.790125 
L 379.758125 54.790125 
z
" clip-path="url(#p78dec96e8c)" style="fill: #ff7f0e"/>
   </g>
   <g id="patch_126">
    <path d="M 385.338125 288.430125 
L 386.733125 288.430125 
L 386.733125 50.830125 
L 385.338125 50.830125 
z
" clip-path="url(#p78dec96e8c)" style="fill: #ff7f0e"/>
   </g>
   <g id="patch_127">
    <path d="M 390.918125 288.430125 
L 392.313125 288.430125 
L 392.313125 46.870125 
L 390.918125 46.870125 
z
" clip-path="url(#p78dec96e8c)" style="fill: #ff7f0e"/>
   </g>
   <g id="patch_128">
    <path d="M 396.498125 288.430125 
L 397.893125 288.430125 
L 397.893125 42.910125 
L 396.498125 42.910125 
z
" clip-path="url(#p78dec96e8c)" style="fill: #ff7f0e"/>
   </g>
   <g id="patch_129">
    <path d="M 402.078125 288.430125 
L 403.473125 288.430125 
L 403.473125 38.950125 
L 402.078125 38.950125 
z
" clip-path="url(#p78dec96e8c)" style="fill: #ff7f0e"/>
   </g>
   <g id="patch_130">
    <path d="M 407.658125 288.430125 
L 409.053125 288.430125 
L 409.053125 34.990125 
L 407.658125 34.990125 
z
" clip-path="url(#p78dec96e8c)" style="fill: #ff7f0e"/>
   </g>
   <g id="matplotlib.axis_1">
    <g id="xtick_1">
     <g id="line2d_1">
      <defs>
       <path id="mc621e37def" d="M 0 0 
L 0 3.5 
" style="stroke: #000000; stroke-width: 0.8"/>
      </defs>
      <g>
       <use xlink:href="#mc621e37def" x="56.118125" y="288.430125" style="stroke: #000000; stroke-width: 0.8"/>
      </g>
     </g>
     <g id="text_1">
      <!-- 16 -->
      <g transform="translate(49.755625 303.028562) scale(0.1 -0.1)">
       <defs>
        <path id="DejaVuSans-31" d="M 794 531 
L 1825 531 
L 1825 4091 
L 703 3866 
L 703 4441 
L 1819 4666 
L 2450 4666 
L 2450 531 
L 3481 531 
L 3481 0 
L 794 0 
L 794 531 
z
" transform="scale(0.015625)"/>
        <path id="DejaVuSans-36" d="M 2113 2584 
Q 1688 2584 1439 2293 
Q 1191 2003 1191 1497 
Q 1191 994 1439 701 
Q 1688 409 2113 409 
Q 2538 409 2786 701 
Q 3034 994 3034 1497 
Q 3034 2003 2786 2293 
Q 2538 2584 2113 2584 
z
M 3366 4563 
L 3366 3988 
Q 3128 4100 2886 4159 
Q 2644 4219 2406 4219 
Q 1781 4219 1451 3797 
Q 1122 3375 1075 2522 
Q 1259 2794 1537 2939 
Q 1816 3084 2150 3084 
Q 2853 3084 3261 2657 
Q 3669 2231 3669 1497 
Q 3669 778 3244 343 
Q 2819 -91 2113 -91 
Q 1303 -91 875 529 
Q 447 1150 447 2328 
Q 447 3434 972 4092 
Q 1497 4750 2381 4750 
Q 2619 4750 2861 4703 
Q 3103 4656 3366 4563 
z
" transform="scale(0.015625)"/>
       </defs>
       <use xlink:href="#DejaVuSans-31"/>
       <use xlink:href="#DejaVuSans-36" x="63.623047"/>
      </g>
     </g>
    </g>
    <g id="xtick_2">
     <g id="line2d_2">
      <g>
       <use xlink:href="#mc621e37def" x="95.178125" y="288.430125" style="stroke: #000000; stroke-width: 0.8"/>
      </g>
     </g>
     <g id="text_2">
      <!-- 128 -->
      <g transform="translate(85.634375 303.028562) scale(0.1 -0.1)">
       <defs>
        <path id="DejaVuSans-32" d="M 1228 531 
L 3431 531 
L 3431 0 
L 469 0 
L 469 531 
Q 828 903 1448 1529 
Q 2069 2156 2228 2338 
Q 2531 2678 2651 2914 
Q 2772 3150 2772 3378 
Q 2772 3750 2511 3984 
Q 2250 4219 1831 4219 
Q 1534 4219 1204 4116 
Q 875 4013 500 3803 
L 500 4441 
Q 881 4594 1212 4672 
Q 1544 4750 1819 4750 
Q 2544 4750 2975 4387 
Q 3406 4025 3406 3419 
Q 3406 3131 3298 2873 
Q 3191 2616 2906 2266 
Q 2828 2175 2409 1742 
Q 1991 1309 1228 531 
z
" transform="scale(0.015625)"/>
        <path id="DejaVuSans-38" d="M 2034 2216 
Q 1584 2216 1326 1975 
Q 1069 1734 1069 1313 
Q 1069 891 1326 650 
Q 1584 409 2034 409 
Q 2484 409 2743 651 
Q 3003 894 3003 1313 
Q 3003 1734 2745 1975 
Q 2488 2216 2034 2216 
z
M 1403 2484 
Q 997 2584 770 2862 
Q 544 3141 544 3541 
Q 544 4100 942 4425 
Q 1341 4750 2034 4750 
Q 2731 4750 3128 4425 
Q 3525 4100 3525 3541 
Q 3525 3141 3298 2862 
Q 3072 2584 2669 2484 
Q 3125 2378 3379 2068 
Q 3634 1759 3634 1313 
Q 3634 634 3220 271 
Q 2806 -91 2034 -91 
Q 1263 -91 848 271 
Q 434 634 434 1313 
Q 434 1759 690 2068 
Q 947 2378 1403 2484 
z
M 1172 3481 
Q 1172 3119 1398 2916 
Q 1625 2713 2034 2713 
Q 2441 2713 2670 2916 
Q 2900 3119 2900 3481 
Q 2900 3844 2670 4047 
Q 2441 4250 2034 4250 
Q 1625 4250 1398 4047 
Q 1172 3844 1172 3481 
z
" transform="scale(0.015625)"/>
       </defs>
       <use xlink:href="#DejaVuSans-31"/>
       <use xlink:href="#DejaVuSans-32" x="63.623047"/>
       <use xlink:href="#DejaVuSans-38" x="127.246094"/>
      </g>
     </g>
    </g>
    <g id="xtick_3">
     <g id="line2d_3">
      <g>
       <use xlink:href="#mc621e37def" x="134.238125" y="288.430125" style="stroke: #000000; stroke-width: 0.8"/>
      </g>
     </g>
     <g id="text_3">
      <!-- 240 -->
      <g transform="translate(124.694375 303.028562) scale(0.1 -0.1)">
       <defs>
        <path id="DejaVuSans-34" d="M 2419 4116 
L 825 1625 
L 2419 1625 
L 2419 4116 
z
M 2253 4666 
L 3047 4666 
L 3047 1625 
L 3713 1625 
L 3713 1100 
L 3047 1100 
L 3047 0 
L 2419 0 
L 2419 1100 
L 313 1100 
L 313 1709 
L 2253 4666 
z
" transform="scale(0.015625)"/>
        <path id="DejaVuSans-30" d="M 2034 4250 
Q 1547 4250 1301 3770 
Q 1056 3291 1056 2328 
Q 1056 1369 1301 889 
Q 1547 409 2034 409 
Q 2525 409 2770 889 
Q 3016 1369 3016 2328 
Q 3016 3291 2770 3770 
Q 2525 4250 2034 4250 
z
M 2034 4750 
Q 2819 4750 3233 4129 
Q 3647 3509 3647 2328 
Q 3647 1150 3233 529 
Q 2819 -91 2034 -91 
Q 1250 -91 836 529 
Q 422 1150 422 2328 
Q 422 3509 836 4129 
Q 1250 4750 2034 4750 
z
" transform="scale(0.015625)"/>
       </defs>
       <use xlink:href="#DejaVuSans-32"/>
       <use xlink:href="#DejaVuSans-34" x="63.623047"/>
       <use xlink:href="#DejaVuSans-30" x="127.246094"/>
      </g>
     </g>
    </g>
    <g id="xtick_4">
     <g id="line2d_4">
      <g>
       <use xlink:href="#mc621e37def" x="173.298125" y="288.430125" style="stroke: #000000; stroke-width: 0.8"/>
      </g>
     </g>
     <g id="text_4">
      <!-- 352 -->
      <g transform="translate(163.754375 303.028562) scale(0.1 -0.1)">
       <defs>
        <path id="DejaVuSans-33" d="M 2597 2516 
Q 3050 2419 3304 2112 
Q 3559 1806 3559 1356 
Q 3559 666 3084 287 
Q 2609 -91 1734 -91 
Q 1441 -91 1130 -33 
Q 819 25 488 141 
L 488 750 
Q 750 597 1062 519 
Q 1375 441 1716 441 
Q 2309 441 2620 675 
Q 2931 909 2931 1356 
Q 2931 1769 2642 2001 
Q 2353 2234 1838 2234 
L 1294 2234 
L 1294 2753 
L 1863 2753 
Q 2328 2753 2575 2939 
Q 2822 3125 2822 3475 
Q 2822 3834 2567 4026 
Q 2313 4219 1838 4219 
Q 1578 4219 1281 4162 
Q 984 4106 628 3988 
L 628 4550 
Q 988 4650 1302 4700 
Q 1616 4750 1894 4750 
Q 2613 4750 3031 4423 
Q 3450 4097 3450 3541 
Q 3450 3153 3228 2886 
Q 3006 2619 2597 2516 
z
" transform="scale(0.015625)"/>
        <path id="DejaVuSans-35" d="M 691 4666 
L 3169 4666 
L 3169 4134 
L 1269 4134 
L 1269 2991 
Q 1406 3038 1543 3061 
Q 1681 3084 1819 3084 
Q 2600 3084 3056 2656 
Q 3513 2228 3513 1497 
Q 3513 744 3044 326 
Q 2575 -91 1722 -91 
Q 1428 -91 1123 -41 
Q 819 9 494 109 
L 494 744 
Q 775 591 1075 516 
Q 1375 441 1709 441 
Q 2250 441 2565 725 
Q 2881 1009 2881 1497 
Q 2881 1984 2565 2268 
Q 2250 2553 1709 2553 
Q 1456 2553 1204 2497 
Q 953 2441 691 2322 
L 691 4666 
z
" transform="scale(0.015625)"/>
       </defs>
       <use xlink:href="#DejaVuSans-33"/>
       <use xlink:href="#DejaVuSans-35" x="63.623047"/>
       <use xlink:href="#DejaVuSans-32" x="127.246094"/>
      </g>
     </g>
    </g>
    <g id="xtick_5">
     <g id="line2d_5">
      <g>
       <use xlink:href="#mc621e37def" x="212.358125" y="288.430125" style="stroke: #000000; stroke-width: 0.8"/>
      </g>
     </g>
     <g id="text_5">
      <!-- 464 -->
      <g transform="translate(202.814375 303.028562) scale(0.1 -0.1)">
       <use xlink:href="#DejaVuSans-34"/>
       <use xlink:href="#DejaVuSans-36" x="63.623047"/>
       <use xlink:href="#DejaVuSans-34" x="127.246094"/>
      </g>
     </g>
    </g>
    <g id="xtick_6">
     <g id="line2d_6">
      <g>
       <use xlink:href="#mc621e37def" x="251.418125" y="288.430125" style="stroke: #000000; stroke-width: 0.8"/>
      </g>
     </g>
     <g id="text_6">
      <!-- 576 -->
      <g transform="translate(241.874375 303.028562) scale(0.1 -0.1)">
       <defs>
        <path id="DejaVuSans-37" d="M 525 4666 
L 3525 4666 
L 3525 4397 
L 1831 0 
L 1172 0 
L 2766 4134 
L 525 4134 
L 525 4666 
z
" transform="scale(0.015625)"/>
       </defs>
       <use xlink:href="#DejaVuSans-35"/>
       <use xlink:href="#DejaVuSans-37" x="63.623047"/>
       <use xlink:href="#DejaVuSans-36" x="127.246094"/>
      </g>
     </g>
    </g>
    <g id="xtick_7">
     <g id="line2d_7">
      <g>
       <use xlink:href="#mc621e37def" x="290.478125" y="288.430125" style="stroke: #000000; stroke-width: 0.8"/>
      </g>
     </g>
     <g id="text_7">
      <!-- 688 -->
      <g transform="translate(280.934375 303.028562) scale(0.1 -0.1)">
       <use xlink:href="#DejaVuSans-36"/>
       <use xlink:href="#DejaVuSans-38" x="63.623047"/>
       <use xlink:href="#DejaVuSans-38" x="127.246094"/>
      </g>
     </g>
    </g>
    <g id="xtick_8">
     <g id="line2d_8">
      <g>
       <use xlink:href="#mc621e37def" x="329.538125" y="288.430125" style="stroke: #000000; stroke-width: 0.8"/>
      </g>
     </g>
     <g id="text_8">
      <!-- 800 -->
      <g transform="translate(319.994375 303.028562) scale(0.1 -0.1)">
       <use xlink:href="#DejaVuSans-38"/>
       <use xlink:href="#DejaVuSans-30" x="63.623047"/>
       <use xlink:href="#DejaVuSans-30" x="127.246094"/>
      </g>
     </g>
    </g>
    <g id="xtick_9">
     <g id="line2d_9">
      <g>
       <use xlink:href="#mc621e37def" x="368.598125" y="288.430125" style="stroke: #000000; stroke-width: 0.8"/>
      </g>
     </g>
     <g id="text_9">
      <!-- 912 -->
      <g transform="translate(359.054375 303.028562) scale(0.1 -0.1)">
       <defs>
        <path id="DejaVuSans-39" d="M 703 97 
L 703 672 
Q 941 559 1184 500 
Q 1428 441 1663 441 
Q 2288 441 2617 861 
Q 2947 1281 2994 2138 
Q 2813 1869 2534 1725 
Q 2256 1581 1919 1581 
Q 1219 1581 811 2004 
Q 403 2428 403 3163 
Q 403 3881 828 4315 
Q 1253 4750 1959 4750 
Q 2769 4750 3195 4129 
Q 3622 3509 3622 2328 
Q 3622 1225 3098 567 
Q 2575 -91 1691 -91 
Q 1453 -91 1209 -44 
Q 966 3 703 97 
z
M 1959 2075 
Q 2384 2075 2632 2365 
Q 2881 2656 2881 3163 
Q 2881 3666 2632 3958 
Q 2384 4250 1959 4250 
Q 1534 4250 1286 3958 
Q 1038 3666 1038 3163 
Q 1038 2656 1286 2365 
Q 1534 2075 1959 2075 
z
" transform="scale(0.015625)"/>
       </defs>
       <use xlink:href="#DejaVuSans-39"/>
       <use xlink:href="#DejaVuSans-31" x="63.623047"/>
       <use xlink:href="#DejaVuSans-32" x="127.246094"/>
      </g>
     </g>
    </g>
    <g id="xtick_10">
     <g id="line2d_10">
      <g>
       <use xlink:href="#mc621e37def" x="407.658125" y="288.430125" style="stroke: #000000; stroke-width: 0.8"/>
      </g>
     </g>
     <g id="text_10">
      <!-- 1024 -->
      <g transform="translate(394.933125 303.028562) scale(0.1 -0.1)">
       <use xlink:href="#DejaVuSans-31"/>
       <use xlink:href="#DejaVuSans-30" x="63.623047"/>
       <use xlink:href="#DejaVuSans-32" x="127.246094"/>
       <use xlink:href="#DejaVuSans-34" x="190.869141"/>
      </g>
     </g>
    </g>
    <g id="text_11">
     <!-- File size (megabytes) -->
     <g transform="translate(178.785781 316.706687) scale(0.1 -0.1)">
      <defs>
       <path id="DejaVuSans-46" d="M 628 4666 
L 3309 4666 
L 3309 4134 
L 1259 4134 
L 1259 2759 
L 3109 2759 
L 3109 2228 
L 1259 2228 
L 1259 0 
L 628 0 
L 628 4666 
z
" transform="scale(0.015625)"/>
       <path id="DejaVuSans-69" d="M 603 3500 
L 1178 3500 
L 1178 0 
L 603 0 
L 603 3500 
z
M 603 4863 
L 1178 4863 
L 1178 4134 
L 603 4134 
L 603 4863 
z
" transform="scale(0.015625)"/>
       <path id="DejaVuSans-6c" d="M 603 4863 
L 1178 4863 
L 1178 0 
L 603 0 
L 603 4863 
z
" transform="scale(0.015625)"/>
       <path id="DejaVuSans-65" d="M 3597 1894 
L 3597 1613 
L 953 1613 
Q 991 1019 1311 708 
Q 1631 397 2203 397 
Q 2534 397 2845 478 
Q 3156 559 3463 722 
L 3463 178 
Q 3153 47 2828 -22 
Q 2503 -91 2169 -91 
Q 1331 -91 842 396 
Q 353 884 353 1716 
Q 353 2575 817 3079 
Q 1281 3584 2069 3584 
Q 2775 3584 3186 3129 
Q 3597 2675 3597 1894 
z
M 3022 2063 
Q 3016 2534 2758 2815 
Q 2500 3097 2075 3097 
Q 1594 3097 1305 2825 
Q 1016 2553 972 2059 
L 3022 2063 
z
" transform="scale(0.015625)"/>
       <path id="DejaVuSans-20" transform="scale(0.015625)"/>
       <path id="DejaVuSans-73" d="M 2834 3397 
L 2834 2853 
Q 2591 2978 2328 3040 
Q 2066 3103 1784 3103 
Q 1356 3103 1142 2972 
Q 928 2841 928 2578 
Q 928 2378 1081 2264 
Q 1234 2150 1697 2047 
L 1894 2003 
Q 2506 1872 2764 1633 
Q 3022 1394 3022 966 
Q 3022 478 2636 193 
Q 2250 -91 1575 -91 
Q 1294 -91 989 -36 
Q 684 19 347 128 
L 347 722 
Q 666 556 975 473 
Q 1284 391 1588 391 
Q 1994 391 2212 530 
Q 2431 669 2431 922 
Q 2431 1156 2273 1281 
Q 2116 1406 1581 1522 
L 1381 1569 
Q 847 1681 609 1914 
Q 372 2147 372 2553 
Q 372 3047 722 3315 
Q 1072 3584 1716 3584 
Q 2034 3584 2315 3537 
Q 2597 3491 2834 3397 
z
" transform="scale(0.015625)"/>
       <path id="DejaVuSans-7a" d="M 353 3500 
L 3084 3500 
L 3084 2975 
L 922 459 
L 3084 459 
L 3084 0 
L 275 0 
L 275 525 
L 2438 3041 
L 353 3041 
L 353 3500 
z
" transform="scale(0.015625)"/>
       <path id="DejaVuSans-28" d="M 1984 4856 
Q 1566 4138 1362 3434 
Q 1159 2731 1159 2009 
Q 1159 1288 1364 580 
Q 1569 -128 1984 -844 
L 1484 -844 
Q 1016 -109 783 600 
Q 550 1309 550 2009 
Q 550 2706 781 3412 
Q 1013 4119 1484 4856 
L 1984 4856 
z
" transform="scale(0.015625)"/>
       <path id="DejaVuSans-6d" d="M 3328 2828 
Q 3544 3216 3844 3400 
Q 4144 3584 4550 3584 
Q 5097 3584 5394 3201 
Q 5691 2819 5691 2113 
L 5691 0 
L 5113 0 
L 5113 2094 
Q 5113 2597 4934 2840 
Q 4756 3084 4391 3084 
Q 3944 3084 3684 2787 
Q 3425 2491 3425 1978 
L 3425 0 
L 2847 0 
L 2847 2094 
Q 2847 2600 2669 2842 
Q 2491 3084 2119 3084 
Q 1678 3084 1418 2786 
Q 1159 2488 1159 1978 
L 1159 0 
L 581 0 
L 581 3500 
L 1159 3500 
L 1159 2956 
Q 1356 3278 1631 3431 
Q 1906 3584 2284 3584 
Q 2666 3584 2933 3390 
Q 3200 3197 3328 2828 
z
" transform="scale(0.015625)"/>
       <path id="DejaVuSans-67" d="M 2906 1791 
Q 2906 2416 2648 2759 
Q 2391 3103 1925 3103 
Q 1463 3103 1205 2759 
Q 947 2416 947 1791 
Q 947 1169 1205 825 
Q 1463 481 1925 481 
Q 2391 481 2648 825 
Q 2906 1169 2906 1791 
z
M 3481 434 
Q 3481 -459 3084 -895 
Q 2688 -1331 1869 -1331 
Q 1566 -1331 1297 -1286 
Q 1028 -1241 775 -1147 
L 775 -588 
Q 1028 -725 1275 -790 
Q 1522 -856 1778 -856 
Q 2344 -856 2625 -561 
Q 2906 -266 2906 331 
L 2906 616 
Q 2728 306 2450 153 
Q 2172 0 1784 0 
Q 1141 0 747 490 
Q 353 981 353 1791 
Q 353 2603 747 3093 
Q 1141 3584 1784 3584 
Q 2172 3584 2450 3431 
Q 2728 3278 2906 2969 
L 2906 3500 
L 3481 3500 
L 3481 434 
z
" transform="scale(0.015625)"/>
       <path id="DejaVuSans-61" d="M 2194 1759 
Q 1497 1759 1228 1600 
Q 959 1441 959 1056 
Q 959 750 1161 570 
Q 1363 391 1709 391 
Q 2188 391 2477 730 
Q 2766 1069 2766 1631 
L 2766 1759 
L 2194 1759 
z
M 3341 1997 
L 3341 0 
L 2766 0 
L 2766 531 
Q 2569 213 2275 61 
Q 1981 -91 1556 -91 
Q 1019 -91 701 211 
Q 384 513 384 1019 
Q 384 1609 779 1909 
Q 1175 2209 1959 2209 
L 2766 2209 
L 2766 2266 
Q 2766 2663 2505 2880 
Q 2244 3097 1772 3097 
Q 1472 3097 1187 3025 
Q 903 2953 641 2809 
L 641 3341 
Q 956 3463 1253 3523 
Q 1550 3584 1831 3584 
Q 2591 3584 2966 3190 
Q 3341 2797 3341 1997 
z
" transform="scale(0.015625)"/>
       <path id="DejaVuSans-62" d="M 3116 1747 
Q 3116 2381 2855 2742 
Q 2594 3103 2138 3103 
Q 1681 3103 1420 2742 
Q 1159 2381 1159 1747 
Q 1159 1113 1420 752 
Q 1681 391 2138 391 
Q 2594 391 2855 752 
Q 3116 1113 3116 1747 
z
M 1159 2969 
Q 1341 3281 1617 3432 
Q 1894 3584 2278 3584 
Q 2916 3584 3314 3078 
Q 3713 2572 3713 1747 
Q 3713 922 3314 415 
Q 2916 -91 2278 -91 
Q 1894 -91 1617 61 
Q 1341 213 1159 525 
L 1159 0 
L 581 0 
L 581 4863 
L 1159 4863 
L 1159 2969 
z
" transform="scale(0.015625)"/>
       <path id="DejaVuSans-79" d="M 2059 -325 
Q 1816 -950 1584 -1140 
Q 1353 -1331 966 -1331 
L 506 -1331 
L 506 -850 
L 844 -850 
Q 1081 -850 1212 -737 
Q 1344 -625 1503 -206 
L 1606 56 
L 191 3500 
L 800 3500 
L 1894 763 
L 2988 3500 
L 3597 3500 
L 2059 -325 
z
" transform="scale(0.015625)"/>
       <path id="DejaVuSans-74" d="M 1172 4494 
L 1172 3500 
L 2356 3500 
L 2356 3053 
L 1172 3053 
L 1172 1153 
Q 1172 725 1289 603 
Q 1406 481 1766 481 
L 2356 481 
L 2356 0 
L 1766 0 
Q 1100 0 847 248 
Q 594 497 594 1153 
L 594 3053 
L 172 3053 
L 172 3500 
L 594 3500 
L 594 4494 
L 1172 4494 
z
" transform="scale(0.015625)"/>
       <path id="DejaVuSans-29" d="M 513 4856 
L 1013 4856 
Q 1481 4119 1714 3412 
Q 1947 2706 1947 2009 
Q 1947 1309 1714 600 
Q 1481 -109 1013 -844 
L 513 -844 
Q 928 -128 1133 580 
Q 1338 1288 1338 2009 
Q 1338 2731 1133 3434 
Q 928 4138 513 4856 
z
" transform="scale(0.015625)"/>
      </defs>
      <use xlink:href="#DejaVuSans-46"/>
      <use xlink:href="#DejaVuSans-69" x="50.269531"/>
      <use xlink:href="#DejaVuSans-6c" x="78.052734"/>
      <use xlink:href="#DejaVuSans-65" x="105.835938"/>
      <use xlink:href="#DejaVuSans-20" x="167.359375"/>
      <use xlink:href="#DejaVuSans-73" x="199.146484"/>
      <use xlink:href="#DejaVuSans-69" x="251.246094"/>
      <use xlink:href="#DejaVuSans-7a" x="279.029297"/>
      <use xlink:href="#DejaVuSans-65" x="331.519531"/>
      <use xlink:href="#DejaVuSans-20" x="393.042969"/>
      <use xlink:href="#DejaVuSans-28" x="424.830078"/>
      <use xlink:href="#DejaVuSans-6d" x="463.84375"/>
      <use xlink:href="#DejaVuSans-65" x="561.255859"/>
      <use xlink:href="#DejaVuSans-67" x="622.779297"/>
      <use xlink:href="#DejaVuSans-61" x="686.255859"/>
      <use xlink:href="#DejaVuSans-62" x="747.535156"/>
      <use xlink:href="#DejaVuSans-79" x="811.011719"/>
      <use xlink:href="#DejaVuSans-74" x="870.191406"/>
      <use xlink:href="#DejaVuSans-65" x="909.400391"/>
      <use xlink:href="#DejaVuSans-73" x="970.923828"/>
      <use xlink:href="#DejaVuSans-29" x="1023.023438"/>
     </g>
    </g>
   </g>
   <g id="matplotlib.axis_2">
    <g id="ytick_1">
     <g id="line2d_11">
      <defs>
       <path id="m099bed3094" d="M 0 0 
L -3.5 0 
" style="stroke: #000000; stroke-width: 0.8"/>
      </defs>
      <g>
       <use xlink:href="#m099bed3094" x="53.328125" y="288.430125" style="stroke: #000000; stroke-width: 0.8"/>
      </g>
     </g>
     <g id="text_12">
      <!-- 0 -->
      <g transform="translate(39.965625 292.229344) scale(0.1 -0.1)">
       <use xlink:href="#DejaVuSans-30"/>
      </g>
     </g>
    </g>
    <g id="ytick_2">
     <g id="line2d_12">
      <g>
       <use xlink:href="#m099bed3094" x="53.328125" y="238.930125" style="stroke: #000000; stroke-width: 0.8"/>
      </g>
     </g>
     <g id="text_13">
      <!-- 200 -->
      <g transform="translate(27.240625 242.729344) scale(0.1 -0.1)">
       <use xlink:href="#DejaVuSans-32"/>
       <use xlink:href="#DejaVuSans-30" x="63.623047"/>
       <use xlink:href="#DejaVuSans-30" x="127.246094"/>
      </g>
     </g>
    </g>
    <g id="ytick_3">
     <g id="line2d_13">
      <g>
       <use xlink:href="#m099bed3094" x="53.328125" y="189.430125" style="stroke: #000000; stroke-width: 0.8"/>
      </g>
     </g>
     <g id="text_14">
      <!-- 400 -->
      <g transform="translate(27.240625 193.229344) scale(0.1 -0.1)">
       <use xlink:href="#DejaVuSans-34"/>
       <use xlink:href="#DejaVuSans-30" x="63.623047"/>
       <use xlink:href="#DejaVuSans-30" x="127.246094"/>
      </g>
     </g>
    </g>
    <g id="ytick_4">
     <g id="line2d_14">
      <g>
       <use xlink:href="#m099bed3094" x="53.328125" y="139.930125" style="stroke: #000000; stroke-width: 0.8"/>
      </g>
     </g>
     <g id="text_15">
      <!-- 600 -->
      <g transform="translate(27.240625 143.729344) scale(0.1 -0.1)">
       <use xlink:href="#DejaVuSans-36"/>
       <use xlink:href="#DejaVuSans-30" x="63.623047"/>
       <use xlink:href="#DejaVuSans-30" x="127.246094"/>
      </g>
     </g>
    </g>
    <g id="ytick_5">
     <g id="line2d_15">
      <g>
       <use xlink:href="#m099bed3094" x="53.328125" y="90.430125" style="stroke: #000000; stroke-width: 0.8"/>
      </g>
     </g>
     <g id="text_16">
      <!-- 800 -->
      <g transform="translate(27.240625 94.229344) scale(0.1 -0.1)">
       <use xlink:href="#DejaVuSans-38"/>
       <use xlink:href="#DejaVuSans-30" x="63.623047"/>
       <use xlink:href="#DejaVuSans-30" x="127.246094"/>
      </g>
     </g>
    </g>
    <g id="ytick_6">
     <g id="line2d_16">
      <g>
       <use xlink:href="#m099bed3094" x="53.328125" y="40.930125" style="stroke: #000000; stroke-width: 0.8"/>
      </g>
     </g>
     <g id="text_17">
      <!-- 1000 -->
      <g transform="translate(20.878125 44.729344) scale(0.1 -0.1)">
       <use xlink:href="#DejaVuSans-31"/>
       <use xlink:href="#DejaVuSans-30" x="63.623047"/>
       <use xlink:href="#DejaVuSans-30" x="127.246094"/>
       <use xlink:href="#DejaVuSans-30" x="190.869141"/>
      </g>
     </g>
    </g>
    <g id="text_18">
     <!-- Storage reclaimed (megabytes) -->
     <g transform="translate(14.798438 234.710062) rotate(-90) scale(0.1 -0.1)">
      <defs>
       <path id="DejaVuSans-53" d="M 3425 4513 
L 3425 3897 
Q 3066 4069 2747 4153 
Q 2428 4238 2131 4238 
Q 1616 4238 1336 4038 
Q 1056 3838 1056 3469 
Q 1056 3159 1242 3001 
Q 1428 2844 1947 2747 
L 2328 2669 
Q 3034 2534 3370 2195 
Q 3706 1856 3706 1288 
Q 3706 609 3251 259 
Q 2797 -91 1919 -91 
Q 1588 -91 1214 -16 
Q 841 59 441 206 
L 441 856 
Q 825 641 1194 531 
Q 1563 422 1919 422 
Q 2459 422 2753 634 
Q 3047 847 3047 1241 
Q 3047 1584 2836 1778 
Q 2625 1972 2144 2069 
L 1759 2144 
Q 1053 2284 737 2584 
Q 422 2884 422 3419 
Q 422 4038 858 4394 
Q 1294 4750 2059 4750 
Q 2388 4750 2728 4690 
Q 3069 4631 3425 4513 
z
" transform="scale(0.015625)"/>
       <path id="DejaVuSans-6f" d="M 1959 3097 
Q 1497 3097 1228 2736 
Q 959 2375 959 1747 
Q 959 1119 1226 758 
Q 1494 397 1959 397 
Q 2419 397 2687 759 
Q 2956 1122 2956 1747 
Q 2956 2369 2687 2733 
Q 2419 3097 1959 3097 
z
M 1959 3584 
Q 2709 3584 3137 3096 
Q 3566 2609 3566 1747 
Q 3566 888 3137 398 
Q 2709 -91 1959 -91 
Q 1206 -91 779 398 
Q 353 888 353 1747 
Q 353 2609 779 3096 
Q 1206 3584 1959 3584 
z
" transform="scale(0.015625)"/>
       <path id="DejaVuSans-72" d="M 2631 2963 
Q 2534 3019 2420 3045 
Q 2306 3072 2169 3072 
Q 1681 3072 1420 2755 
Q 1159 2438 1159 1844 
L 1159 0 
L 581 0 
L 581 3500 
L 1159 3500 
L 1159 2956 
Q 1341 3275 1631 3429 
Q 1922 3584 2338 3584 
Q 2397 3584 2469 3576 
Q 2541 3569 2628 3553 
L 2631 2963 
z
" transform="scale(0.015625)"/>
       <path id="DejaVuSans-63" d="M 3122 3366 
L 3122 2828 
Q 2878 2963 2633 3030 
Q 2388 3097 2138 3097 
Q 1578 3097 1268 2742 
Q 959 2388 959 1747 
Q 959 1106 1268 751 
Q 1578 397 2138 397 
Q 2388 397 2633 464 
Q 2878 531 3122 666 
L 3122 134 
Q 2881 22 2623 -34 
Q 2366 -91 2075 -91 
Q 1284 -91 818 406 
Q 353 903 353 1747 
Q 353 2603 823 3093 
Q 1294 3584 2113 3584 
Q 2378 3584 2631 3529 
Q 2884 3475 3122 3366 
z
" transform="scale(0.015625)"/>
       <path id="DejaVuSans-64" d="M 2906 2969 
L 2906 4863 
L 3481 4863 
L 3481 0 
L 2906 0 
L 2906 525 
Q 2725 213 2448 61 
Q 2172 -91 1784 -91 
Q 1150 -91 751 415 
Q 353 922 353 1747 
Q 353 2572 751 3078 
Q 1150 3584 1784 3584 
Q 2172 3584 2448 3432 
Q 2725 3281 2906 2969 
z
M 947 1747 
Q 947 1113 1208 752 
Q 1469 391 1925 391 
Q 2381 391 2643 752 
Q 2906 1113 2906 1747 
Q 2906 2381 2643 2742 
Q 2381 3103 1925 3103 
Q 1469 3103 1208 2742 
Q 947 2381 947 1747 
z
" transform="scale(0.015625)"/>
      </defs>
      <use xlink:href="#DejaVuSans-53"/>
      <use xlink:href="#DejaVuSans-74" x="63.476562"/>
      <use xlink:href="#DejaVuSans-6f" x="102.685547"/>
      <use xlink:href="#DejaVuSans-72" x="163.867188"/>
      <use xlink:href="#DejaVuSans-61" x="204.980469"/>
      <use xlink:href="#DejaVuSans-67" x="266.259766"/>
      <use xlink:href="#DejaVuSans-65" x="329.736328"/>
      <use xlink:href="#DejaVuSans-20" x="391.259766"/>
      <use xlink:href="#DejaVuSans-72" x="423.046875"/>
      <use xlink:href="#DejaVuSans-65" x="461.910156"/>
      <use xlink:href="#DejaVuSans-63" x="523.433594"/>
      <use xlink:href="#DejaVuSans-6c" x="578.414062"/>
      <use xlink:href="#DejaVuSans-61" x="606.197266"/>
      <use xlink:href="#DejaVuSans-69" x="667.476562"/>
      <use xlink:href="#DejaVuSans-6d" x="695.259766"/>
      <use xlink:href="#DejaVuSans-65" x="792.671875"/>
      <use xlink:href="#DejaVuSans-64" x="854.195312"/>
      <use xlink:href="#DejaVuSans-20" x="917.671875"/>
      <use xlink:href="#DejaVuSans-28" x="949.458984"/>
      <use xlink:href="#DejaVuSans-6d" x="988.472656"/>
      <use xlink:href="#DejaVuSans-65" x="1085.884766"/>
      <use xlink:href="#DejaVuSans-67" x="1147.408203"/>
      <use xlink:href="#DejaVuSans-61" x="1210.884766"/>
      <use xlink:href="#DejaVuSans-62" x="1272.164062"/>
      <use xlink:href="#DejaVuSans-79" x="1335.640625"/>
      <use xlink:href="#DejaVuSans-74" x="1394.820312"/>
      <use xlink:href="#DejaVuSans-65" x="1434.029297"/>
      <use xlink:href="#DejaVuSans-73" x="1495.552734"/>
      <use xlink:href="#DejaVuSans-29" x="1547.652344"/>
     </g>
    </g>
   </g>
   <g id="patch_131">
    <path d="M 53.328125 288.430125 
L 53.328125 22.318125 
" style="fill: none; stroke: #000000; stroke-width: 0.8; stroke-linejoin: miter; stroke-linecap: square"/>
   </g>
   <g id="patch_132">
    <path d="M 410.448125 288.430125 
L 410.448125 22.318125 
" style="fill: none; stroke: #000000; stroke-width: 0.8; stroke-linejoin: miter; stroke-linecap: square"/>
   </g>
   <g id="patch_133">
    <path d="M 53.328125 288.430125 
L 410.448125 288.430125 
" style="fill: none; stroke: #000000; stroke-width: 0.8; stroke-linejoin: miter; stroke-linecap: square"/>
   </g>
   <g id="patch_134">
    <path d="M 53.328125 22.318125 
L 410.448125 22.318125 
" style="fill: none; stroke: #000000; stroke-width: 0.8; stroke-linejoin: miter; stroke-linecap: square"/>
   </g>
   <g id="text_19">
    <!-- Nilfs dedup expected storage reclaim -->
    <g transform="translate(119.516563 16.318125) scale(0.12 -0.12)">
     <defs>
      <path id="DejaVuSans-4e" d="M 628 4666 
L 1478 4666 
L 3547 763 
L 3547 4666 
L 4159 4666 
L 4159 0 
L 3309 0 
L 1241 3903 
L 1241 0 
L 628 0 
L 628 4666 
z
" transform="scale(0.015625)"/>
      <path id="DejaVuSans-66" d="M 2375 4863 
L 2375 4384 
L 1825 4384 
Q 1516 4384 1395 4259 
Q 1275 4134 1275 3809 
L 1275 3500 
L 2222 3500 
L 2222 3053 
L 1275 3053 
L 1275 0 
L 697 0 
L 697 3053 
L 147 3053 
L 147 3500 
L 697 3500 
L 697 3744 
Q 697 4328 969 4595 
Q 1241 4863 1831 4863 
L 2375 4863 
z
" transform="scale(0.015625)"/>
      <path id="DejaVuSans-75" d="M 544 1381 
L 544 3500 
L 1119 3500 
L 1119 1403 
Q 1119 906 1312 657 
Q 1506 409 1894 409 
Q 2359 409 2629 706 
Q 2900 1003 2900 1516 
L 2900 3500 
L 3475 3500 
L 3475 0 
L 2900 0 
L 2900 538 
Q 2691 219 2414 64 
Q 2138 -91 1772 -91 
Q 1169 -91 856 284 
Q 544 659 544 1381 
z
M 1991 3584 
L 1991 3584 
z
" transform="scale(0.015625)"/>
      <path id="DejaVuSans-70" d="M 1159 525 
L 1159 -1331 
L 581 -1331 
L 581 3500 
L 1159 3500 
L 1159 2969 
Q 1341 3281 1617 3432 
Q 1894 3584 2278 3584 
Q 2916 3584 3314 3078 
Q 3713 2572 3713 1747 
Q 3713 922 3314 415 
Q 2916 -91 2278 -91 
Q 1894 -91 1617 61 
Q 1341 213 1159 525 
z
M 3116 1747 
Q 3116 2381 2855 2742 
Q 2594 3103 2138 3103 
Q 1681 3103 1420 2742 
Q 1159 2381 1159 1747 
Q 1159 1113 1420 752 
Q 1681 391 2138 391 
Q 2594 391 2855 752 
Q 3116 1113 3116 1747 
z
" transform="scale(0.015625)"/>
      <path id="DejaVuSans-78" d="M 3513 3500 
L 2247 1797 
L 3578 0 
L 2900 0 
L 1881 1375 
L 863 0 
L 184 0 
L 1544 1831 
L 300 3500 
L 978 3500 
L 1906 2253 
L 2834 3500 
L 3513 3500 
z
" transform="scale(0.015625)"/>
     </defs>
     <use xlink:href="#DejaVuSans-4e"/>
     <use xlink:href="#DejaVuSans-69" x="74.804688"/>
     <use xlink:href="#DejaVuSans-6c" x="102.587891"/>
     <use xlink:href="#DejaVuSans-66" x="130.371094"/>
     <use xlink:href="#DejaVuSans-73" x="165.576172"/>
     <use xlink:href="#DejaVuSans-20" x="217.675781"/>
     <use xlink:href="#DejaVuSans-64" x="249.462891"/>
     <use xlink:href="#DejaVuSans-65" x="312.939453"/>
     <use xlink:href="#DejaVuSans-64" x="374.462891"/>
     <use xlink:href="#DejaVuSans-75" x="437.939453"/>
     <use xlink:href="#DejaVuSans-70" x="501.318359"/>
     <use xlink:href="#DejaVuSans-20" x="564.794922"/>
     <use xlink:href="#DejaVuSans-65" x="596.582031"/>
     <use xlink:href="#DejaVuSans-78" x="656.355469"/>
     <use xlink:href="#DejaVuSans-70" x="715.535156"/>
     <use xlink:href="#DejaVuSans-65" x="779.011719"/>
     <use xlink:href="#DejaVuSans-63" x="840.535156"/>
     <use xlink:href="#DejaVuSans-74" x="895.515625"/>
     <use xlink:href="#DejaVuSans-65" x="934.724609"/>
     <use xlink:href="#DejaVuSans-64" x="996.248047"/>
     <use xlink:href="#DejaVuSans-20" x="1059.724609"/>
     <use xlink:href="#DejaVuSans-73" x="1091.511719"/>
     <use xlink:href="#DejaVuSans-74" x="1143.611328"/>
     <use xlink:href="#DejaVuSans-6f" x="1182.820312"/>
     <use xlink:href="#DejaVuSans-72" x="1244.001953"/>
     <use xlink:href="#DejaVuSans-61" x="1285.115234"/>
     <use xlink:href="#DejaVuSans-67" x="1346.394531"/>
     <use xlink:href="#DejaVuSans-65" x="1409.871094"/>
     <use xlink:href="#DejaVuSans-20" x="1471.394531"/>
     <use xlink:href="#DejaVuSans-72" x="1503.181641"/>
     <use xlink:href="#DejaVuSans-65" x="1542.044922"/>
     <use xlink:href="#DejaVuSans-63" x="1603.568359"/>
     <use xlink:href="#DejaVuSans-6c" x="1658.548828"/>
     <use xlink:href="#DejaVuSans-61" x="1686.332031"/>
     <use xlink:href="#DejaVuSans-69" x="1747.611328"/>
     <use xlink:href="#DejaVuSans-6d" x="1775.394531"/>
    </g>
   </g>
   <g id="legend_1">
    <g id="patch_135">
     <path d="M 60.328125 59.674375 
L 138.646875 59.674375 
Q 140.646875 59.674375 140.646875 57.674375 
L 140.646875 29.318125 
Q 140.646875 27.318125 138.646875 27.318125 
L 60.328125 27.318125 
Q 58.328125 27.318125 58.328125 29.318125 
L 58.328125 57.674375 
Q 58.328125 59.674375 60.328125 59.674375 
z
" style="fill: #ffffff; opacity: 0.8; stroke: #cccccc; stroke-linejoin: miter"/>
    </g>
    <g id="patch_136">
     <path d="M 62.328125 38.916562 
L 82.328125 38.916562 
L 82.328125 31.916562 
L 62.328125 31.916562 
z
" style="fill: #1f77b4"/>
    </g>
    <g id="text_20">
     <!-- actual -->
     <g transform="translate(90.328125 38.916562) scale(0.1 -0.1)">
      <use xlink:href="#DejaVuSans-61"/>
      <use xlink:href="#DejaVuSans-63" x="61.279297"/>
      <use xlink:href="#DejaVuSans-74" x="116.259766"/>
      <use xlink:href="#DejaVuSans-75" x="155.46875"/>
      <use xlink:href="#DejaVuSans-61" x="218.847656"/>
      <use xlink:href="#DejaVuSans-6c" x="280.126953"/>
     </g>
    </g>
    <g id="patch_137">
     <path d="M 62.328125 53.594687 
L 82.328125 53.594687 
L 82.328125 46.594687 
L 62.328125 46.594687 
z
" style="fill: #ff7f0e"/>
    </g>
    <g id="text_21">
     <!-- expected -->
     <g transform="translate(90.328125 53.594687) scale(0.1 -0.1)">
      <use xlink:href="#DejaVuSans-65"/>
      <use xlink:href="#DejaVuSans-78" x="59.773438"/>
      <use xlink:href="#DejaVuSans-70" x="118.953125"/>
      <use xlink:href="#DejaVuSans-65" x="182.429688"/>
      <use xlink:href="#DejaVuSans-63" x="243.953125"/>
      <use xlink:href="#DejaVuSans-74" x="298.933594"/>
      <use xlink:href="#DejaVuSans-65" x="338.142578"/>
      <use xlink:href="#DejaVuSans-64" x="399.666016"/>
     </g>
    </g>
   </g>
  </g>
 </g>
 <defs>
  <clipPath id="p78dec96e8c">
   <rect x="53.328125" y="22.318125" width="357.12" height="266.112"/>
  </clipPath>
 </defs>
</svg>
