<?xml version="1.0" encoding="utf-8" standalone="no"?>
<!DOCTYPE svg PUBLIC "-//W3C//DTD SVG 1.1//EN"
  "http://www.w3.org/Graphics/SVG/1.1/DTD/svg11.dtd">
<svg xmlns:xlink="http://www.w3.org/1999/xlink" width="414.858125pt" height="325.986375pt" viewBox="0 0 414.858125 325.986375" xmlns="http://www.w3.org/2000/svg" version="1.1">
 <metadata>
  <rdf:RDF xmlns:dc="http://purl.org/dc/elements/1.1/" xmlns:cc="http://creativecommons.org/ns#" xmlns:rdf="http://www.w3.org/1999/02/22-rdf-syntax-ns#">
   <cc:Work>
    <dc:type rdf:resource="http://purl.org/dc/dcmitype/StillImage"/>
    <dc:date>2023-06-19T07:29:27.635055</dc:date>
    <dc:format>image/svg+xml</dc:format>
    <dc:creator>
     <cc:Agent>
      <dc:title>Matplotlib v3.6.2, https://matplotlib.org/</dc:title>
     </cc:Agent>
    </dc:creator>
   </cc:Work>
  </rdf:RDF>
 </metadata>
 <defs>
  <style type="text/css">*{stroke-linejoin: round; stroke-linecap: butt}</style>
 </defs>
 <g id="figure_1">
  <g id="patch_1">
   <path d="M 0 325.986375 
L 414.858125 325.986375 
L 414.858125 0 
L 0 0 
z
" style="fill: #ffffff"/>
  </g>
  <g id="axes_1">
   <g id="patch_2">
    <path d="M 40.603125 288.430125 
L 397.723125 288.430125 
L 397.723125 22.318125 
L 40.603125 22.318125 
z
" style="fill: #ffffff"/>
   </g>
   <g id="patch_3">
    <path d="M 41.998125 288.430125 
L 44.788125 288.430125 
L 44.788125 282.230873 
L 41.998125 282.230873 
z
" clip-path="url(#p722b8d65cf)" style="fill: #1f77b4"/>
   </g>
   <g id="patch_4">
    <path d="M 47.578125 288.430125 
L 50.368125 288.430125 
L 50.368125 281.68388 
L 47.578125 281.68388 
z
" clip-path="url(#p722b8d65cf)" style="fill: #1f77b4"/>
   </g>
   <g id="patch_5">
    <path d="M 53.158125 288.430125 
L 55.948125 288.430125 
L 55.948125 280.954557 
L 53.158125 280.954557 
z
" clip-path="url(#p722b8d65cf)" style="fill: #1f77b4"/>
   </g>
   <g id="patch_6">
    <path d="M 58.738125 288.430125 
L 61.528125 288.430125 
L 61.528125 279.67824 
L 58.738125 279.67824 
z
" clip-path="url(#p722b8d65cf)" style="fill: #1f77b4"/>
   </g>
   <g id="patch_7">
    <path d="M 64.318125 288.430125 
L 67.108125 288.430125 
L 67.108125 276.578614 
L 64.318125 276.578614 
z
" clip-path="url(#p722b8d65cf)" style="fill: #1f77b4"/>
   </g>
   <g id="patch_8">
    <path d="M 69.898125 288.430125 
L 72.688125 288.430125 
L 72.688125 274.390643 
L 69.898125 274.390643 
z
" clip-path="url(#p722b8d65cf)" style="fill: #1f77b4"/>
   </g>
   <g id="patch_9">
    <path d="M 75.478125 288.430125 
L 78.268125 288.430125 
L 78.268125 273.478988 
L 75.478125 273.478988 
z
" clip-path="url(#p722b8d65cf)" style="fill: #1f77b4"/>
   </g>
   <g id="patch_10">
    <path d="M 81.058125 288.430125 
L 83.848125 288.430125 
L 83.848125 274.390643 
L 81.058125 274.390643 
z
" clip-path="url(#p722b8d65cf)" style="fill: #1f77b4"/>
   </g>
   <g id="patch_11">
    <path d="M 86.638125 288.430125 
L 89.428125 288.430125 
L 89.428125 269.103046 
L 86.638125 269.103046 
z
" clip-path="url(#p722b8d65cf)" style="fill: #1f77b4"/>
   </g>
   <g id="patch_12">
    <path d="M 92.218125 288.430125 
L 95.008125 288.430125 
L 95.008125 266.550413 
L 92.218125 266.550413 
z
" clip-path="url(#p722b8d65cf)" style="fill: #1f77b4"/>
   </g>
   <g id="patch_13">
    <path d="M 97.798125 288.430125 
L 100.588125 288.430125 
L 100.588125 270.744024 
L 97.798125 270.744024 
z
" clip-path="url(#p722b8d65cf)" style="fill: #1f77b4"/>
   </g>
   <g id="patch_14">
    <path d="M 103.378125 288.430125 
L 106.168125 288.430125 
L 106.168125 267.462067 
L 103.378125 267.462067 
z
" clip-path="url(#p722b8d65cf)" style="fill: #1f77b4"/>
   </g>
   <g id="patch_15">
    <path d="M 108.958125 288.430125 
L 111.748125 288.430125 
L 111.748125 263.268456 
L 108.958125 263.268456 
z
" clip-path="url(#p722b8d65cf)" style="fill: #1f77b4"/>
   </g>
   <g id="patch_16">
    <path d="M 114.538125 288.430125 
L 117.328125 288.430125 
L 117.328125 260.715823 
L 114.538125 260.715823 
z
" clip-path="url(#p722b8d65cf)" style="fill: #1f77b4"/>
   </g>
   <g id="patch_17">
    <path d="M 120.118125 288.430125 
L 122.908125 288.430125 
L 122.908125 256.522211 
L 120.118125 256.522211 
z
" clip-path="url(#p722b8d65cf)" style="fill: #1f77b4"/>
   </g>
   <g id="patch_18">
    <path d="M 125.698125 288.430125 
L 128.488125 288.430125 
L 128.488125 258.892513 
L 125.698125 258.892513 
z
" clip-path="url(#p722b8d65cf)" style="fill: #1f77b4"/>
   </g>
   <g id="patch_19">
    <path d="M 131.278125 288.430125 
L 134.068125 288.430125 
L 134.068125 253.787247 
L 131.278125 253.787247 
z
" clip-path="url(#p722b8d65cf)" style="fill: #1f77b4"/>
   </g>
   <g id="patch_20">
    <path d="M 136.858125 288.430125 
L 139.648125 288.430125 
L 139.648125 253.787247 
L 136.858125 253.787247 
z
" clip-path="url(#p722b8d65cf)" style="fill: #1f77b4"/>
   </g>
   <g id="patch_21">
    <path d="M 142.438125 288.430125 
L 145.228125 288.430125 
L 145.228125 249.775967 
L 142.438125 249.775967 
z
" clip-path="url(#p722b8d65cf)" style="fill: #1f77b4"/>
   </g>
   <g id="patch_22">
    <path d="M 148.018125 288.430125 
L 150.808125 288.430125 
L 150.808125 252.510931 
L 148.018125 252.510931 
z
" clip-path="url(#p722b8d65cf)" style="fill: #1f77b4"/>
   </g>
   <g id="patch_23">
    <path d="M 153.598125 288.430125 
L 156.388125 288.430125 
L 156.388125 251.963938 
L 153.598125 251.963938 
z
" clip-path="url(#p722b8d65cf)" style="fill: #1f77b4"/>
   </g>
   <g id="patch_24">
    <path d="M 159.178125 288.430125 
L 161.968125 288.430125 
L 161.968125 246.49401 
L 159.178125 246.49401 
z
" clip-path="url(#p722b8d65cf)" style="fill: #1f77b4"/>
   </g>
   <g id="patch_25">
    <path d="M 164.758125 288.430125 
L 167.548125 288.430125 
L 167.548125 243.759046 
L 164.758125 243.759046 
z
" clip-path="url(#p722b8d65cf)" style="fill: #1f77b4"/>
   </g>
   <g id="patch_26">
    <path d="M 170.338125 288.430125 
L 173.128125 288.430125 
L 173.128125 249.046643 
L 170.338125 249.046643 
z
" clip-path="url(#p722b8d65cf)" style="fill: #1f77b4"/>
   </g>
   <g id="patch_27">
    <path d="M 175.918125 288.430125 
L 178.708125 288.430125 
L 178.708125 240.112427 
L 175.918125 240.112427 
z
" clip-path="url(#p722b8d65cf)" style="fill: #1f77b4"/>
   </g>
   <g id="patch_28">
    <path d="M 181.498125 288.430125 
L 184.288125 288.430125 
L 184.288125 248.317319 
L 181.498125 248.317319 
z
" clip-path="url(#p722b8d65cf)" style="fill: #1f77b4"/>
   </g>
   <g id="patch_29">
    <path d="M 187.078125 288.430125 
L 189.868125 288.430125 
L 189.868125 246.311679 
L 187.078125 246.311679 
z
" clip-path="url(#p722b8d65cf)" style="fill: #1f77b4"/>
   </g>
   <g id="patch_30">
    <path d="M 192.658125 288.430125 
L 195.448125 288.430125 
L 195.448125 245.217693 
L 192.658125 245.217693 
z
" clip-path="url(#p722b8d65cf)" style="fill: #1f77b4"/>
   </g>
   <g id="patch_31">
    <path d="M 198.238125 288.430125 
L 201.028125 288.430125 
L 201.028125 241.206413 
L 198.238125 241.206413 
z
" clip-path="url(#p722b8d65cf)" style="fill: #1f77b4"/>
   </g>
   <g id="patch_32">
    <path d="M 203.818125 288.430125 
L 206.608125 288.430125 
L 206.608125 239.200772 
L 203.818125 239.200772 
z
" clip-path="url(#p722b8d65cf)" style="fill: #1f77b4"/>
   </g>
   <g id="patch_33">
    <path d="M 209.398125 288.430125 
L 212.188125 288.430125 
L 212.188125 232.636859 
L 209.398125 232.636859 
z
" clip-path="url(#p722b8d65cf)" style="fill: #1f77b4"/>
   </g>
   <g id="patch_34">
    <path d="M 214.978125 288.430125 
L 217.768125 288.430125 
L 217.768125 237.924456 
L 214.978125 237.924456 
z
" clip-path="url(#p722b8d65cf)" style="fill: #1f77b4"/>
   </g>
   <g id="patch_35">
    <path d="M 220.558125 288.430125 
L 223.348125 288.430125 
L 223.348125 231.178211 
L 220.558125 231.178211 
z
" clip-path="url(#p722b8d65cf)" style="fill: #1f77b4"/>
   </g>
   <g id="patch_36">
    <path d="M 226.138125 288.430125 
L 228.928125 288.430125 
L 228.928125 231.542873 
L 226.138125 231.542873 
z
" clip-path="url(#p722b8d65cf)" style="fill: #1f77b4"/>
   </g>
   <g id="patch_37">
    <path d="M 231.718125 288.430125 
L 234.508125 288.430125 
L 234.508125 231.725204 
L 231.718125 231.725204 
z
" clip-path="url(#p722b8d65cf)" style="fill: #1f77b4"/>
   </g>
   <g id="patch_38">
    <path d="M 237.298125 288.430125 
L 240.088125 288.430125 
L 240.088125 232.454528 
L 237.298125 232.454528 
z
" clip-path="url(#p722b8d65cf)" style="fill: #1f77b4"/>
   </g>
   <g id="patch_39">
    <path d="M 242.878125 288.430125 
L 245.668125 288.430125 
L 245.668125 225.708283 
L 242.878125 225.708283 
z
" clip-path="url(#p722b8d65cf)" style="fill: #1f77b4"/>
   </g>
   <g id="patch_40">
    <path d="M 248.458125 288.430125 
L 251.248125 288.430125 
L 251.248125 224.431967 
L 248.458125 224.431967 
z
" clip-path="url(#p722b8d65cf)" style="fill: #1f77b4"/>
   </g>
   <g id="patch_41">
    <path d="M 254.038125 288.430125 
L 256.828125 288.430125 
L 256.828125 222.608657 
L 254.038125 222.608657 
z
" clip-path="url(#p722b8d65cf)" style="fill: #1f77b4"/>
   </g>
   <g id="patch_42">
    <path d="M 259.618125 288.430125 
L 262.408125 288.430125 
L 262.408125 218.962039 
L 259.618125 218.962039 
z
" clip-path="url(#p722b8d65cf)" style="fill: #1f77b4"/>
   </g>
   <g id="patch_43">
    <path d="M 265.198125 288.430125 
L 267.988125 288.430125 
L 267.988125 218.232715 
L 265.198125 218.232715 
z
" clip-path="url(#p722b8d65cf)" style="fill: #1f77b4"/>
   </g>
   <g id="patch_44">
    <path d="M 270.778125 288.430125 
L 273.568125 288.430125 
L 273.568125 224.97896 
L 270.778125 224.97896 
z
" clip-path="url(#p722b8d65cf)" style="fill: #1f77b4"/>
   </g>
   <g id="patch_45">
    <path d="M 276.358125 288.430125 
L 279.148125 288.430125 
L 279.148125 218.597377 
L 276.358125 218.597377 
z
" clip-path="url(#p722b8d65cf)" style="fill: #1f77b4"/>
   </g>
   <g id="patch_46">
    <path d="M 281.938125 288.430125 
L 284.728125 288.430125 
L 284.728125 229.537233 
L 281.938125 229.537233 
z
" clip-path="url(#p722b8d65cf)" style="fill: #1f77b4"/>
   </g>
   <g id="patch_47">
    <path d="M 287.518125 288.430125 
L 290.308125 288.430125 
L 290.308125 213.674442 
L 287.518125 213.674442 
z
" clip-path="url(#p722b8d65cf)" style="fill: #1f77b4"/>
   </g>
   <g id="patch_48">
    <path d="M 293.098125 288.430125 
L 295.888125 288.430125 
L 295.888125 215.31542 
L 293.098125 215.31542 
z
" clip-path="url(#p722b8d65cf)" style="fill: #1f77b4"/>
   </g>
   <g id="patch_49">
    <path d="M 298.678125 288.430125 
L 301.468125 288.430125 
L 301.468125 208.751506 
L 298.678125 208.751506 
z
" clip-path="url(#p722b8d65cf)" style="fill: #1f77b4"/>
   </g>
   <g id="patch_50">
    <path d="M 304.258125 288.430125 
L 307.048125 288.430125 
L 307.048125 212.762787 
L 304.258125 212.762787 
z
" clip-path="url(#p722b8d65cf)" style="fill: #1f77b4"/>
   </g>
   <g id="patch_51">
    <path d="M 309.838125 288.430125 
L 312.628125 288.430125 
L 312.628125 211.668801 
L 309.838125 211.668801 
z
" clip-path="url(#p722b8d65cf)" style="fill: #1f77b4"/>
   </g>
   <g id="patch_52">
    <path d="M 315.418125 288.430125 
L 318.208125 288.430125 
L 318.208125 207.292859 
L 315.418125 207.292859 
z
" clip-path="url(#p722b8d65cf)" style="fill: #1f77b4"/>
   </g>
   <g id="patch_53">
    <path d="M 320.998125 288.430125 
L 323.788125 288.430125 
L 323.788125 194.529693 
L 320.998125 194.529693 
z
" clip-path="url(#p722b8d65cf)" style="fill: #1f77b4"/>
   </g>
   <g id="patch_54">
    <path d="M 326.578125 288.430125 
L 329.368125 288.430125 
L 329.368125 198.358643 
L 326.578125 198.358643 
z
" clip-path="url(#p722b8d65cf)" style="fill: #1f77b4"/>
   </g>
   <g id="patch_55">
    <path d="M 332.158125 288.430125 
L 334.948125 288.430125 
L 334.948125 197.446988 
L 332.158125 197.446988 
z
" clip-path="url(#p722b8d65cf)" style="fill: #1f77b4"/>
   </g>
   <g id="patch_56">
    <path d="M 337.738125 288.430125 
L 340.528125 288.430125 
L 340.528125 197.446988 
L 337.738125 197.446988 
z
" clip-path="url(#p722b8d65cf)" style="fill: #1f77b4"/>
   </g>
   <g id="patch_57">
    <path d="M 343.318125 288.430125 
L 346.108125 288.430125 
L 346.108125 189.97142 
L 343.318125 189.97142 
z
" clip-path="url(#p722b8d65cf)" style="fill: #1f77b4"/>
   </g>
   <g id="patch_58">
    <path d="M 348.898125 288.430125 
L 351.688125 288.430125 
L 351.688125 191.247737 
L 348.898125 191.247737 
z
" clip-path="url(#p722b8d65cf)" style="fill: #1f77b4"/>
   </g>
   <g id="patch_59">
    <path d="M 354.478125 288.430125 
L 357.268125 288.430125 
L 357.268125 188.512772 
L 354.478125 188.512772 
z
" clip-path="url(#p722b8d65cf)" style="fill: #1f77b4"/>
   </g>
   <g id="patch_60">
    <path d="M 360.058125 288.430125 
L 362.848125 288.430125 
L 362.848125 191.97706 
L 360.058125 191.97706 
z
" clip-path="url(#p722b8d65cf)" style="fill: #1f77b4"/>
   </g>
   <g id="patch_61">
    <path d="M 365.638125 288.430125 
L 368.428125 288.430125 
L 368.428125 192.706384 
L 365.638125 192.706384 
z
" clip-path="url(#p722b8d65cf)" style="fill: #1f77b4"/>
   </g>
   <g id="patch_62">
    <path d="M 371.218125 288.430125 
L 374.008125 288.430125 
L 374.008125 190.336082 
L 371.218125 190.336082 
z
" clip-path="url(#p722b8d65cf)" style="fill: #1f77b4"/>
   </g>
   <g id="patch_63">
    <path d="M 376.798125 288.430125 
L 379.588125 288.430125 
L 379.588125 172.285319 
L 376.798125 172.285319 
z
" clip-path="url(#p722b8d65cf)" style="fill: #1f77b4"/>
   </g>
   <g id="patch_64">
    <path d="M 382.378125 288.430125 
L 385.168125 288.430125 
L 385.168125 187.96578 
L 382.378125 187.96578 
z
" clip-path="url(#p722b8d65cf)" style="fill: #1f77b4"/>
   </g>
   <g id="patch_65">
    <path d="M 387.958125 288.430125 
L 390.748125 288.430125 
L 390.748125 177.208254 
L 387.958125 177.208254 
z
" clip-path="url(#p722b8d65cf)" style="fill: #1f77b4"/>
   </g>
   <g id="patch_66">
    <path d="M 393.538125 288.430125 
L 396.328125 288.430125 
L 396.328125 173.379305 
L 393.538125 173.379305 
z
" clip-path="url(#p722b8d65cf)" style="fill: #1f77b4"/>
   </g>
   <g id="patch_67">
    <path d="M 41.998125 282.230873 
L 44.788125 282.230873 
L 44.788125 280.042902 
L 41.998125 280.042902 
z
" clip-path="url(#p722b8d65cf)" style="fill: #ff7f0e"/>
   </g>
   <g id="patch_68">
    <path d="M 47.578125 281.68388 
L 50.368125 281.68388 
L 50.368125 277.307938 
L 47.578125 277.307938 
z
" clip-path="url(#p722b8d65cf)" style="fill: #ff7f0e"/>
   </g>
   <g id="patch_69">
    <path d="M 53.158125 280.954557 
L 55.948125 280.954557 
L 55.948125 273.114326 
L 53.158125 273.114326 
z
" clip-path="url(#p722b8d65cf)" style="fill: #ff7f0e"/>
   </g>
   <g id="patch_70">
    <path d="M 58.738125 279.67824 
L 61.528125 279.67824 
L 61.528125 270.561693 
L 58.738125 270.561693 
z
" clip-path="url(#p722b8d65cf)" style="fill: #ff7f0e"/>
   </g>
   <g id="patch_71">
    <path d="M 64.318125 276.578614 
L 67.108125 276.578614 
L 67.108125 266.368082 
L 64.318125 266.368082 
z
" clip-path="url(#p722b8d65cf)" style="fill: #ff7f0e"/>
   </g>
   <g id="patch_72">
    <path d="M 69.898125 274.390643 
L 72.688125 274.390643 
L 72.688125 262.539132 
L 69.898125 262.539132 
z
" clip-path="url(#p722b8d65cf)" style="fill: #ff7f0e"/>
   </g>
   <g id="patch_73">
    <path d="M 75.478125 273.478988 
L 78.268125 273.478988 
L 78.268125 258.892513 
L 75.478125 258.892513 
z
" clip-path="url(#p722b8d65cf)" style="fill: #ff7f0e"/>
   </g>
   <g id="patch_74">
    <path d="M 81.058125 274.390643 
L 83.848125 274.390643 
L 83.848125 255.245895 
L 81.058125 255.245895 
z
" clip-path="url(#p722b8d65cf)" style="fill: #ff7f0e"/>
   </g>
   <g id="patch_75">
    <path d="M 86.638125 269.103046 
L 89.428125 269.103046 
L 89.428125 250.869952 
L 86.638125 250.869952 
z
" clip-path="url(#p722b8d65cf)" style="fill: #ff7f0e"/>
   </g>
   <g id="patch_76">
    <path d="M 92.218125 266.550413 
L 95.008125 266.550413 
L 95.008125 248.49965 
L 92.218125 248.49965 
z
" clip-path="url(#p722b8d65cf)" style="fill: #ff7f0e"/>
   </g>
   <g id="patch_77">
    <path d="M 97.798125 270.744024 
L 100.588125 270.744024 
L 100.588125 243.576715 
L 97.798125 243.576715 
z
" clip-path="url(#p722b8d65cf)" style="fill: #ff7f0e"/>
   </g>
   <g id="patch_78">
    <path d="M 103.378125 267.462067 
L 106.168125 267.462067 
L 106.168125 241.206413 
L 103.378125 241.206413 
z
" clip-path="url(#p722b8d65cf)" style="fill: #ff7f0e"/>
   </g>
   <g id="patch_79">
    <path d="M 108.958125 263.268456 
L 111.748125 263.268456 
L 111.748125 238.106787 
L 108.958125 238.106787 
z
" clip-path="url(#p722b8d65cf)" style="fill: #ff7f0e"/>
   </g>
   <g id="patch_80">
    <path d="M 114.538125 260.715823 
L 117.328125 260.715823 
L 117.328125 234.095506 
L 114.538125 234.095506 
z
" clip-path="url(#p722b8d65cf)" style="fill: #ff7f0e"/>
   </g>
   <g id="patch_81">
    <path d="M 120.118125 256.522211 
L 122.908125 256.522211 
L 122.908125 221.15001 
L 120.118125 221.15001 
z
" clip-path="url(#p722b8d65cf)" style="fill: #ff7f0e"/>
   </g>
   <g id="patch_82">
    <path d="M 125.698125 258.892513 
L 128.488125 258.892513 
L 128.488125 227.349262 
L 125.698125 227.349262 
z
" clip-path="url(#p722b8d65cf)" style="fill: #ff7f0e"/>
   </g>
   <g id="patch_83">
    <path d="M 131.278125 253.787247 
L 134.068125 253.787247 
L 134.068125 216.409406 
L 131.278125 216.409406 
z
" clip-path="url(#p722b8d65cf)" style="fill: #ff7f0e"/>
   </g>
   <g id="patch_84">
    <path d="M 136.858125 253.787247 
L 139.648125 253.787247 
L 139.648125 219.509031 
L 136.858125 219.509031 
z
" clip-path="url(#p722b8d65cf)" style="fill: #ff7f0e"/>
   </g>
   <g id="patch_85">
    <path d="M 142.438125 249.775967 
L 145.228125 249.775967 
L 145.228125 210.027823 
L 142.438125 210.027823 
z
" clip-path="url(#p722b8d65cf)" style="fill: #ff7f0e"/>
   </g>
   <g id="patch_86">
    <path d="M 148.018125 252.510931 
L 150.808125 252.510931 
L 150.808125 212.762787 
L 148.018125 212.762787 
z
" clip-path="url(#p722b8d65cf)" style="fill: #ff7f0e"/>
   </g>
   <g id="patch_87">
    <path d="M 153.598125 251.963938 
L 156.388125 251.963938 
L 156.388125 201.275938 
L 153.598125 201.275938 
z
" clip-path="url(#p722b8d65cf)" style="fill: #ff7f0e"/>
   </g>
   <g id="patch_88">
    <path d="M 159.178125 246.49401 
L 161.968125 246.49401 
L 161.968125 193.80037 
L 159.178125 193.80037 
z
" clip-path="url(#p722b8d65cf)" style="fill: #ff7f0e"/>
   </g>
   <g id="patch_89">
    <path d="M 164.758125 243.759046 
L 167.548125 243.759046 
L 167.548125 191.430067 
L 164.758125 191.430067 
z
" clip-path="url(#p722b8d65cf)" style="fill: #ff7f0e"/>
   </g>
   <g id="patch_90">
    <path d="M 170.338125 249.046643 
L 173.128125 249.046643 
L 173.128125 199.81729 
L 170.338125 199.81729 
z
" clip-path="url(#p722b8d65cf)" style="fill: #ff7f0e"/>
   </g>
   <g id="patch_91">
    <path d="M 175.918125 240.112427 
L 178.708125 240.112427 
L 178.708125 192.524053 
L 175.918125 192.524053 
z
" clip-path="url(#p722b8d65cf)" style="fill: #ff7f0e"/>
   </g>
   <g id="patch_92">
    <path d="M 181.498125 248.317319 
L 184.288125 248.317319 
L 184.288125 191.430067 
L 181.498125 191.430067 
z
" clip-path="url(#p722b8d65cf)" style="fill: #ff7f0e"/>
   </g>
   <g id="patch_93">
    <path d="M 187.078125 246.311679 
L 189.868125 246.311679 
L 189.868125 188.148111 
L 187.078125 188.148111 
z
" clip-path="url(#p722b8d65cf)" style="fill: #ff7f0e"/>
   </g>
   <g id="patch_94">
    <path d="M 192.658125 245.217693 
L 195.448125 245.217693 
L 195.448125 185.413147 
L 192.658125 185.413147 
z
" clip-path="url(#p722b8d65cf)" style="fill: #ff7f0e"/>
   </g>
   <g id="patch_95">
    <path d="M 198.238125 241.206413 
L 201.028125 241.206413 
L 201.028125 182.313521 
L 198.238125 182.313521 
z
" clip-path="url(#p722b8d65cf)" style="fill: #ff7f0e"/>
   </g>
   <g id="patch_96">
    <path d="M 203.818125 239.200772 
L 206.608125 239.200772 
L 206.608125 177.755247 
L 203.818125 177.755247 
z
" clip-path="url(#p722b8d65cf)" style="fill: #ff7f0e"/>
   </g>
   <g id="patch_97">
    <path d="M 209.398125 232.636859 
L 212.188125 232.636859 
L 212.188125 174.29096 
L 209.398125 174.29096 
z
" clip-path="url(#p722b8d65cf)" style="fill: #ff7f0e"/>
   </g>
   <g id="patch_98">
    <path d="M 214.978125 237.924456 
L 217.768125 237.924456 
L 217.768125 170.644341 
L 214.978125 170.644341 
z
" clip-path="url(#p722b8d65cf)" style="fill: #ff7f0e"/>
   </g>
   <g id="patch_99">
    <path d="M 220.558125 231.178211 
L 223.348125 231.178211 
L 223.348125 166.450729 
L 220.558125 166.450729 
z
" clip-path="url(#p722b8d65cf)" style="fill: #ff7f0e"/>
   </g>
   <g id="patch_100">
    <path d="M 226.138125 231.542873 
L 228.928125 231.542873 
L 228.928125 164.080427 
L 226.138125 164.080427 
z
" clip-path="url(#p722b8d65cf)" style="fill: #ff7f0e"/>
   </g>
   <g id="patch_101">
    <path d="M 231.718125 231.725204 
L 234.508125 231.725204 
L 234.508125 161.345463 
L 231.718125 161.345463 
z
" clip-path="url(#p722b8d65cf)" style="fill: #ff7f0e"/>
   </g>
   <g id="patch_102">
    <path d="M 237.298125 232.454528 
L 240.088125 232.454528 
L 240.088125 155.875535 
L 237.298125 155.875535 
z
" clip-path="url(#p722b8d65cf)" style="fill: #ff7f0e"/>
   </g>
   <g id="patch_103">
    <path d="M 242.878125 225.708283 
L 245.668125 225.708283 
L 245.668125 153.505233 
L 242.878125 153.505233 
z
" clip-path="url(#p722b8d65cf)" style="fill: #ff7f0e"/>
   </g>
   <g id="patch_104">
    <path d="M 248.458125 224.431967 
L 251.248125 224.431967 
L 251.248125 150.223276 
L 248.458125 150.223276 
z
" clip-path="url(#p722b8d65cf)" style="fill: #ff7f0e"/>
   </g>
   <g id="patch_105">
    <path d="M 254.038125 222.608657 
L 256.828125 222.608657 
L 256.828125 147.670643 
L 254.038125 147.670643 
z
" clip-path="url(#p722b8d65cf)" style="fill: #ff7f0e"/>
   </g>
   <g id="patch_106">
    <path d="M 259.618125 218.962039 
L 262.408125 218.962039 
L 262.408125 141.653722 
L 259.618125 141.653722 
z
" clip-path="url(#p722b8d65cf)" style="fill: #ff7f0e"/>
   </g>
   <g id="patch_107">
    <path d="M 265.198125 218.232715 
L 267.988125 218.232715 
L 267.988125 138.736427 
L 265.198125 138.736427 
z
" clip-path="url(#p722b8d65cf)" style="fill: #ff7f0e"/>
   </g>
   <g id="patch_108">
    <path d="M 270.778125 224.97896 
L 273.568125 224.97896 
L 273.568125 136.548456 
L 270.778125 136.548456 
z
" clip-path="url(#p722b8d65cf)" style="fill: #ff7f0e"/>
   </g>
   <g id="patch_109">
    <path d="M 276.358125 218.597377 
L 279.148125 218.597377 
L 279.148125 132.354844 
L 276.358125 132.354844 
z
" clip-path="url(#p722b8d65cf)" style="fill: #ff7f0e"/>
   </g>
   <g id="patch_110">
    <path d="M 281.938125 229.537233 
L 284.728125 229.537233 
L 284.728125 128.343564 
L 281.938125 128.343564 
z
" clip-path="url(#p722b8d65cf)" style="fill: #ff7f0e"/>
   </g>
   <g id="patch_111">
    <path d="M 287.518125 213.674442 
L 290.308125 213.674442 
L 290.308125 122.691305 
L 287.518125 122.691305 
z
" clip-path="url(#p722b8d65cf)" style="fill: #ff7f0e"/>
   </g>
   <g id="patch_112">
    <path d="M 293.098125 215.31542 
L 295.888125 215.31542 
L 295.888125 119.77401 
L 293.098125 119.77401 
z
" clip-path="url(#p722b8d65cf)" style="fill: #ff7f0e"/>
   </g>
   <g id="patch_113">
    <path d="M 298.678125 208.751506 
L 301.468125 208.751506 
L 301.468125 116.492053 
L 298.678125 116.492053 
z
" clip-path="url(#p722b8d65cf)" style="fill: #ff7f0e"/>
   </g>
   <g id="patch_114">
    <path d="M 304.258125 212.762787 
L 307.048125 212.762787 
L 307.048125 113.574758 
L 304.258125 113.574758 
z
" clip-path="url(#p722b8d65cf)" style="fill: #ff7f0e"/>
   </g>
   <g id="patch_115">
    <path d="M 309.838125 211.668801 
L 312.628125 211.668801 
L 312.628125 107.193175 
L 309.838125 107.193175 
z
" clip-path="url(#p722b8d65cf)" style="fill: #ff7f0e"/>
   </g>
   <g id="patch_116">
    <path d="M 315.418125 207.292859 
L 318.208125 207.292859 
L 318.208125 103.364226 
L 315.418125 103.364226 
z
" clip-path="url(#p722b8d65cf)" style="fill: #ff7f0e"/>
   </g>
   <g id="patch_117">
    <path d="M 320.998125 194.529693 
L 323.788125 194.529693 
L 323.788125 88.048427 
L 320.998125 88.048427 
z
" clip-path="url(#p722b8d65cf)" style="fill: #ff7f0e"/>
   </g>
   <g id="patch_118">
    <path d="M 326.578125 198.358643 
L 329.368125 198.358643 
L 329.368125 93.700686 
L 326.578125 93.700686 
z
" clip-path="url(#p722b8d65cf)" style="fill: #ff7f0e"/>
   </g>
   <g id="patch_119">
    <path d="M 332.158125 197.446988 
L 334.948125 197.446988 
L 334.948125 79.114211 
L 332.158125 79.114211 
z
" clip-path="url(#p722b8d65cf)" style="fill: #ff7f0e"/>
   </g>
   <g id="patch_120">
    <path d="M 337.738125 197.446988 
L 340.528125 197.446988 
L 340.528125 86.58978 
L 337.738125 86.58978 
z
" clip-path="url(#p722b8d65cf)" style="fill: #ff7f0e"/>
   </g>
   <g id="patch_121">
    <path d="M 343.318125 189.97142 
L 346.108125 189.97142 
L 346.108125 66.351046 
L 343.318125 66.351046 
z
" clip-path="url(#p722b8d65cf)" style="fill: #ff7f0e"/>
   </g>
   <g id="patch_122">
    <path d="M 348.898125 191.247737 
L 351.688125 191.247737 
L 351.688125 81.666844 
L 348.898125 81.666844 
z
" clip-path="url(#p722b8d65cf)" style="fill: #ff7f0e"/>
   </g>
   <g id="patch_123">
    <path d="M 354.478125 188.512772 
L 357.268125 188.512772 
L 357.268125 60.516456 
L 354.478125 60.516456 
z
" clip-path="url(#p722b8d65cf)" style="fill: #ff7f0e"/>
   </g>
   <g id="patch_124">
    <path d="M 360.058125 191.97706 
L 362.848125 191.97706 
L 362.848125 58.146154 
L 360.058125 58.146154 
z
" clip-path="url(#p722b8d65cf)" style="fill: #ff7f0e"/>
   </g>
   <g id="patch_125">
    <path d="M 365.638125 192.706384 
L 368.428125 192.706384 
L 368.428125 72.185636 
L 365.638125 72.185636 
z
" clip-path="url(#p722b8d65cf)" style="fill: #ff7f0e"/>
   </g>
   <g id="patch_126">
    <path d="M 371.218125 190.336082 
L 374.008125 190.336082 
L 374.008125 70.362326 
L 371.218125 70.362326 
z
" clip-path="url(#p722b8d65cf)" style="fill: #ff7f0e"/>
   </g>
   <g id="patch_127">
    <path d="M 376.798125 172.285319 
L 379.588125 172.285319 
L 379.588125 40.095391 
L 376.798125 40.095391 
z
" clip-path="url(#p722b8d65cf)" style="fill: #ff7f0e"/>
   </g>
   <g id="patch_128">
    <path d="M 382.378125 187.96578 
L 385.168125 187.96578 
L 385.168125 51.217578 
L 382.378125 51.217578 
z
" clip-path="url(#p722b8d65cf)" style="fill: #ff7f0e"/>
   </g>
   <g id="patch_129">
    <path d="M 387.958125 177.208254 
L 390.748125 177.208254 
L 390.748125 36.448772 
L 387.958125 36.448772 
z
" clip-path="url(#p722b8d65cf)" style="fill: #ff7f0e"/>
   </g>
   <g id="patch_130">
    <path d="M 393.538125 173.379305 
L 396.328125 173.379305 
L 396.328125 34.990125 
L 393.538125 34.990125 
z
" clip-path="url(#p722b8d65cf)" style="fill: #ff7f0e"/>
   </g>
   <g id="matplotlib.axis_1">
    <g id="xtick_1">
     <g id="line2d_1">
      <defs>
       <path id="mc8e0c95291" d="M 0 0 
L 0 3.5 
" style="stroke: #000000; stroke-width: 0.8"/>
      </defs>
      <g>
       <use xlink:href="#mc8e0c95291" x="43.393125" y="288.430125" style="stroke: #000000; stroke-width: 0.8"/>
      </g>
     </g>
     <g id="text_1">
      <!-- 16 -->
      <g transform="translate(37.030625 303.028562) scale(0.1 -0.1)">
       <defs>
        <path id="DejaVuSans-31" d="M 794 531 
L 1825 531 
L 1825 4091 
L 703 3866 
L 703 4441 
L 1819 4666 
L 2450 4666 
L 2450 531 
L 3481 531 
L 3481 0 
L 794 0 
L 794 531 
z
" transform="scale(0.015625)"/>
        <path id="DejaVuSans-36" d="M 2113 2584 
Q 1688 2584 1439 2293 
Q 1191 2003 1191 1497 
Q 1191 994 1439 701 
Q 1688 409 2113 409 
Q 2538 409 2786 701 
Q 3034 994 3034 1497 
Q 3034 2003 2786 2293 
Q 2538 2584 2113 2584 
z
M 3366 4563 
L 3366 3988 
Q 3128 4100 2886 4159 
Q 2644 4219 2406 4219 
Q 1781 4219 1451 3797 
Q 1122 3375 1075 2522 
Q 1259 2794 1537 2939 
Q 1816 3084 2150 3084 
Q 2853 3084 3261 2657 
Q 3669 2231 3669 1497 
Q 3669 778 3244 343 
Q 2819 -91 2113 -91 
Q 1303 -91 875 529 
Q 447 1150 447 2328 
Q 447 3434 972 4092 
Q 1497 4750 2381 4750 
Q 2619 4750 2861 4703 
Q 3103 4656 3366 4563 
z
" transform="scale(0.015625)"/>
       </defs>
       <use xlink:href="#DejaVuSans-31"/>
       <use xlink:href="#DejaVuSans-36" x="63.623047"/>
      </g>
     </g>
    </g>
    <g id="xtick_2">
     <g id="line2d_2">
      <g>
       <use xlink:href="#mc8e0c95291" x="82.453125" y="288.430125" style="stroke: #000000; stroke-width: 0.8"/>
      </g>
     </g>
     <g id="text_2">
      <!-- 128 -->
      <g transform="translate(72.909375 303.028562) scale(0.1 -0.1)">
       <defs>
        <path id="DejaVuSans-32" d="M 1228 531 
L 3431 531 
L 3431 0 
L 469 0 
L 469 531 
Q 828 903 1448 1529 
Q 2069 2156 2228 2338 
Q 2531 2678 2651 2914 
Q 2772 3150 2772 3378 
Q 2772 3750 2511 3984 
Q 2250 4219 1831 4219 
Q 1534 4219 1204 4116 
Q 875 4013 500 3803 
L 500 4441 
Q 881 4594 1212 4672 
Q 1544 4750 1819 4750 
Q 2544 4750 2975 4387 
Q 3406 4025 3406 3419 
Q 3406 3131 3298 2873 
Q 3191 2616 2906 2266 
Q 2828 2175 2409 1742 
Q 1991 1309 1228 531 
z
" transform="scale(0.015625)"/>
        <path id="DejaVuSans-38" d="M 2034 2216 
Q 1584 2216 1326 1975 
Q 1069 1734 1069 1313 
Q 1069 891 1326 650 
Q 1584 409 2034 409 
Q 2484 409 2743 651 
Q 3003 894 3003 1313 
Q 3003 1734 2745 1975 
Q 2488 2216 2034 2216 
z
M 1403 2484 
Q 997 2584 770 2862 
Q 544 3141 544 3541 
Q 544 4100 942 4425 
Q 1341 4750 2034 4750 
Q 2731 4750 3128 4425 
Q 3525 4100 3525 3541 
Q 3525 3141 3298 2862 
Q 3072 2584 2669 2484 
Q 3125 2378 3379 2068 
Q 3634 1759 3634 1313 
Q 3634 634 3220 271 
Q 2806 -91 2034 -91 
Q 1263 -91 848 271 
Q 434 634 434 1313 
Q 434 1759 690 2068 
Q 947 2378 1403 2484 
z
M 1172 3481 
Q 1172 3119 1398 2916 
Q 1625 2713 2034 2713 
Q 2441 2713 2670 2916 
Q 2900 3119 2900 3481 
Q 2900 3844 2670 4047 
Q 2441 4250 2034 4250 
Q 1625 4250 1398 4047 
Q 1172 3844 1172 3481 
z
" transform="scale(0.015625)"/>
       </defs>
       <use xlink:href="#DejaVuSans-31"/>
       <use xlink:href="#DejaVuSans-32" x="63.623047"/>
       <use xlink:href="#DejaVuSans-38" x="127.246094"/>
      </g>
     </g>
    </g>
    <g id="xtick_3">
     <g id="line2d_3">
      <g>
       <use xlink:href="#mc8e0c95291" x="121.513125" y="288.430125" style="stroke: #000000; stroke-width: 0.8"/>
      </g>
     </g>
     <g id="text_3">
      <!-- 240 -->
      <g transform="translate(111.969375 303.028562) scale(0.1 -0.1)">
       <defs>
        <path id="DejaVuSans-34" d="M 2419 4116 
L 825 1625 
L 2419 1625 
L 2419 4116 
z
M 2253 4666 
L 3047 4666 
L 3047 1625 
L 3713 1625 
L 3713 1100 
L 3047 1100 
L 3047 0 
L 2419 0 
L 2419 1100 
L 313 1100 
L 313 1709 
L 2253 4666 
z
" transform="scale(0.015625)"/>
        <path id="DejaVuSans-30" d="M 2034 4250 
Q 1547 4250 1301 3770 
Q 1056 3291 1056 2328 
Q 1056 1369 1301 889 
Q 1547 409 2034 409 
Q 2525 409 2770 889 
Q 3016 1369 3016 2328 
Q 3016 3291 2770 3770 
Q 2525 4250 2034 4250 
z
M 2034 4750 
Q 2819 4750 3233 4129 
Q 3647 3509 3647 2328 
Q 3647 1150 3233 529 
Q 2819 -91 2034 -91 
Q 1250 -91 836 529 
Q 422 1150 422 2328 
Q 422 3509 836 4129 
Q 1250 4750 2034 4750 
z
" transform="scale(0.015625)"/>
       </defs>
       <use xlink:href="#DejaVuSans-32"/>
       <use xlink:href="#DejaVuSans-34" x="63.623047"/>
       <use xlink:href="#DejaVuSans-30" x="127.246094"/>
      </g>
     </g>
    </g>
    <g id="xtick_4">
     <g id="line2d_4">
      <g>
       <use xlink:href="#mc8e0c95291" x="160.573125" y="288.430125" style="stroke: #000000; stroke-width: 0.8"/>
      </g>
     </g>
     <g id="text_4">
      <!-- 352 -->
      <g transform="translate(151.029375 303.028562) scale(0.1 -0.1)">
       <defs>
        <path id="DejaVuSans-33" d="M 2597 2516 
Q 3050 2419 3304 2112 
Q 3559 1806 3559 1356 
Q 3559 666 3084 287 
Q 2609 -91 1734 -91 
Q 1441 -91 1130 -33 
Q 819 25 488 141 
L 488 750 
Q 750 597 1062 519 
Q 1375 441 1716 441 
Q 2309 441 2620 675 
Q 2931 909 2931 1356 
Q 2931 1769 2642 2001 
Q 2353 2234 1838 2234 
L 1294 2234 
L 1294 2753 
L 1863 2753 
Q 2328 2753 2575 2939 
Q 2822 3125 2822 3475 
Q 2822 3834 2567 4026 
Q 2313 4219 1838 4219 
Q 1578 4219 1281 4162 
Q 984 4106 628 3988 
L 628 4550 
Q 988 4650 1302 4700 
Q 1616 4750 1894 4750 
Q 2613 4750 3031 4423 
Q 3450 4097 3450 3541 
Q 3450 3153 3228 2886 
Q 3006 2619 2597 2516 
z
" transform="scale(0.015625)"/>
        <path id="DejaVuSans-35" d="M 691 4666 
L 3169 4666 
L 3169 4134 
L 1269 4134 
L 1269 2991 
Q 1406 3038 1543 3061 
Q 1681 3084 1819 3084 
Q 2600 3084 3056 2656 
Q 3513 2228 3513 1497 
Q 3513 744 3044 326 
Q 2575 -91 1722 -91 
Q 1428 -91 1123 -41 
Q 819 9 494 109 
L 494 744 
Q 775 591 1075 516 
Q 1375 441 1709 441 
Q 2250 441 2565 725 
Q 2881 1009 2881 1497 
Q 2881 1984 2565 2268 
Q 2250 2553 1709 2553 
Q 1456 2553 1204 2497 
Q 953 2441 691 2322 
L 691 4666 
z
" transform="scale(0.015625)"/>
       </defs>
       <use xlink:href="#DejaVuSans-33"/>
       <use xlink:href="#DejaVuSans-35" x="63.623047"/>
       <use xlink:href="#DejaVuSans-32" x="127.246094"/>
      </g>
     </g>
    </g>
    <g id="xtick_5">
     <g id="line2d_5">
      <g>
       <use xlink:href="#mc8e0c95291" x="199.633125" y="288.430125" style="stroke: #000000; stroke-width: 0.8"/>
      </g>
     </g>
     <g id="text_5">
      <!-- 464 -->
      <g transform="translate(190.089375 303.028562) scale(0.1 -0.1)">
       <use xlink:href="#DejaVuSans-34"/>
       <use xlink:href="#DejaVuSans-36" x="63.623047"/>
       <use xlink:href="#DejaVuSans-34" x="127.246094"/>
      </g>
     </g>
    </g>
    <g id="xtick_6">
     <g id="line2d_6">
      <g>
       <use xlink:href="#mc8e0c95291" x="238.693125" y="288.430125" style="stroke: #000000; stroke-width: 0.8"/>
      </g>
     </g>
     <g id="text_6">
      <!-- 576 -->
      <g transform="translate(229.149375 303.028562) scale(0.1 -0.1)">
       <defs>
        <path id="DejaVuSans-37" d="M 525 4666 
L 3525 4666 
L 3525 4397 
L 1831 0 
L 1172 0 
L 2766 4134 
L 525 4134 
L 525 4666 
z
" transform="scale(0.015625)"/>
       </defs>
       <use xlink:href="#DejaVuSans-35"/>
       <use xlink:href="#DejaVuSans-37" x="63.623047"/>
       <use xlink:href="#DejaVuSans-36" x="127.246094"/>
      </g>
     </g>
    </g>
    <g id="xtick_7">
     <g id="line2d_7">
      <g>
       <use xlink:href="#mc8e0c95291" x="277.753125" y="288.430125" style="stroke: #000000; stroke-width: 0.8"/>
      </g>
     </g>
     <g id="text_7">
      <!-- 688 -->
      <g transform="translate(268.209375 303.028562) scale(0.1 -0.1)">
       <use xlink:href="#DejaVuSans-36"/>
       <use xlink:href="#DejaVuSans-38" x="63.623047"/>
       <use xlink:href="#DejaVuSans-38" x="127.246094"/>
      </g>
     </g>
    </g>
    <g id="xtick_8">
     <g id="line2d_8">
      <g>
       <use xlink:href="#mc8e0c95291" x="316.813125" y="288.430125" style="stroke: #000000; stroke-width: 0.8"/>
      </g>
     </g>
     <g id="text_8">
      <!-- 800 -->
      <g transform="translate(307.269375 303.028562) scale(0.1 -0.1)">
       <use xlink:href="#DejaVuSans-38"/>
       <use xlink:href="#DejaVuSans-30" x="63.623047"/>
       <use xlink:href="#DejaVuSans-30" x="127.246094"/>
      </g>
     </g>
    </g>
    <g id="xtick_9">
     <g id="line2d_9">
      <g>
       <use xlink:href="#mc8e0c95291" x="355.873125" y="288.430125" style="stroke: #000000; stroke-width: 0.8"/>
      </g>
     </g>
     <g id="text_9">
      <!-- 912 -->
      <g transform="translate(346.329375 303.028562) scale(0.1 -0.1)">
       <defs>
        <path id="DejaVuSans-39" d="M 703 97 
L 703 672 
Q 941 559 1184 500 
Q 1428 441 1663 441 
Q 2288 441 2617 861 
Q 2947 1281 2994 2138 
Q 2813 1869 2534 1725 
Q 2256 1581 1919 1581 
Q 1219 1581 811 2004 
Q 403 2428 403 3163 
Q 403 3881 828 4315 
Q 1253 4750 1959 4750 
Q 2769 4750 3195 4129 
Q 3622 3509 3622 2328 
Q 3622 1225 3098 567 
Q 2575 -91 1691 -91 
Q 1453 -91 1209 -44 
Q 966 3 703 97 
z
M 1959 2075 
Q 2384 2075 2632 2365 
Q 2881 2656 2881 3163 
Q 2881 3666 2632 3958 
Q 2384 4250 1959 4250 
Q 1534 4250 1286 3958 
Q 1038 3666 1038 3163 
Q 1038 2656 1286 2365 
Q 1534 2075 1959 2075 
z
" transform="scale(0.015625)"/>
       </defs>
       <use xlink:href="#DejaVuSans-39"/>
       <use xlink:href="#DejaVuSans-31" x="63.623047"/>
       <use xlink:href="#DejaVuSans-32" x="127.246094"/>
      </g>
     </g>
    </g>
    <g id="xtick_10">
     <g id="line2d_10">
      <g>
       <use xlink:href="#mc8e0c95291" x="394.933125" y="288.430125" style="stroke: #000000; stroke-width: 0.8"/>
      </g>
     </g>
     <g id="text_10">
      <!-- 1024 -->
      <g transform="translate(382.208125 303.028562) scale(0.1 -0.1)">
       <use xlink:href="#DejaVuSans-31"/>
       <use xlink:href="#DejaVuSans-30" x="63.623047"/>
       <use xlink:href="#DejaVuSans-32" x="127.246094"/>
       <use xlink:href="#DejaVuSans-34" x="190.869141"/>
      </g>
     </g>
    </g>
    <g id="text_11">
     <!-- File size (megabytes) -->
     <g transform="translate(166.060781 316.706687) scale(0.1 -0.1)">
      <defs>
       <path id="DejaVuSans-46" d="M 628 4666 
L 3309 4666 
L 3309 4134 
L 1259 4134 
L 1259 2759 
L 3109 2759 
L 3109 2228 
L 1259 2228 
L 1259 0 
L 628 0 
L 628 4666 
z
" transform="scale(0.015625)"/>
       <path id="DejaVuSans-69" d="M 603 3500 
L 1178 3500 
L 1178 0 
L 603 0 
L 603 3500 
z
M 603 4863 
L 1178 4863 
L 1178 4134 
L 603 4134 
L 603 4863 
z
" transform="scale(0.015625)"/>
       <path id="DejaVuSans-6c" d="M 603 4863 
L 1178 4863 
L 1178 0 
L 603 0 
L 603 4863 
z
" transform="scale(0.015625)"/>
       <path id="DejaVuSans-65" d="M 3597 1894 
L 3597 1613 
L 953 1613 
Q 991 1019 1311 708 
Q 1631 397 2203 397 
Q 2534 397 2845 478 
Q 3156 559 3463 722 
L 3463 178 
Q 3153 47 2828 -22 
Q 2503 -91 2169 -91 
Q 1331 -91 842 396 
Q 353 884 353 1716 
Q 353 2575 817 3079 
Q 1281 3584 2069 3584 
Q 2775 3584 3186 3129 
Q 3597 2675 3597 1894 
z
M 3022 2063 
Q 3016 2534 2758 2815 
Q 2500 3097 2075 3097 
Q 1594 3097 1305 2825 
Q 1016 2553 972 2059 
L 3022 2063 
z
" transform="scale(0.015625)"/>
       <path id="DejaVuSans-20" transform="scale(0.015625)"/>
       <path id="DejaVuSans-73" d="M 2834 3397 
L 2834 2853 
Q 2591 2978 2328 3040 
Q 2066 3103 1784 3103 
Q 1356 3103 1142 2972 
Q 928 2841 928 2578 
Q 928 2378 1081 2264 
Q 1234 2150 1697 2047 
L 1894 2003 
Q 2506 1872 2764 1633 
Q 3022 1394 3022 966 
Q 3022 478 2636 193 
Q 2250 -91 1575 -91 
Q 1294 -91 989 -36 
Q 684 19 347 128 
L 347 722 
Q 666 556 975 473 
Q 1284 391 1588 391 
Q 1994 391 2212 530 
Q 2431 669 2431 922 
Q 2431 1156 2273 1281 
Q 2116 1406 1581 1522 
L 1381 1569 
Q 847 1681 609 1914 
Q 372 2147 372 2553 
Q 372 3047 722 3315 
Q 1072 3584 1716 3584 
Q 2034 3584 2315 3537 
Q 2597 3491 2834 3397 
z
" transform="scale(0.015625)"/>
       <path id="DejaVuSans-7a" d="M 353 3500 
L 3084 3500 
L 3084 2975 
L 922 459 
L 3084 459 
L 3084 0 
L 275 0 
L 275 525 
L 2438 3041 
L 353 3041 
L 353 3500 
z
" transform="scale(0.015625)"/>
       <path id="DejaVuSans-28" d="M 1984 4856 
Q 1566 4138 1362 3434 
Q 1159 2731 1159 2009 
Q 1159 1288 1364 580 
Q 1569 -128 1984 -844 
L 1484 -844 
Q 1016 -109 783 600 
Q 550 1309 550 2009 
Q 550 2706 781 3412 
Q 1013 4119 1484 4856 
L 1984 4856 
z
" transform="scale(0.015625)"/>
       <path id="DejaVuSans-6d" d="M 3328 2828 
Q 3544 3216 3844 3400 
Q 4144 3584 4550 3584 
Q 5097 3584 5394 3201 
Q 5691 2819 5691 2113 
L 5691 0 
L 5113 0 
L 5113 2094 
Q 5113 2597 4934 2840 
Q 4756 3084 4391 3084 
Q 3944 3084 3684 2787 
Q 3425 2491 3425 1978 
L 3425 0 
L 2847 0 
L 2847 2094 
Q 2847 2600 2669 2842 
Q 2491 3084 2119 3084 
Q 1678 3084 1418 2786 
Q 1159 2488 1159 1978 
L 1159 0 
L 581 0 
L 581 3500 
L 1159 3500 
L 1159 2956 
Q 1356 3278 1631 3431 
Q 1906 3584 2284 3584 
Q 2666 3584 2933 3390 
Q 3200 3197 3328 2828 
z
" transform="scale(0.015625)"/>
       <path id="DejaVuSans-67" d="M 2906 1791 
Q 2906 2416 2648 2759 
Q 2391 3103 1925 3103 
Q 1463 3103 1205 2759 
Q 947 2416 947 1791 
Q 947 1169 1205 825 
Q 1463 481 1925 481 
Q 2391 481 2648 825 
Q 2906 1169 2906 1791 
z
M 3481 434 
Q 3481 -459 3084 -895 
Q 2688 -1331 1869 -1331 
Q 1566 -1331 1297 -1286 
Q 1028 -1241 775 -1147 
L 775 -588 
Q 1028 -725 1275 -790 
Q 1522 -856 1778 -856 
Q 2344 -856 2625 -561 
Q 2906 -266 2906 331 
L 2906 616 
Q 2728 306 2450 153 
Q 2172 0 1784 0 
Q 1141 0 747 490 
Q 353 981 353 1791 
Q 353 2603 747 3093 
Q 1141 3584 1784 3584 
Q 2172 3584 2450 3431 
Q 2728 3278 2906 2969 
L 2906 3500 
L 3481 3500 
L 3481 434 
z
" transform="scale(0.015625)"/>
       <path id="DejaVuSans-61" d="M 2194 1759 
Q 1497 1759 1228 1600 
Q 959 1441 959 1056 
Q 959 750 1161 570 
Q 1363 391 1709 391 
Q 2188 391 2477 730 
Q 2766 1069 2766 1631 
L 2766 1759 
L 2194 1759 
z
M 3341 1997 
L 3341 0 
L 2766 0 
L 2766 531 
Q 2569 213 2275 61 
Q 1981 -91 1556 -91 
Q 1019 -91 701 211 
Q 384 513 384 1019 
Q 384 1609 779 1909 
Q 1175 2209 1959 2209 
L 2766 2209 
L 2766 2266 
Q 2766 2663 2505 2880 
Q 2244 3097 1772 3097 
Q 1472 3097 1187 3025 
Q 903 2953 641 2809 
L 641 3341 
Q 956 3463 1253 3523 
Q 1550 3584 1831 3584 
Q 2591 3584 2966 3190 
Q 3341 2797 3341 1997 
z
" transform="scale(0.015625)"/>
       <path id="DejaVuSans-62" d="M 3116 1747 
Q 3116 2381 2855 2742 
Q 2594 3103 2138 3103 
Q 1681 3103 1420 2742 
Q 1159 2381 1159 1747 
Q 1159 1113 1420 752 
Q 1681 391 2138 391 
Q 2594 391 2855 752 
Q 3116 1113 3116 1747 
z
M 1159 2969 
Q 1341 3281 1617 3432 
Q 1894 3584 2278 3584 
Q 2916 3584 3314 3078 
Q 3713 2572 3713 1747 
Q 3713 922 3314 415 
Q 2916 -91 2278 -91 
Q 1894 -91 1617 61 
Q 1341 213 1159 525 
L 1159 0 
L 581 0 
L 581 4863 
L 1159 4863 
L 1159 2969 
z
" transform="scale(0.015625)"/>
       <path id="DejaVuSans-79" d="M 2059 -325 
Q 1816 -950 1584 -1140 
Q 1353 -1331 966 -1331 
L 506 -1331 
L 506 -850 
L 844 -850 
Q 1081 -850 1212 -737 
Q 1344 -625 1503 -206 
L 1606 56 
L 191 3500 
L 800 3500 
L 1894 763 
L 2988 3500 
L 3597 3500 
L 2059 -325 
z
" transform="scale(0.015625)"/>
       <path id="DejaVuSans-74" d="M 1172 4494 
L 1172 3500 
L 2356 3500 
L 2356 3053 
L 1172 3053 
L 1172 1153 
Q 1172 725 1289 603 
Q 1406 481 1766 481 
L 2356 481 
L 2356 0 
L 1766 0 
Q 1100 0 847 248 
Q 594 497 594 1153 
L 594 3053 
L 172 3053 
L 172 3500 
L 594 3500 
L 594 4494 
L 1172 4494 
z
" transform="scale(0.015625)"/>
       <path id="DejaVuSans-29" d="M 513 4856 
L 1013 4856 
Q 1481 4119 1714 3412 
Q 1947 2706 1947 2009 
Q 1947 1309 1714 600 
Q 1481 -109 1013 -844 
L 513 -844 
Q 928 -128 1133 580 
Q 1338 1288 1338 2009 
Q 1338 2731 1133 3434 
Q 928 4138 513 4856 
z
" transform="scale(0.015625)"/>
      </defs>
      <use xlink:href="#DejaVuSans-46"/>
      <use xlink:href="#DejaVuSans-69" x="50.269531"/>
      <use xlink:href="#DejaVuSans-6c" x="78.052734"/>
      <use xlink:href="#DejaVuSans-65" x="105.835938"/>
      <use xlink:href="#DejaVuSans-20" x="167.359375"/>
      <use xlink:href="#DejaVuSans-73" x="199.146484"/>
      <use xlink:href="#DejaVuSans-69" x="251.246094"/>
      <use xlink:href="#DejaVuSans-7a" x="279.029297"/>
      <use xlink:href="#DejaVuSans-65" x="331.519531"/>
      <use xlink:href="#DejaVuSans-20" x="393.042969"/>
      <use xlink:href="#DejaVuSans-28" x="424.830078"/>
      <use xlink:href="#DejaVuSans-6d" x="463.84375"/>
      <use xlink:href="#DejaVuSans-65" x="561.255859"/>
      <use xlink:href="#DejaVuSans-67" x="622.779297"/>
      <use xlink:href="#DejaVuSans-61" x="686.255859"/>
      <use xlink:href="#DejaVuSans-62" x="747.535156"/>
      <use xlink:href="#DejaVuSans-79" x="811.011719"/>
      <use xlink:href="#DejaVuSans-74" x="870.191406"/>
      <use xlink:href="#DejaVuSans-65" x="909.400391"/>
      <use xlink:href="#DejaVuSans-73" x="970.923828"/>
      <use xlink:href="#DejaVuSans-29" x="1023.023438"/>
     </g>
    </g>
   </g>
   <g id="matplotlib.axis_2">
    <g id="ytick_1">
     <g id="line2d_11">
      <defs>
       <path id="m45de87fcad" d="M 0 0 
L -3.5 0 
" style="stroke: #000000; stroke-width: 0.8"/>
      </defs>
      <g>
       <use xlink:href="#m45de87fcad" x="40.603125" y="288.430125" style="stroke: #000000; stroke-width: 0.8"/>
      </g>
     </g>
     <g id="text_12">
      <!-- 0 -->
      <g transform="translate(27.240625 292.229344) scale(0.1 -0.1)">
       <use xlink:href="#DejaVuSans-30"/>
      </g>
     </g>
    </g>
    <g id="ytick_2">
     <g id="line2d_12">
      <g>
       <use xlink:href="#m45de87fcad" x="40.603125" y="251.963938" style="stroke: #000000; stroke-width: 0.8"/>
      </g>
     </g>
     <g id="text_13">
      <!-- 2 -->
      <g transform="translate(27.240625 255.763157) scale(0.1 -0.1)">
       <use xlink:href="#DejaVuSans-32"/>
      </g>
     </g>
    </g>
    <g id="ytick_3">
     <g id="line2d_13">
      <g>
       <use xlink:href="#m45de87fcad" x="40.603125" y="215.497751" style="stroke: #000000; stroke-width: 0.8"/>
      </g>
     </g>
     <g id="text_14">
      <!-- 4 -->
      <g transform="translate(27.240625 219.29697) scale(0.1 -0.1)">
       <use xlink:href="#DejaVuSans-34"/>
      </g>
     </g>
    </g>
    <g id="ytick_4">
     <g id="line2d_14">
      <g>
       <use xlink:href="#m45de87fcad" x="40.603125" y="179.031564" style="stroke: #000000; stroke-width: 0.8"/>
      </g>
     </g>
     <g id="text_15">
      <!-- 6 -->
      <g transform="translate(27.240625 182.830783) scale(0.1 -0.1)">
       <use xlink:href="#DejaVuSans-36"/>
      </g>
     </g>
    </g>
    <g id="ytick_5">
     <g id="line2d_15">
      <g>
       <use xlink:href="#m45de87fcad" x="40.603125" y="142.565377" style="stroke: #000000; stroke-width: 0.8"/>
      </g>
     </g>
     <g id="text_16">
      <!-- 8 -->
      <g transform="translate(27.240625 146.364596) scale(0.1 -0.1)">
       <use xlink:href="#DejaVuSans-38"/>
      </g>
     </g>
    </g>
    <g id="ytick_6">
     <g id="line2d_16">
      <g>
       <use xlink:href="#m45de87fcad" x="40.603125" y="106.09919" style="stroke: #000000; stroke-width: 0.8"/>
      </g>
     </g>
     <g id="text_17">
      <!-- 10 -->
      <g transform="translate(20.878125 109.898408) scale(0.1 -0.1)">
       <use xlink:href="#DejaVuSans-31"/>
       <use xlink:href="#DejaVuSans-30" x="63.623047"/>
      </g>
     </g>
    </g>
    <g id="ytick_7">
     <g id="line2d_17">
      <g>
       <use xlink:href="#m45de87fcad" x="40.603125" y="69.633003" style="stroke: #000000; stroke-width: 0.8"/>
      </g>
     </g>
     <g id="text_18">
      <!-- 12 -->
      <g transform="translate(20.878125 73.432221) scale(0.1 -0.1)">
       <use xlink:href="#DejaVuSans-31"/>
       <use xlink:href="#DejaVuSans-32" x="63.623047"/>
      </g>
     </g>
    </g>
    <g id="ytick_8">
     <g id="line2d_18">
      <g>
       <use xlink:href="#m45de87fcad" x="40.603125" y="33.166816" style="stroke: #000000; stroke-width: 0.8"/>
      </g>
     </g>
     <g id="text_19">
      <!-- 14 -->
      <g transform="translate(20.878125 36.966034) scale(0.1 -0.1)">
       <use xlink:href="#DejaVuSans-31"/>
       <use xlink:href="#DejaVuSans-34" x="63.623047"/>
      </g>
     </g>
    </g>
    <g id="text_20">
     <!-- Elapsed time (seconds) -->
     <g transform="translate(14.798438 213.829594) rotate(-90) scale(0.1 -0.1)">
      <defs>
       <path id="DejaVuSans-45" d="M 628 4666 
L 3578 4666 
L 3578 4134 
L 1259 4134 
L 1259 2753 
L 3481 2753 
L 3481 2222 
L 1259 2222 
L 1259 531 
L 3634 531 
L 3634 0 
L 628 0 
L 628 4666 
z
" transform="scale(0.015625)"/>
       <path id="DejaVuSans-70" d="M 1159 525 
L 1159 -1331 
L 581 -1331 
L 581 3500 
L 1159 3500 
L 1159 2969 
Q 1341 3281 1617 3432 
Q 1894 3584 2278 3584 
Q 2916 3584 3314 3078 
Q 3713 2572 3713 1747 
Q 3713 922 3314 415 
Q 2916 -91 2278 -91 
Q 1894 -91 1617 61 
Q 1341 213 1159 525 
z
M 3116 1747 
Q 3116 2381 2855 2742 
Q 2594 3103 2138 3103 
Q 1681 3103 1420 2742 
Q 1159 2381 1159 1747 
Q 1159 1113 1420 752 
Q 1681 391 2138 391 
Q 2594 391 2855 752 
Q 3116 1113 3116 1747 
z
" transform="scale(0.015625)"/>
       <path id="DejaVuSans-64" d="M 2906 2969 
L 2906 4863 
L 3481 4863 
L 3481 0 
L 2906 0 
L 2906 525 
Q 2725 213 2448 61 
Q 2172 -91 1784 -91 
Q 1150 -91 751 415 
Q 353 922 353 1747 
Q 353 2572 751 3078 
Q 1150 3584 1784 3584 
Q 2172 3584 2448 3432 
Q 2725 3281 2906 2969 
z
M 947 1747 
Q 947 1113 1208 752 
Q 1469 391 1925 391 
Q 2381 391 2643 752 
Q 2906 1113 2906 1747 
Q 2906 2381 2643 2742 
Q 2381 3103 1925 3103 
Q 1469 3103 1208 2742 
Q 947 2381 947 1747 
z
" transform="scale(0.015625)"/>
       <path id="DejaVuSans-63" d="M 3122 3366 
L 3122 2828 
Q 2878 2963 2633 3030 
Q 2388 3097 2138 3097 
Q 1578 3097 1268 2742 
Q 959 2388 959 1747 
Q 959 1106 1268 751 
Q 1578 397 2138 397 
Q 2388 397 2633 464 
Q 2878 531 3122 666 
L 3122 134 
Q 2881 22 2623 -34 
Q 2366 -91 2075 -91 
Q 1284 -91 818 406 
Q 353 903 353 1747 
Q 353 2603 823 3093 
Q 1294 3584 2113 3584 
Q 2378 3584 2631 3529 
Q 2884 3475 3122 3366 
z
" transform="scale(0.015625)"/>
       <path id="DejaVuSans-6f" d="M 1959 3097 
Q 1497 3097 1228 2736 
Q 959 2375 959 1747 
Q 959 1119 1226 758 
Q 1494 397 1959 397 
Q 2419 397 2687 759 
Q 2956 1122 2956 1747 
Q 2956 2369 2687 2733 
Q 2419 3097 1959 3097 
z
M 1959 3584 
Q 2709 3584 3137 3096 
Q 3566 2609 3566 1747 
Q 3566 888 3137 398 
Q 2709 -91 1959 -91 
Q 1206 -91 779 398 
Q 353 888 353 1747 
Q 353 2609 779 3096 
Q 1206 3584 1959 3584 
z
" transform="scale(0.015625)"/>
       <path id="DejaVuSans-6e" d="M 3513 2113 
L 3513 0 
L 2938 0 
L 2938 2094 
Q 2938 2591 2744 2837 
Q 2550 3084 2163 3084 
Q 1697 3084 1428 2787 
Q 1159 2491 1159 1978 
L 1159 0 
L 581 0 
L 581 3500 
L 1159 3500 
L 1159 2956 
Q 1366 3272 1645 3428 
Q 1925 3584 2291 3584 
Q 2894 3584 3203 3211 
Q 3513 2838 3513 2113 
z
" transform="scale(0.015625)"/>
      </defs>
      <use xlink:href="#DejaVuSans-45"/>
      <use xlink:href="#DejaVuSans-6c" x="63.183594"/>
      <use xlink:href="#DejaVuSans-61" x="90.966797"/>
      <use xlink:href="#DejaVuSans-70" x="152.246094"/>
      <use xlink:href="#DejaVuSans-73" x="215.722656"/>
      <use xlink:href="#DejaVuSans-65" x="267.822266"/>
      <use xlink:href="#DejaVuSans-64" x="329.345703"/>
      <use xlink:href="#DejaVuSans-20" x="392.822266"/>
      <use xlink:href="#DejaVuSans-74" x="424.609375"/>
      <use xlink:href="#DejaVuSans-69" x="463.818359"/>
      <use xlink:href="#DejaVuSans-6d" x="491.601562"/>
      <use xlink:href="#DejaVuSans-65" x="589.013672"/>
      <use xlink:href="#DejaVuSans-20" x="650.537109"/>
      <use xlink:href="#DejaVuSans-28" x="682.324219"/>
      <use xlink:href="#DejaVuSans-73" x="721.337891"/>
      <use xlink:href="#DejaVuSans-65" x="773.4375"/>
      <use xlink:href="#DejaVuSans-63" x="834.960938"/>
      <use xlink:href="#DejaVuSans-6f" x="889.941406"/>
      <use xlink:href="#DejaVuSans-6e" x="951.123047"/>
      <use xlink:href="#DejaVuSans-64" x="1014.501953"/>
      <use xlink:href="#DejaVuSans-73" x="1077.978516"/>
      <use xlink:href="#DejaVuSans-29" x="1130.078125"/>
     </g>
    </g>
   </g>
   <g id="patch_131">
    <path d="M 40.603125 288.430125 
L 40.603125 22.318125 
" style="fill: none; stroke: #000000; stroke-width: 0.8; stroke-linejoin: miter; stroke-linecap: square"/>
   </g>
   <g id="patch_132">
    <path d="M 397.723125 288.430125 
L 397.723125 22.318125 
" style="fill: none; stroke: #000000; stroke-width: 0.8; stroke-linejoin: miter; stroke-linecap: square"/>
   </g>
   <g id="patch_133">
    <path d="M 40.603125 288.430125 
L 397.723125 288.430125 
" style="fill: none; stroke: #000000; stroke-width: 0.8; stroke-linejoin: miter; stroke-linecap: square"/>
   </g>
   <g id="patch_134">
    <path d="M 40.603125 22.318125 
L 397.723125 22.318125 
" style="fill: none; stroke: #000000; stroke-width: 0.8; stroke-linejoin: miter; stroke-linecap: square"/>
   </g>
   <g id="text_21">
    <!-- Nilfs dedup deduplication time elapsed -->
    <g transform="translate(101.803125 16.318125) scale(0.12 -0.12)">
     <defs>
      <path id="DejaVuSans-4e" d="M 628 4666 
L 1478 4666 
L 3547 763 
L 3547 4666 
L 4159 4666 
L 4159 0 
L 3309 0 
L 1241 3903 
L 1241 0 
L 628 0 
L 628 4666 
z
" transform="scale(0.015625)"/>
      <path id="DejaVuSans-66" d="M 2375 4863 
L 2375 4384 
L 1825 4384 
Q 1516 4384 1395 4259 
Q 1275 4134 1275 3809 
L 1275 3500 
L 2222 3500 
L 2222 3053 
L 1275 3053 
L 1275 0 
L 697 0 
L 697 3053 
L 147 3053 
L 147 3500 
L 697 3500 
L 697 3744 
Q 697 4328 969 4595 
Q 1241 4863 1831 4863 
L 2375 4863 
z
" transform="scale(0.015625)"/>
      <path id="DejaVuSans-75" d="M 544 1381 
L 544 3500 
L 1119 3500 
L 1119 1403 
Q 1119 906 1312 657 
Q 1506 409 1894 409 
Q 2359 409 2629 706 
Q 2900 1003 2900 1516 
L 2900 3500 
L 3475 3500 
L 3475 0 
L 2900 0 
L 2900 538 
Q 2691 219 2414 64 
Q 2138 -91 1772 -91 
Q 1169 -91 856 284 
Q 544 659 544 1381 
z
M 1991 3584 
L 1991 3584 
z
" transform="scale(0.015625)"/>
     </defs>
     <use xlink:href="#DejaVuSans-4e"/>
     <use xlink:href="#DejaVuSans-69" x="74.804688"/>
     <use xlink:href="#DejaVuSans-6c" x="102.587891"/>
     <use xlink:href="#DejaVuSans-66" x="130.371094"/>
     <use xlink:href="#DejaVuSans-73" x="165.576172"/>
     <use xlink:href="#DejaVuSans-20" x="217.675781"/>
     <use xlink:href="#DejaVuSans-64" x="249.462891"/>
     <use xlink:href="#DejaVuSans-65" x="312.939453"/>
     <use xlink:href="#DejaVuSans-64" x="374.462891"/>
     <use xlink:href="#DejaVuSans-75" x="437.939453"/>
     <use xlink:href="#DejaVuSans-70" x="501.318359"/>
     <use xlink:href="#DejaVuSans-20" x="564.794922"/>
     <use xlink:href="#DejaVuSans-64" x="596.582031"/>
     <use xlink:href="#DejaVuSans-65" x="660.058594"/>
     <use xlink:href="#DejaVuSans-64" x="721.582031"/>
     <use xlink:href="#DejaVuSans-75" x="785.058594"/>
     <use xlink:href="#DejaVuSans-70" x="848.4375"/>
     <use xlink:href="#DejaVuSans-6c" x="911.914062"/>
     <use xlink:href="#DejaVuSans-69" x="939.697266"/>
     <use xlink:href="#DejaVuSans-63" x="967.480469"/>
     <use xlink:href="#DejaVuSans-61" x="1022.460938"/>
     <use xlink:href="#DejaVuSans-74" x="1083.740234"/>
     <use xlink:href="#DejaVuSans-69" x="1122.949219"/>
     <use xlink:href="#DejaVuSans-6f" x="1150.732422"/>
     <use xlink:href="#DejaVuSans-6e" x="1211.914062"/>
     <use xlink:href="#DejaVuSans-20" x="1275.292969"/>
     <use xlink:href="#DejaVuSans-74" x="1307.080078"/>
     <use xlink:href="#DejaVuSans-69" x="1346.289062"/>
     <use xlink:href="#DejaVuSans-6d" x="1374.072266"/>
     <use xlink:href="#DejaVuSans-65" x="1471.484375"/>
     <use xlink:href="#DejaVuSans-20" x="1533.007812"/>
     <use xlink:href="#DejaVuSans-65" x="1564.794922"/>
     <use xlink:href="#DejaVuSans-6c" x="1626.318359"/>
     <use xlink:href="#DejaVuSans-61" x="1654.101562"/>
     <use xlink:href="#DejaVuSans-70" x="1715.380859"/>
     <use xlink:href="#DejaVuSans-73" x="1778.857422"/>
     <use xlink:href="#DejaVuSans-65" x="1830.957031"/>
     <use xlink:href="#DejaVuSans-64" x="1892.480469"/>
    </g>
   </g>
   <g id="legend_1">
    <g id="patch_135">
     <path d="M 47.603125 59.674375 
L 141.525 59.674375 
Q 143.525 59.674375 143.525 57.674375 
L 143.525 29.318125 
Q 143.525 27.318125 141.525 27.318125 
L 47.603125 27.318125 
Q 45.603125 27.318125 45.603125 29.318125 
L 45.603125 57.674375 
Q 45.603125 59.674375 47.603125 59.674375 
z
" style="fill: #ffffff; opacity: 0.8; stroke: #cccccc; stroke-linejoin: miter"/>
    </g>
    <g id="patch_136">
     <path d="M 49.603125 38.916562 
L 69.603125 38.916562 
L 69.603125 31.916562 
L 49.603125 31.916562 
z
" style="fill: #1f77b4"/>
    </g>
    <g id="text_22">
     <!-- system time -->
     <g transform="translate(77.603125 38.916562) scale(0.1 -0.1)">
      <use xlink:href="#DejaVuSans-73"/>
      <use xlink:href="#DejaVuSans-79" x="52.099609"/>
      <use xlink:href="#DejaVuSans-73" x="111.279297"/>
      <use xlink:href="#DejaVuSans-74" x="163.378906"/>
      <use xlink:href="#DejaVuSans-65" x="202.587891"/>
      <use xlink:href="#DejaVuSans-6d" x="264.111328"/>
      <use xlink:href="#DejaVuSans-20" x="361.523438"/>
      <use xlink:href="#DejaVuSans-74" x="393.310547"/>
      <use xlink:href="#DejaVuSans-69" x="432.519531"/>
      <use xlink:href="#DejaVuSans-6d" x="460.302734"/>
      <use xlink:href="#DejaVuSans-65" x="557.714844"/>
     </g>
    </g>
    <g id="patch_137">
     <path d="M 49.603125 53.594687 
L 69.603125 53.594687 
L 69.603125 46.594687 
L 49.603125 46.594687 
z
" style="fill: #ff7f0e"/>
    </g>
    <g id="text_23">
     <!-- user time -->
     <g transform="translate(77.603125 53.594687) scale(0.1 -0.1)">
      <defs>
       <path id="DejaVuSans-72" d="M 2631 2963 
Q 2534 3019 2420 3045 
Q 2306 3072 2169 3072 
Q 1681 3072 1420 2755 
Q 1159 2438 1159 1844 
L 1159 0 
L 581 0 
L 581 3500 
L 1159 3500 
L 1159 2956 
Q 1341 3275 1631 3429 
Q 1922 3584 2338 3584 
Q 2397 3584 2469 3576 
Q 2541 3569 2628 3553 
L 2631 2963 
z
" transform="scale(0.015625)"/>
      </defs>
      <use xlink:href="#DejaVuSans-75"/>
      <use xlink:href="#DejaVuSans-73" x="63.378906"/>
      <use xlink:href="#DejaVuSans-65" x="115.478516"/>
      <use xlink:href="#DejaVuSans-72" x="177.001953"/>
      <use xlink:href="#DejaVuSans-20" x="218.115234"/>
      <use xlink:href="#DejaVuSans-74" x="249.902344"/>
      <use xlink:href="#DejaVuSans-69" x="289.111328"/>
      <use xlink:href="#DejaVuSans-6d" x="316.894531"/>
      <use xlink:href="#DejaVuSans-65" x="414.306641"/>
     </g>
    </g>
   </g>
  </g>
 </g>
 <defs>
  <clipPath id="p722b8d65cf">
   <rect x="40.603125" y="22.318125" width="357.12" height="266.112"/>
  </clipPath>
 </defs>
</svg>
