<?xml version="1.0" encoding="utf-8" standalone="no"?>
<!DOCTYPE svg PUBLIC "-//W3C//DTD SVG 1.1//EN"
  "http://www.w3.org/Graphics/SVG/1.1/DTD/svg11.dtd">
<svg xmlns:xlink="http://www.w3.org/1999/xlink" width="433.900312pt" height="325.986375pt" viewBox="0 0 433.900312 325.986375" xmlns="http://www.w3.org/2000/svg" version="1.1">
 <metadata>
  <rdf:RDF xmlns:dc="http://purl.org/dc/elements/1.1/" xmlns:cc="http://creativecommons.org/ns#" xmlns:rdf="http://www.w3.org/1999/02/22-rdf-syntax-ns#">
   <cc:Work>
    <dc:type rdf:resource="http://purl.org/dc/dcmitype/StillImage"/>
    <dc:date>2023-06-19T07:29:27.269420</dc:date>
    <dc:format>image/svg+xml</dc:format>
    <dc:creator>
     <cc:Agent>
      <dc:title>Matplotlib v3.6.2, https://matplotlib.org/</dc:title>
     </cc:Agent>
    </dc:creator>
   </cc:Work>
  </rdf:RDF>
 </metadata>
 <defs>
  <style type="text/css">*{stroke-linejoin: round; stroke-linecap: butt}</style>
 </defs>
 <g id="figure_1">
  <g id="patch_1">
   <path d="M 0 325.986375 
L 433.900312 325.986375 
L 433.900312 0 
L 0 0 
z
" style="fill: #ffffff"/>
  </g>
  <g id="axes_1">
   <g id="patch_2">
    <path d="M 59.645313 288.430125 
L 416.765313 288.430125 
L 416.765313 22.318125 
L 59.645313 22.318125 
z
" style="fill: #ffffff"/>
   </g>
   <g id="patch_3">
    <path d="M 61.040312 288.430125 
L 63.830312 288.430125 
L 63.830312 34.990125 
L 61.040312 34.990125 
z
" clip-path="url(#p9cdda15806)" style="fill: #1f77b4"/>
   </g>
   <g id="patch_4">
    <path d="M 66.620312 288.430125 
L 69.410313 288.430125 
L 69.410313 161.71786 
L 66.620312 161.71786 
z
" clip-path="url(#p9cdda15806)" style="fill: #1f77b4"/>
   </g>
   <g id="patch_5">
    <path d="M 72.200313 288.430125 
L 74.990313 288.430125 
L 74.990313 203.957 
L 72.200313 203.957 
z
" clip-path="url(#p9cdda15806)" style="fill: #1f77b4"/>
   </g>
   <g id="patch_6">
    <path d="M 77.780313 288.430125 
L 80.570313 288.430125 
L 80.570313 225.075926 
L 77.780313 225.075926 
z
" clip-path="url(#p9cdda15806)" style="fill: #1f77b4"/>
   </g>
   <g id="patch_7">
    <path d="M 83.360313 288.430125 
L 86.150313 288.430125 
L 86.150313 237.747075 
L 83.360313 237.747075 
z
" clip-path="url(#p9cdda15806)" style="fill: #1f77b4"/>
   </g>
   <g id="patch_8">
    <path d="M 88.940313 288.430125 
L 91.730313 288.430125 
L 91.730313 246.194422 
L 88.940313 246.194422 
z
" clip-path="url(#p9cdda15806)" style="fill: #1f77b4"/>
   </g>
   <g id="patch_9">
    <path d="M 94.520313 288.430125 
L 97.310313 288.430125 
L 97.310313 252.228199 
L 94.520313 252.228199 
z
" clip-path="url(#p9cdda15806)" style="fill: #1f77b4"/>
   </g>
   <g id="patch_10">
    <path d="M 100.100313 288.430125 
L 102.890313 288.430125 
L 102.890313 256.753509 
L 100.100313 256.753509 
z
" clip-path="url(#p9cdda15806)" style="fill: #1f77b4"/>
   </g>
   <g id="patch_11">
    <path d="M 105.680313 288.430125 
L 108.470313 288.430125 
L 108.470313 230.507245 
L 105.680313 230.507245 
z
" clip-path="url(#p9cdda15806)" style="fill: #1f77b4"/>
   </g>
   <g id="patch_12">
    <path d="M 111.260313 288.430125 
L 114.050313 288.430125 
L 114.050313 236.448128 
L 111.260313 236.448128 
z
" clip-path="url(#p9cdda15806)" style="fill: #1f77b4"/>
   </g>
   <g id="patch_13">
    <path d="M 116.840313 288.430125 
L 119.630313 288.430125 
L 119.630313 242.355239 
L 116.840313 242.355239 
z
" clip-path="url(#p9cdda15806)" style="fill: #1f77b4"/>
   </g>
   <g id="patch_14">
    <path d="M 122.420313 288.430125 
L 125.210313 288.430125 
L 125.210313 246.194852 
L 122.420313 246.194852 
z
" clip-path="url(#p9cdda15806)" style="fill: #1f77b4"/>
   </g>
   <g id="patch_15">
    <path d="M 128.000313 288.430125 
L 130.790312 288.430125 
L 130.790312 268.554714 
L 128.000313 268.554714 
z
" clip-path="url(#p9cdda15806)" style="fill: #1f77b4"/>
   </g>
   <g id="patch_16">
    <path d="M 133.580313 288.430125 
L 136.370313 288.430125 
L 136.370313 270.32932 
L 133.580313 270.32932 
z
" clip-path="url(#p9cdda15806)" style="fill: #1f77b4"/>
   </g>
   <g id="patch_17">
    <path d="M 139.160313 288.430125 
L 141.950312 288.430125 
L 141.950312 254.641975 
L 139.160313 254.641975 
z
" clip-path="url(#p9cdda15806)" style="fill: #1f77b4"/>
   </g>
   <g id="patch_18">
    <path d="M 144.740313 288.430125 
L 147.530313 288.430125 
L 147.530313 256.753751 
L 144.740313 256.753751 
z
" clip-path="url(#p9cdda15806)" style="fill: #1f77b4"/>
   </g>
   <g id="patch_19">
    <path d="M 150.320313 288.430125 
L 153.110313 288.430125 
L 153.110313 243.710558 
L 150.320313 243.710558 
z
" clip-path="url(#p9cdda15806)" style="fill: #1f77b4"/>
   </g>
   <g id="patch_20">
    <path d="M 155.900313 288.430125 
L 158.690313 288.430125 
L 158.690313 246.194995 
L 155.900313 246.194995 
z
" clip-path="url(#p9cdda15806)" style="fill: #1f77b4"/>
   </g>
   <g id="patch_21">
    <path d="M 161.480313 288.430125 
L 164.270313 288.430125 
L 164.270313 248.417911 
L 161.480313 248.417911 
z
" clip-path="url(#p9cdda15806)" style="fill: #1f77b4"/>
   </g>
   <g id="patch_22">
    <path d="M 167.060313 288.430125 
L 169.850313 288.430125 
L 169.850313 250.418534 
L 167.060313 250.418534 
z
" clip-path="url(#p9cdda15806)" style="fill: #1f77b4"/>
   </g>
   <g id="patch_23">
    <path d="M 172.640313 288.430125 
L 175.430313 288.430125 
L 175.430313 251.792455 
L 172.640313 251.792455 
z
" clip-path="url(#p9cdda15806)" style="fill: #1f77b4"/>
   </g>
   <g id="patch_24">
    <path d="M 178.220313 288.430125 
L 181.010313 288.430125 
L 181.010313 253.874152 
L 178.220313 253.874152 
z
" clip-path="url(#p9cdda15806)" style="fill: #1f77b4"/>
   </g>
   <g id="patch_25">
    <path d="M 183.800313 288.430125 
L 186.590313 288.430125 
L 186.590313 255.376594 
L 183.800313 255.376594 
z
" clip-path="url(#p9cdda15806)" style="fill: #1f77b4"/>
   </g>
   <g id="patch_26">
    <path d="M 189.380313 288.430125 
L 192.170313 288.430125 
L 192.170313 256.079864 
L 189.380313 256.079864 
z
" clip-path="url(#p9cdda15806)" style="fill: #1f77b4"/>
   </g>
   <g id="patch_27">
    <path d="M 194.960313 288.430125 
L 197.750313 288.430125 
L 197.750313 247.057011 
L 194.960313 247.057011 
z
" clip-path="url(#p9cdda15806)" style="fill: #1f77b4"/>
   </g>
   <g id="patch_28">
    <path d="M 200.540313 288.430125 
L 203.330313 288.430125 
L 203.330313 249.065424 
L 200.540313 249.065424 
z
" clip-path="url(#p9cdda15806)" style="fill: #1f77b4"/>
   </g>
   <g id="patch_29">
    <path d="M 206.120313 288.430125 
L 208.910313 288.430125 
L 208.910313 260.010287 
L 206.120313 260.010287 
z
" clip-path="url(#p9cdda15806)" style="fill: #1f77b4"/>
   </g>
   <g id="patch_30">
    <path d="M 211.700313 288.430125 
L 214.490313 288.430125 
L 214.490313 242.770634 
L 211.700313 242.770634 
z
" clip-path="url(#p9cdda15806)" style="fill: #1f77b4"/>
   </g>
   <g id="patch_31">
    <path d="M 217.280313 288.430125 
L 220.070313 288.430125 
L 220.070313 253.173062 
L 217.280313 253.173062 
z
" clip-path="url(#p9cdda15806)" style="fill: #1f77b4"/>
   </g>
   <g id="patch_32">
    <path d="M 222.860313 288.430125 
L 225.650313 288.430125 
L 225.650313 254.069432 
L 222.860313 254.069432 
z
" clip-path="url(#p9cdda15806)" style="fill: #1f77b4"/>
   </g>
   <g id="patch_33">
    <path d="M 228.440313 288.430125 
L 231.230313 288.430125 
L 231.230313 247.225236 
L 228.440313 247.225236 
z
" clip-path="url(#p9cdda15806)" style="fill: #1f77b4"/>
   </g>
   <g id="patch_34">
    <path d="M 234.020313 288.430125 
L 236.810313 288.430125 
L 236.810313 216.597359 
L 234.020313 216.597359 
z
" clip-path="url(#p9cdda15806)" style="fill: #1f77b4"/>
   </g>
   <g id="patch_35">
    <path d="M 239.600313 288.430125 
L 242.390313 288.430125 
L 242.390313 249.443969 
L 239.600313 249.443969 
z
" clip-path="url(#p9cdda15806)" style="fill: #1f77b4"/>
   </g>
   <g id="patch_36">
    <path d="M 245.180313 288.430125 
L 247.970313 288.430125 
L 247.970313 250.607739 
L 245.180313 250.607739 
z
" clip-path="url(#p9cdda15806)" style="fill: #1f77b4"/>
   </g>
   <g id="patch_37">
    <path d="M 250.760313 288.430125 
L 253.550313 288.430125 
L 253.550313 251.704044 
L 250.760313 251.704044 
z
" clip-path="url(#p9cdda15806)" style="fill: #1f77b4"/>
   </g>
   <g id="patch_38">
    <path d="M 256.340313 288.430125 
L 259.130313 288.430125 
L 259.130313 252.738585 
L 256.340313 252.738585 
z
" clip-path="url(#p9cdda15806)" style="fill: #1f77b4"/>
   </g>
   <g id="patch_39">
    <path d="M 261.920313 288.430125 
L 264.710313 288.430125 
L 264.710313 246.773701 
L 261.920313 246.773701 
z
" clip-path="url(#p9cdda15806)" style="fill: #1f77b4"/>
   </g>
   <g id="patch_40">
    <path d="M 267.500313 288.430125 
L 270.290313 288.430125 
L 270.290313 254.415374 
L 267.500313 254.415374 
z
" clip-path="url(#p9cdda15806)" style="fill: #1f77b4"/>
   </g>
   <g id="patch_41">
    <path d="M 273.080313 288.430125 
L 275.870313 288.430125 
L 275.870313 255.304652 
L 273.080313 255.304652 
z
" clip-path="url(#p9cdda15806)" style="fill: #1f77b4"/>
   </g>
   <g id="patch_42">
    <path d="M 278.660313 288.430125 
L 281.450313 288.430125 
L 281.450313 256.352929 
L 278.660313 256.352929 
z
" clip-path="url(#p9cdda15806)" style="fill: #1f77b4"/>
   </g>
   <g id="patch_43">
    <path d="M 284.240313 288.430125 
L 287.030313 288.430125 
L 287.030313 250.887929 
L 284.240313 250.887929 
z
" clip-path="url(#p9cdda15806)" style="fill: #1f77b4"/>
   </g>
   <g id="patch_44">
    <path d="M 289.820313 288.430125 
L 292.610313 288.430125 
L 292.610313 257.713784 
L 289.820313 257.713784 
z
" clip-path="url(#p9cdda15806)" style="fill: #1f77b4"/>
   </g>
   <g id="patch_45">
    <path d="M 295.400313 288.430125 
L 298.190313 288.430125 
L 298.190313 258.4408 
L 295.400313 258.4408 
z
" clip-path="url(#p9cdda15806)" style="fill: #1f77b4"/>
   </g>
   <g id="patch_46">
    <path d="M 300.980313 288.430125 
L 303.770313 288.430125 
L 303.770313 259.134197 
L 300.980313 259.134197 
z
" clip-path="url(#p9cdda15806)" style="fill: #1f77b4"/>
   </g>
   <g id="patch_47">
    <path d="M 306.560313 288.430125 
L 309.350313 288.430125 
L 309.350313 248.342705 
L 306.560313 248.342705 
z
" clip-path="url(#p9cdda15806)" style="fill: #1f77b4"/>
   </g>
   <g id="patch_48">
    <path d="M 312.140313 288.430125 
L 314.930313 288.430125 
L 314.930313 255.013456 
L 312.140313 255.013456 
z
" clip-path="url(#p9cdda15806)" style="fill: #1f77b4"/>
   </g>
   <g id="patch_49">
    <path d="M 317.720313 288.430125 
L 320.510313 288.430125 
L 320.510313 250.282424 
L 317.720313 250.282424 
z
" clip-path="url(#p9cdda15806)" style="fill: #1f77b4"/>
   </g>
   <g id="patch_50">
    <path d="M 323.300313 288.430125 
L 326.090313 288.430125 
L 326.090313 256.420477 
L 323.300313 256.420477 
z
" clip-path="url(#p9cdda15806)" style="fill: #1f77b4"/>
   </g>
   <g id="patch_51">
    <path d="M 328.880313 288.430125 
L 331.670313 288.430125 
L 331.670313 246.630587 
L 328.880313 246.630587 
z
" clip-path="url(#p9cdda15806)" style="fill: #1f77b4"/>
   </g>
   <g id="patch_52">
    <path d="M 334.460313 288.430125 
L 337.250313 288.430125 
L 337.250313 252.412504 
L 334.460313 252.412504 
z
" clip-path="url(#p9cdda15806)" style="fill: #1f77b4"/>
   </g>
   <g id="patch_53">
    <path d="M 340.040313 288.430125 
L 342.830313 288.430125 
L 342.830313 253.129274 
L 340.040313 253.129274 
z
" clip-path="url(#p9cdda15806)" style="fill: #1f77b4"/>
   </g>
   <g id="patch_54">
    <path d="M 345.620313 288.430125 
L 348.410313 288.430125 
L 348.410313 224.462637 
L 345.620313 224.462637 
z
" clip-path="url(#p9cdda15806)" style="fill: #1f77b4"/>
   </g>
   <g id="patch_55">
    <path d="M 351.200313 288.430125 
L 353.990313 288.430125 
L 353.990313 249.815321 
L 351.200313 249.815321 
z
" clip-path="url(#p9cdda15806)" style="fill: #1f77b4"/>
   </g>
   <g id="patch_56">
    <path d="M 356.780313 288.430125 
L 359.570313 288.430125 
L 359.570313 222.117322 
L 356.780313 222.117322 
z
" clip-path="url(#p9cdda15806)" style="fill: #1f77b4"/>
   </g>
   <g id="patch_57">
    <path d="M 362.360313 288.430125 
L 365.150313 288.430125 
L 365.150313 251.060963 
L 362.360313 251.060963 
z
" clip-path="url(#p9cdda15806)" style="fill: #1f77b4"/>
   </g>
   <g id="patch_58">
    <path d="M 367.940313 288.430125 
L 370.730313 288.430125 
L 370.730313 251.737329 
L 367.940313 251.737329 
z
" clip-path="url(#p9cdda15806)" style="fill: #1f77b4"/>
   </g>
   <g id="patch_59">
    <path d="M 373.520313 288.430125 
L 376.310313 288.430125 
L 376.310313 256.894707 
L 373.520313 256.894707 
z
" clip-path="url(#p9cdda15806)" style="fill: #1f77b4"/>
   </g>
   <g id="patch_60">
    <path d="M 379.100313 288.430125 
L 381.890313 288.430125 
L 381.890313 283.984342 
L 379.100313 283.984342 
z
" clip-path="url(#p9cdda15806)" style="fill: #1f77b4"/>
   </g>
   <g id="patch_61">
    <path d="M 384.680313 288.430125 
L 387.470313 288.430125 
L 387.470313 257.97747 
L 384.680313 257.97747 
z
" clip-path="url(#p9cdda15806)" style="fill: #1f77b4"/>
   </g>
   <g id="patch_62">
    <path d="M 390.260313 288.430125 
L 393.050313 288.430125 
L 393.050313 254.214485 
L 390.260313 254.214485 
z
" clip-path="url(#p9cdda15806)" style="fill: #1f77b4"/>
   </g>
   <g id="patch_63">
    <path d="M 395.840313 288.430125 
L 398.630313 288.430125 
L 398.630313 254.78238 
L 395.840313 254.78238 
z
" clip-path="url(#p9cdda15806)" style="fill: #1f77b4"/>
   </g>
   <g id="patch_64">
    <path d="M 401.420313 288.430125 
L 404.210313 288.430125 
L 404.210313 251.345798 
L 401.420313 251.345798 
z
" clip-path="url(#p9cdda15806)" style="fill: #1f77b4"/>
   </g>
   <g id="patch_65">
    <path d="M 407.000313 288.430125 
L 409.790313 288.430125 
L 409.790313 255.863435 
L 407.000313 255.863435 
z
" clip-path="url(#p9cdda15806)" style="fill: #1f77b4"/>
   </g>
   <g id="patch_66">
    <path d="M 412.580313 288.430125 
L 415.370313 288.430125 
L 415.370313 248.365374 
L 412.580313 248.365374 
z
" clip-path="url(#p9cdda15806)" style="fill: #1f77b4"/>
   </g>
   <g id="matplotlib.axis_1">
    <g id="xtick_1">
     <g id="line2d_1">
      <defs>
       <path id="m0f5b011df2" d="M 0 0 
L 0 3.5 
" style="stroke: #000000; stroke-width: 0.8"/>
      </defs>
      <g>
       <use xlink:href="#m0f5b011df2" x="62.435313" y="288.430125" style="stroke: #000000; stroke-width: 0.8"/>
      </g>
     </g>
     <g id="text_1">
      <!-- 16 -->
      <g transform="translate(56.072812 303.028562) scale(0.1 -0.1)">
       <defs>
        <path id="DejaVuSans-31" d="M 794 531 
L 1825 531 
L 1825 4091 
L 703 3866 
L 703 4441 
L 1819 4666 
L 2450 4666 
L 2450 531 
L 3481 531 
L 3481 0 
L 794 0 
L 794 531 
z
" transform="scale(0.015625)"/>
        <path id="DejaVuSans-36" d="M 2113 2584 
Q 1688 2584 1439 2293 
Q 1191 2003 1191 1497 
Q 1191 994 1439 701 
Q 1688 409 2113 409 
Q 2538 409 2786 701 
Q 3034 994 3034 1497 
Q 3034 2003 2786 2293 
Q 2538 2584 2113 2584 
z
M 3366 4563 
L 3366 3988 
Q 3128 4100 2886 4159 
Q 2644 4219 2406 4219 
Q 1781 4219 1451 3797 
Q 1122 3375 1075 2522 
Q 1259 2794 1537 2939 
Q 1816 3084 2150 3084 
Q 2853 3084 3261 2657 
Q 3669 2231 3669 1497 
Q 3669 778 3244 343 
Q 2819 -91 2113 -91 
Q 1303 -91 875 529 
Q 447 1150 447 2328 
Q 447 3434 972 4092 
Q 1497 4750 2381 4750 
Q 2619 4750 2861 4703 
Q 3103 4656 3366 4563 
z
" transform="scale(0.015625)"/>
       </defs>
       <use xlink:href="#DejaVuSans-31"/>
       <use xlink:href="#DejaVuSans-36" x="63.623047"/>
      </g>
     </g>
    </g>
    <g id="xtick_2">
     <g id="line2d_2">
      <g>
       <use xlink:href="#m0f5b011df2" x="101.495313" y="288.430125" style="stroke: #000000; stroke-width: 0.8"/>
      </g>
     </g>
     <g id="text_2">
      <!-- 128 -->
      <g transform="translate(91.951563 303.028562) scale(0.1 -0.1)">
       <defs>
        <path id="DejaVuSans-32" d="M 1228 531 
L 3431 531 
L 3431 0 
L 469 0 
L 469 531 
Q 828 903 1448 1529 
Q 2069 2156 2228 2338 
Q 2531 2678 2651 2914 
Q 2772 3150 2772 3378 
Q 2772 3750 2511 3984 
Q 2250 4219 1831 4219 
Q 1534 4219 1204 4116 
Q 875 4013 500 3803 
L 500 4441 
Q 881 4594 1212 4672 
Q 1544 4750 1819 4750 
Q 2544 4750 2975 4387 
Q 3406 4025 3406 3419 
Q 3406 3131 3298 2873 
Q 3191 2616 2906 2266 
Q 2828 2175 2409 1742 
Q 1991 1309 1228 531 
z
" transform="scale(0.015625)"/>
        <path id="DejaVuSans-38" d="M 2034 2216 
Q 1584 2216 1326 1975 
Q 1069 1734 1069 1313 
Q 1069 891 1326 650 
Q 1584 409 2034 409 
Q 2484 409 2743 651 
Q 3003 894 3003 1313 
Q 3003 1734 2745 1975 
Q 2488 2216 2034 2216 
z
M 1403 2484 
Q 997 2584 770 2862 
Q 544 3141 544 3541 
Q 544 4100 942 4425 
Q 1341 4750 2034 4750 
Q 2731 4750 3128 4425 
Q 3525 4100 3525 3541 
Q 3525 3141 3298 2862 
Q 3072 2584 2669 2484 
Q 3125 2378 3379 2068 
Q 3634 1759 3634 1313 
Q 3634 634 3220 271 
Q 2806 -91 2034 -91 
Q 1263 -91 848 271 
Q 434 634 434 1313 
Q 434 1759 690 2068 
Q 947 2378 1403 2484 
z
M 1172 3481 
Q 1172 3119 1398 2916 
Q 1625 2713 2034 2713 
Q 2441 2713 2670 2916 
Q 2900 3119 2900 3481 
Q 2900 3844 2670 4047 
Q 2441 4250 2034 4250 
Q 1625 4250 1398 4047 
Q 1172 3844 1172 3481 
z
" transform="scale(0.015625)"/>
       </defs>
       <use xlink:href="#DejaVuSans-31"/>
       <use xlink:href="#DejaVuSans-32" x="63.623047"/>
       <use xlink:href="#DejaVuSans-38" x="127.246094"/>
      </g>
     </g>
    </g>
    <g id="xtick_3">
     <g id="line2d_3">
      <g>
       <use xlink:href="#m0f5b011df2" x="140.555313" y="288.430125" style="stroke: #000000; stroke-width: 0.8"/>
      </g>
     </g>
     <g id="text_3">
      <!-- 240 -->
      <g transform="translate(131.011563 303.028562) scale(0.1 -0.1)">
       <defs>
        <path id="DejaVuSans-34" d="M 2419 4116 
L 825 1625 
L 2419 1625 
L 2419 4116 
z
M 2253 4666 
L 3047 4666 
L 3047 1625 
L 3713 1625 
L 3713 1100 
L 3047 1100 
L 3047 0 
L 2419 0 
L 2419 1100 
L 313 1100 
L 313 1709 
L 2253 4666 
z
" transform="scale(0.015625)"/>
        <path id="DejaVuSans-30" d="M 2034 4250 
Q 1547 4250 1301 3770 
Q 1056 3291 1056 2328 
Q 1056 1369 1301 889 
Q 1547 409 2034 409 
Q 2525 409 2770 889 
Q 3016 1369 3016 2328 
Q 3016 3291 2770 3770 
Q 2525 4250 2034 4250 
z
M 2034 4750 
Q 2819 4750 3233 4129 
Q 3647 3509 3647 2328 
Q 3647 1150 3233 529 
Q 2819 -91 2034 -91 
Q 1250 -91 836 529 
Q 422 1150 422 2328 
Q 422 3509 836 4129 
Q 1250 4750 2034 4750 
z
" transform="scale(0.015625)"/>
       </defs>
       <use xlink:href="#DejaVuSans-32"/>
       <use xlink:href="#DejaVuSans-34" x="63.623047"/>
       <use xlink:href="#DejaVuSans-30" x="127.246094"/>
      </g>
     </g>
    </g>
    <g id="xtick_4">
     <g id="line2d_4">
      <g>
       <use xlink:href="#m0f5b011df2" x="179.615313" y="288.430125" style="stroke: #000000; stroke-width: 0.8"/>
      </g>
     </g>
     <g id="text_4">
      <!-- 352 -->
      <g transform="translate(170.071563 303.028562) scale(0.1 -0.1)">
       <defs>
        <path id="DejaVuSans-33" d="M 2597 2516 
Q 3050 2419 3304 2112 
Q 3559 1806 3559 1356 
Q 3559 666 3084 287 
Q 2609 -91 1734 -91 
Q 1441 -91 1130 -33 
Q 819 25 488 141 
L 488 750 
Q 750 597 1062 519 
Q 1375 441 1716 441 
Q 2309 441 2620 675 
Q 2931 909 2931 1356 
Q 2931 1769 2642 2001 
Q 2353 2234 1838 2234 
L 1294 2234 
L 1294 2753 
L 1863 2753 
Q 2328 2753 2575 2939 
Q 2822 3125 2822 3475 
Q 2822 3834 2567 4026 
Q 2313 4219 1838 4219 
Q 1578 4219 1281 4162 
Q 984 4106 628 3988 
L 628 4550 
Q 988 4650 1302 4700 
Q 1616 4750 1894 4750 
Q 2613 4750 3031 4423 
Q 3450 4097 3450 3541 
Q 3450 3153 3228 2886 
Q 3006 2619 2597 2516 
z
" transform="scale(0.015625)"/>
        <path id="DejaVuSans-35" d="M 691 4666 
L 3169 4666 
L 3169 4134 
L 1269 4134 
L 1269 2991 
Q 1406 3038 1543 3061 
Q 1681 3084 1819 3084 
Q 2600 3084 3056 2656 
Q 3513 2228 3513 1497 
Q 3513 744 3044 326 
Q 2575 -91 1722 -91 
Q 1428 -91 1123 -41 
Q 819 9 494 109 
L 494 744 
Q 775 591 1075 516 
Q 1375 441 1709 441 
Q 2250 441 2565 725 
Q 2881 1009 2881 1497 
Q 2881 1984 2565 2268 
Q 2250 2553 1709 2553 
Q 1456 2553 1204 2497 
Q 953 2441 691 2322 
L 691 4666 
z
" transform="scale(0.015625)"/>
       </defs>
       <use xlink:href="#DejaVuSans-33"/>
       <use xlink:href="#DejaVuSans-35" x="63.623047"/>
       <use xlink:href="#DejaVuSans-32" x="127.246094"/>
      </g>
     </g>
    </g>
    <g id="xtick_5">
     <g id="line2d_5">
      <g>
       <use xlink:href="#m0f5b011df2" x="218.675313" y="288.430125" style="stroke: #000000; stroke-width: 0.8"/>
      </g>
     </g>
     <g id="text_5">
      <!-- 464 -->
      <g transform="translate(209.131563 303.028562) scale(0.1 -0.1)">
       <use xlink:href="#DejaVuSans-34"/>
       <use xlink:href="#DejaVuSans-36" x="63.623047"/>
       <use xlink:href="#DejaVuSans-34" x="127.246094"/>
      </g>
     </g>
    </g>
    <g id="xtick_6">
     <g id="line2d_6">
      <g>
       <use xlink:href="#m0f5b011df2" x="257.735313" y="288.430125" style="stroke: #000000; stroke-width: 0.8"/>
      </g>
     </g>
     <g id="text_6">
      <!-- 576 -->
      <g transform="translate(248.191563 303.028562) scale(0.1 -0.1)">
       <defs>
        <path id="DejaVuSans-37" d="M 525 4666 
L 3525 4666 
L 3525 4397 
L 1831 0 
L 1172 0 
L 2766 4134 
L 525 4134 
L 525 4666 
z
" transform="scale(0.015625)"/>
       </defs>
       <use xlink:href="#DejaVuSans-35"/>
       <use xlink:href="#DejaVuSans-37" x="63.623047"/>
       <use xlink:href="#DejaVuSans-36" x="127.246094"/>
      </g>
     </g>
    </g>
    <g id="xtick_7">
     <g id="line2d_7">
      <g>
       <use xlink:href="#m0f5b011df2" x="296.795313" y="288.430125" style="stroke: #000000; stroke-width: 0.8"/>
      </g>
     </g>
     <g id="text_7">
      <!-- 688 -->
      <g transform="translate(287.251563 303.028562) scale(0.1 -0.1)">
       <use xlink:href="#DejaVuSans-36"/>
       <use xlink:href="#DejaVuSans-38" x="63.623047"/>
       <use xlink:href="#DejaVuSans-38" x="127.246094"/>
      </g>
     </g>
    </g>
    <g id="xtick_8">
     <g id="line2d_8">
      <g>
       <use xlink:href="#m0f5b011df2" x="335.855313" y="288.430125" style="stroke: #000000; stroke-width: 0.8"/>
      </g>
     </g>
     <g id="text_8">
      <!-- 800 -->
      <g transform="translate(326.311563 303.028562) scale(0.1 -0.1)">
       <use xlink:href="#DejaVuSans-38"/>
       <use xlink:href="#DejaVuSans-30" x="63.623047"/>
       <use xlink:href="#DejaVuSans-30" x="127.246094"/>
      </g>
     </g>
    </g>
    <g id="xtick_9">
     <g id="line2d_9">
      <g>
       <use xlink:href="#m0f5b011df2" x="374.915313" y="288.430125" style="stroke: #000000; stroke-width: 0.8"/>
      </g>
     </g>
     <g id="text_9">
      <!-- 912 -->
      <g transform="translate(365.371563 303.028562) scale(0.1 -0.1)">
       <defs>
        <path id="DejaVuSans-39" d="M 703 97 
L 703 672 
Q 941 559 1184 500 
Q 1428 441 1663 441 
Q 2288 441 2617 861 
Q 2947 1281 2994 2138 
Q 2813 1869 2534 1725 
Q 2256 1581 1919 1581 
Q 1219 1581 811 2004 
Q 403 2428 403 3163 
Q 403 3881 828 4315 
Q 1253 4750 1959 4750 
Q 2769 4750 3195 4129 
Q 3622 3509 3622 2328 
Q 3622 1225 3098 567 
Q 2575 -91 1691 -91 
Q 1453 -91 1209 -44 
Q 966 3 703 97 
z
M 1959 2075 
Q 2384 2075 2632 2365 
Q 2881 2656 2881 3163 
Q 2881 3666 2632 3958 
Q 2384 4250 1959 4250 
Q 1534 4250 1286 3958 
Q 1038 3666 1038 3163 
Q 1038 2656 1286 2365 
Q 1534 2075 1959 2075 
z
" transform="scale(0.015625)"/>
       </defs>
       <use xlink:href="#DejaVuSans-39"/>
       <use xlink:href="#DejaVuSans-31" x="63.623047"/>
       <use xlink:href="#DejaVuSans-32" x="127.246094"/>
      </g>
     </g>
    </g>
    <g id="xtick_10">
     <g id="line2d_10">
      <g>
       <use xlink:href="#m0f5b011df2" x="413.975313" y="288.430125" style="stroke: #000000; stroke-width: 0.8"/>
      </g>
     </g>
     <g id="text_10">
      <!-- 1024 -->
      <g transform="translate(401.250313 303.028562) scale(0.1 -0.1)">
       <use xlink:href="#DejaVuSans-31"/>
       <use xlink:href="#DejaVuSans-30" x="63.623047"/>
       <use xlink:href="#DejaVuSans-32" x="127.246094"/>
       <use xlink:href="#DejaVuSans-34" x="190.869141"/>
      </g>
     </g>
    </g>
    <g id="text_11">
     <!-- File size (megabytes) -->
     <g transform="translate(185.102969 316.706687) scale(0.1 -0.1)">
      <defs>
       <path id="DejaVuSans-46" d="M 628 4666 
L 3309 4666 
L 3309 4134 
L 1259 4134 
L 1259 2759 
L 3109 2759 
L 3109 2228 
L 1259 2228 
L 1259 0 
L 628 0 
L 628 4666 
z
" transform="scale(0.015625)"/>
       <path id="DejaVuSans-69" d="M 603 3500 
L 1178 3500 
L 1178 0 
L 603 0 
L 603 3500 
z
M 603 4863 
L 1178 4863 
L 1178 4134 
L 603 4134 
L 603 4863 
z
" transform="scale(0.015625)"/>
       <path id="DejaVuSans-6c" d="M 603 4863 
L 1178 4863 
L 1178 0 
L 603 0 
L 603 4863 
z
" transform="scale(0.015625)"/>
       <path id="DejaVuSans-65" d="M 3597 1894 
L 3597 1613 
L 953 1613 
Q 991 1019 1311 708 
Q 1631 397 2203 397 
Q 2534 397 2845 478 
Q 3156 559 3463 722 
L 3463 178 
Q 3153 47 2828 -22 
Q 2503 -91 2169 -91 
Q 1331 -91 842 396 
Q 353 884 353 1716 
Q 353 2575 817 3079 
Q 1281 3584 2069 3584 
Q 2775 3584 3186 3129 
Q 3597 2675 3597 1894 
z
M 3022 2063 
Q 3016 2534 2758 2815 
Q 2500 3097 2075 3097 
Q 1594 3097 1305 2825 
Q 1016 2553 972 2059 
L 3022 2063 
z
" transform="scale(0.015625)"/>
       <path id="DejaVuSans-20" transform="scale(0.015625)"/>
       <path id="DejaVuSans-73" d="M 2834 3397 
L 2834 2853 
Q 2591 2978 2328 3040 
Q 2066 3103 1784 3103 
Q 1356 3103 1142 2972 
Q 928 2841 928 2578 
Q 928 2378 1081 2264 
Q 1234 2150 1697 2047 
L 1894 2003 
Q 2506 1872 2764 1633 
Q 3022 1394 3022 966 
Q 3022 478 2636 193 
Q 2250 -91 1575 -91 
Q 1294 -91 989 -36 
Q 684 19 347 128 
L 347 722 
Q 666 556 975 473 
Q 1284 391 1588 391 
Q 1994 391 2212 530 
Q 2431 669 2431 922 
Q 2431 1156 2273 1281 
Q 2116 1406 1581 1522 
L 1381 1569 
Q 847 1681 609 1914 
Q 372 2147 372 2553 
Q 372 3047 722 3315 
Q 1072 3584 1716 3584 
Q 2034 3584 2315 3537 
Q 2597 3491 2834 3397 
z
" transform="scale(0.015625)"/>
       <path id="DejaVuSans-7a" d="M 353 3500 
L 3084 3500 
L 3084 2975 
L 922 459 
L 3084 459 
L 3084 0 
L 275 0 
L 275 525 
L 2438 3041 
L 353 3041 
L 353 3500 
z
" transform="scale(0.015625)"/>
       <path id="DejaVuSans-28" d="M 1984 4856 
Q 1566 4138 1362 3434 
Q 1159 2731 1159 2009 
Q 1159 1288 1364 580 
Q 1569 -128 1984 -844 
L 1484 -844 
Q 1016 -109 783 600 
Q 550 1309 550 2009 
Q 550 2706 781 3412 
Q 1013 4119 1484 4856 
L 1984 4856 
z
" transform="scale(0.015625)"/>
       <path id="DejaVuSans-6d" d="M 3328 2828 
Q 3544 3216 3844 3400 
Q 4144 3584 4550 3584 
Q 5097 3584 5394 3201 
Q 5691 2819 5691 2113 
L 5691 0 
L 5113 0 
L 5113 2094 
Q 5113 2597 4934 2840 
Q 4756 3084 4391 3084 
Q 3944 3084 3684 2787 
Q 3425 2491 3425 1978 
L 3425 0 
L 2847 0 
L 2847 2094 
Q 2847 2600 2669 2842 
Q 2491 3084 2119 3084 
Q 1678 3084 1418 2786 
Q 1159 2488 1159 1978 
L 1159 0 
L 581 0 
L 581 3500 
L 1159 3500 
L 1159 2956 
Q 1356 3278 1631 3431 
Q 1906 3584 2284 3584 
Q 2666 3584 2933 3390 
Q 3200 3197 3328 2828 
z
" transform="scale(0.015625)"/>
       <path id="DejaVuSans-67" d="M 2906 1791 
Q 2906 2416 2648 2759 
Q 2391 3103 1925 3103 
Q 1463 3103 1205 2759 
Q 947 2416 947 1791 
Q 947 1169 1205 825 
Q 1463 481 1925 481 
Q 2391 481 2648 825 
Q 2906 1169 2906 1791 
z
M 3481 434 
Q 3481 -459 3084 -895 
Q 2688 -1331 1869 -1331 
Q 1566 -1331 1297 -1286 
Q 1028 -1241 775 -1147 
L 775 -588 
Q 1028 -725 1275 -790 
Q 1522 -856 1778 -856 
Q 2344 -856 2625 -561 
Q 2906 -266 2906 331 
L 2906 616 
Q 2728 306 2450 153 
Q 2172 0 1784 0 
Q 1141 0 747 490 
Q 353 981 353 1791 
Q 353 2603 747 3093 
Q 1141 3584 1784 3584 
Q 2172 3584 2450 3431 
Q 2728 3278 2906 2969 
L 2906 3500 
L 3481 3500 
L 3481 434 
z
" transform="scale(0.015625)"/>
       <path id="DejaVuSans-61" d="M 2194 1759 
Q 1497 1759 1228 1600 
Q 959 1441 959 1056 
Q 959 750 1161 570 
Q 1363 391 1709 391 
Q 2188 391 2477 730 
Q 2766 1069 2766 1631 
L 2766 1759 
L 2194 1759 
z
M 3341 1997 
L 3341 0 
L 2766 0 
L 2766 531 
Q 2569 213 2275 61 
Q 1981 -91 1556 -91 
Q 1019 -91 701 211 
Q 384 513 384 1019 
Q 384 1609 779 1909 
Q 1175 2209 1959 2209 
L 2766 2209 
L 2766 2266 
Q 2766 2663 2505 2880 
Q 2244 3097 1772 3097 
Q 1472 3097 1187 3025 
Q 903 2953 641 2809 
L 641 3341 
Q 956 3463 1253 3523 
Q 1550 3584 1831 3584 
Q 2591 3584 2966 3190 
Q 3341 2797 3341 1997 
z
" transform="scale(0.015625)"/>
       <path id="DejaVuSans-62" d="M 3116 1747 
Q 3116 2381 2855 2742 
Q 2594 3103 2138 3103 
Q 1681 3103 1420 2742 
Q 1159 2381 1159 1747 
Q 1159 1113 1420 752 
Q 1681 391 2138 391 
Q 2594 391 2855 752 
Q 3116 1113 3116 1747 
z
M 1159 2969 
Q 1341 3281 1617 3432 
Q 1894 3584 2278 3584 
Q 2916 3584 3314 3078 
Q 3713 2572 3713 1747 
Q 3713 922 3314 415 
Q 2916 -91 2278 -91 
Q 1894 -91 1617 61 
Q 1341 213 1159 525 
L 1159 0 
L 581 0 
L 581 4863 
L 1159 4863 
L 1159 2969 
z
" transform="scale(0.015625)"/>
       <path id="DejaVuSans-79" d="M 2059 -325 
Q 1816 -950 1584 -1140 
Q 1353 -1331 966 -1331 
L 506 -1331 
L 506 -850 
L 844 -850 
Q 1081 -850 1212 -737 
Q 1344 -625 1503 -206 
L 1606 56 
L 191 3500 
L 800 3500 
L 1894 763 
L 2988 3500 
L 3597 3500 
L 2059 -325 
z
" transform="scale(0.015625)"/>
       <path id="DejaVuSans-74" d="M 1172 4494 
L 1172 3500 
L 2356 3500 
L 2356 3053 
L 1172 3053 
L 1172 1153 
Q 1172 725 1289 603 
Q 1406 481 1766 481 
L 2356 481 
L 2356 0 
L 1766 0 
Q 1100 0 847 248 
Q 594 497 594 1153 
L 594 3053 
L 172 3053 
L 172 3500 
L 594 3500 
L 594 4494 
L 1172 4494 
z
" transform="scale(0.015625)"/>
       <path id="DejaVuSans-29" d="M 513 4856 
L 1013 4856 
Q 1481 4119 1714 3412 
Q 1947 2706 1947 2009 
Q 1947 1309 1714 600 
Q 1481 -109 1013 -844 
L 513 -844 
Q 928 -128 1133 580 
Q 1338 1288 1338 2009 
Q 1338 2731 1133 3434 
Q 928 4138 513 4856 
z
" transform="scale(0.015625)"/>
      </defs>
      <use xlink:href="#DejaVuSans-46"/>
      <use xlink:href="#DejaVuSans-69" x="50.269531"/>
      <use xlink:href="#DejaVuSans-6c" x="78.052734"/>
      <use xlink:href="#DejaVuSans-65" x="105.835938"/>
      <use xlink:href="#DejaVuSans-20" x="167.359375"/>
      <use xlink:href="#DejaVuSans-73" x="199.146484"/>
      <use xlink:href="#DejaVuSans-69" x="251.246094"/>
      <use xlink:href="#DejaVuSans-7a" x="279.029297"/>
      <use xlink:href="#DejaVuSans-65" x="331.519531"/>
      <use xlink:href="#DejaVuSans-20" x="393.042969"/>
      <use xlink:href="#DejaVuSans-28" x="424.830078"/>
      <use xlink:href="#DejaVuSans-6d" x="463.84375"/>
      <use xlink:href="#DejaVuSans-65" x="561.255859"/>
      <use xlink:href="#DejaVuSans-67" x="622.779297"/>
      <use xlink:href="#DejaVuSans-61" x="686.255859"/>
      <use xlink:href="#DejaVuSans-62" x="747.535156"/>
      <use xlink:href="#DejaVuSans-79" x="811.011719"/>
      <use xlink:href="#DejaVuSans-74" x="870.191406"/>
      <use xlink:href="#DejaVuSans-65" x="909.400391"/>
      <use xlink:href="#DejaVuSans-73" x="970.923828"/>
      <use xlink:href="#DejaVuSans-29" x="1023.023438"/>
     </g>
    </g>
   </g>
   <g id="matplotlib.axis_2">
    <g id="ytick_1">
     <g id="line2d_11">
      <defs>
       <path id="m77e9b643a2" d="M 0 0 
L -3.5 0 
" style="stroke: #000000; stroke-width: 0.8"/>
      </defs>
      <g>
       <use xlink:href="#m77e9b643a2" x="59.645313" y="288.430125" style="stroke: #000000; stroke-width: 0.8"/>
      </g>
     </g>
     <g id="text_12">
      <!-- 0.0% -->
      <g transform="translate(27.240625 292.229344) scale(0.1 -0.1)">
       <defs>
        <path id="DejaVuSans-2e" d="M 684 794 
L 1344 794 
L 1344 0 
L 684 0 
L 684 794 
z
" transform="scale(0.015625)"/>
        <path id="DejaVuSans-25" d="M 4653 2053 
Q 4381 2053 4226 1822 
Q 4072 1591 4072 1178 
Q 4072 772 4226 539 
Q 4381 306 4653 306 
Q 4919 306 5073 539 
Q 5228 772 5228 1178 
Q 5228 1588 5073 1820 
Q 4919 2053 4653 2053 
z
M 4653 2450 
Q 5147 2450 5437 2106 
Q 5728 1763 5728 1178 
Q 5728 594 5436 251 
Q 5144 -91 4653 -91 
Q 4153 -91 3862 251 
Q 3572 594 3572 1178 
Q 3572 1766 3864 2108 
Q 4156 2450 4653 2450 
z
M 1428 4353 
Q 1159 4353 1004 4120 
Q 850 3888 850 3481 
Q 850 3069 1003 2837 
Q 1156 2606 1428 2606 
Q 1700 2606 1854 2837 
Q 2009 3069 2009 3481 
Q 2009 3884 1853 4118 
Q 1697 4353 1428 4353 
z
M 4250 4750 
L 4750 4750 
L 1831 -91 
L 1331 -91 
L 4250 4750 
z
M 1428 4750 
Q 1922 4750 2215 4408 
Q 2509 4066 2509 3481 
Q 2509 2891 2217 2550 
Q 1925 2209 1428 2209 
Q 931 2209 642 2551 
Q 353 2894 353 3481 
Q 353 4063 643 4406 
Q 934 4750 1428 4750 
z
" transform="scale(0.015625)"/>
       </defs>
       <use xlink:href="#DejaVuSans-30"/>
       <use xlink:href="#DejaVuSans-2e" x="63.623047"/>
       <use xlink:href="#DejaVuSans-30" x="95.410156"/>
       <use xlink:href="#DejaVuSans-25" x="159.033203"/>
      </g>
     </g>
    </g>
    <g id="ytick_2">
     <g id="line2d_12">
      <g>
       <use xlink:href="#m77e9b643a2" x="59.645313" y="237.748312" style="stroke: #000000; stroke-width: 0.8"/>
      </g>
     </g>
     <g id="text_13">
      <!-- 5.0% -->
      <g transform="translate(27.240625 241.547531) scale(0.1 -0.1)">
       <use xlink:href="#DejaVuSans-35"/>
       <use xlink:href="#DejaVuSans-2e" x="63.623047"/>
       <use xlink:href="#DejaVuSans-30" x="95.410156"/>
       <use xlink:href="#DejaVuSans-25" x="159.033203"/>
      </g>
     </g>
    </g>
    <g id="ytick_3">
     <g id="line2d_13">
      <g>
       <use xlink:href="#m77e9b643a2" x="59.645313" y="187.0665" style="stroke: #000000; stroke-width: 0.8"/>
      </g>
     </g>
     <g id="text_14">
      <!-- 10.0% -->
      <g transform="translate(20.878125 190.865719) scale(0.1 -0.1)">
       <use xlink:href="#DejaVuSans-31"/>
       <use xlink:href="#DejaVuSans-30" x="63.623047"/>
       <use xlink:href="#DejaVuSans-2e" x="127.246094"/>
       <use xlink:href="#DejaVuSans-30" x="159.033203"/>
       <use xlink:href="#DejaVuSans-25" x="222.65625"/>
      </g>
     </g>
    </g>
    <g id="ytick_4">
     <g id="line2d_14">
      <g>
       <use xlink:href="#m77e9b643a2" x="59.645313" y="136.384688" style="stroke: #000000; stroke-width: 0.8"/>
      </g>
     </g>
     <g id="text_15">
      <!-- 15.0% -->
      <g transform="translate(20.878125 140.183906) scale(0.1 -0.1)">
       <use xlink:href="#DejaVuSans-31"/>
       <use xlink:href="#DejaVuSans-35" x="63.623047"/>
       <use xlink:href="#DejaVuSans-2e" x="127.246094"/>
       <use xlink:href="#DejaVuSans-30" x="159.033203"/>
       <use xlink:href="#DejaVuSans-25" x="222.65625"/>
      </g>
     </g>
    </g>
    <g id="ytick_5">
     <g id="line2d_15">
      <g>
       <use xlink:href="#m77e9b643a2" x="59.645313" y="85.702875" style="stroke: #000000; stroke-width: 0.8"/>
      </g>
     </g>
     <g id="text_16">
      <!-- 20.0% -->
      <g transform="translate(20.878125 89.502094) scale(0.1 -0.1)">
       <use xlink:href="#DejaVuSans-32"/>
       <use xlink:href="#DejaVuSans-30" x="63.623047"/>
       <use xlink:href="#DejaVuSans-2e" x="127.246094"/>
       <use xlink:href="#DejaVuSans-30" x="159.033203"/>
       <use xlink:href="#DejaVuSans-25" x="222.65625"/>
      </g>
     </g>
    </g>
    <g id="ytick_6">
     <g id="line2d_16">
      <g>
       <use xlink:href="#m77e9b643a2" x="59.645313" y="35.021063" style="stroke: #000000; stroke-width: 0.8"/>
      </g>
     </g>
     <g id="text_17">
      <!-- 25.0% -->
      <g transform="translate(20.878125 38.820281) scale(0.1 -0.1)">
       <use xlink:href="#DejaVuSans-32"/>
       <use xlink:href="#DejaVuSans-35" x="63.623047"/>
       <use xlink:href="#DejaVuSans-2e" x="127.246094"/>
       <use xlink:href="#DejaVuSans-30" x="159.033203"/>
       <use xlink:href="#DejaVuSans-25" x="222.65625"/>
      </g>
     </g>
    </g>
    <g id="text_18">
     <!-- Space reduction -->
     <g transform="translate(14.798437 195.890531) rotate(-90) scale(0.1 -0.1)">
      <defs>
       <path id="DejaVuSans-53" d="M 3425 4513 
L 3425 3897 
Q 3066 4069 2747 4153 
Q 2428 4238 2131 4238 
Q 1616 4238 1336 4038 
Q 1056 3838 1056 3469 
Q 1056 3159 1242 3001 
Q 1428 2844 1947 2747 
L 2328 2669 
Q 3034 2534 3370 2195 
Q 3706 1856 3706 1288 
Q 3706 609 3251 259 
Q 2797 -91 1919 -91 
Q 1588 -91 1214 -16 
Q 841 59 441 206 
L 441 856 
Q 825 641 1194 531 
Q 1563 422 1919 422 
Q 2459 422 2753 634 
Q 3047 847 3047 1241 
Q 3047 1584 2836 1778 
Q 2625 1972 2144 2069 
L 1759 2144 
Q 1053 2284 737 2584 
Q 422 2884 422 3419 
Q 422 4038 858 4394 
Q 1294 4750 2059 4750 
Q 2388 4750 2728 4690 
Q 3069 4631 3425 4513 
z
" transform="scale(0.015625)"/>
       <path id="DejaVuSans-70" d="M 1159 525 
L 1159 -1331 
L 581 -1331 
L 581 3500 
L 1159 3500 
L 1159 2969 
Q 1341 3281 1617 3432 
Q 1894 3584 2278 3584 
Q 2916 3584 3314 3078 
Q 3713 2572 3713 1747 
Q 3713 922 3314 415 
Q 2916 -91 2278 -91 
Q 1894 -91 1617 61 
Q 1341 213 1159 525 
z
M 3116 1747 
Q 3116 2381 2855 2742 
Q 2594 3103 2138 3103 
Q 1681 3103 1420 2742 
Q 1159 2381 1159 1747 
Q 1159 1113 1420 752 
Q 1681 391 2138 391 
Q 2594 391 2855 752 
Q 3116 1113 3116 1747 
z
" transform="scale(0.015625)"/>
       <path id="DejaVuSans-63" d="M 3122 3366 
L 3122 2828 
Q 2878 2963 2633 3030 
Q 2388 3097 2138 3097 
Q 1578 3097 1268 2742 
Q 959 2388 959 1747 
Q 959 1106 1268 751 
Q 1578 397 2138 397 
Q 2388 397 2633 464 
Q 2878 531 3122 666 
L 3122 134 
Q 2881 22 2623 -34 
Q 2366 -91 2075 -91 
Q 1284 -91 818 406 
Q 353 903 353 1747 
Q 353 2603 823 3093 
Q 1294 3584 2113 3584 
Q 2378 3584 2631 3529 
Q 2884 3475 3122 3366 
z
" transform="scale(0.015625)"/>
       <path id="DejaVuSans-72" d="M 2631 2963 
Q 2534 3019 2420 3045 
Q 2306 3072 2169 3072 
Q 1681 3072 1420 2755 
Q 1159 2438 1159 1844 
L 1159 0 
L 581 0 
L 581 3500 
L 1159 3500 
L 1159 2956 
Q 1341 3275 1631 3429 
Q 1922 3584 2338 3584 
Q 2397 3584 2469 3576 
Q 2541 3569 2628 3553 
L 2631 2963 
z
" transform="scale(0.015625)"/>
       <path id="DejaVuSans-64" d="M 2906 2969 
L 2906 4863 
L 3481 4863 
L 3481 0 
L 2906 0 
L 2906 525 
Q 2725 213 2448 61 
Q 2172 -91 1784 -91 
Q 1150 -91 751 415 
Q 353 922 353 1747 
Q 353 2572 751 3078 
Q 1150 3584 1784 3584 
Q 2172 3584 2448 3432 
Q 2725 3281 2906 2969 
z
M 947 1747 
Q 947 1113 1208 752 
Q 1469 391 1925 391 
Q 2381 391 2643 752 
Q 2906 1113 2906 1747 
Q 2906 2381 2643 2742 
Q 2381 3103 1925 3103 
Q 1469 3103 1208 2742 
Q 947 2381 947 1747 
z
" transform="scale(0.015625)"/>
       <path id="DejaVuSans-75" d="M 544 1381 
L 544 3500 
L 1119 3500 
L 1119 1403 
Q 1119 906 1312 657 
Q 1506 409 1894 409 
Q 2359 409 2629 706 
Q 2900 1003 2900 1516 
L 2900 3500 
L 3475 3500 
L 3475 0 
L 2900 0 
L 2900 538 
Q 2691 219 2414 64 
Q 2138 -91 1772 -91 
Q 1169 -91 856 284 
Q 544 659 544 1381 
z
M 1991 3584 
L 1991 3584 
z
" transform="scale(0.015625)"/>
       <path id="DejaVuSans-6f" d="M 1959 3097 
Q 1497 3097 1228 2736 
Q 959 2375 959 1747 
Q 959 1119 1226 758 
Q 1494 397 1959 397 
Q 2419 397 2687 759 
Q 2956 1122 2956 1747 
Q 2956 2369 2687 2733 
Q 2419 3097 1959 3097 
z
M 1959 3584 
Q 2709 3584 3137 3096 
Q 3566 2609 3566 1747 
Q 3566 888 3137 398 
Q 2709 -91 1959 -91 
Q 1206 -91 779 398 
Q 353 888 353 1747 
Q 353 2609 779 3096 
Q 1206 3584 1959 3584 
z
" transform="scale(0.015625)"/>
       <path id="DejaVuSans-6e" d="M 3513 2113 
L 3513 0 
L 2938 0 
L 2938 2094 
Q 2938 2591 2744 2837 
Q 2550 3084 2163 3084 
Q 1697 3084 1428 2787 
Q 1159 2491 1159 1978 
L 1159 0 
L 581 0 
L 581 3500 
L 1159 3500 
L 1159 2956 
Q 1366 3272 1645 3428 
Q 1925 3584 2291 3584 
Q 2894 3584 3203 3211 
Q 3513 2838 3513 2113 
z
" transform="scale(0.015625)"/>
      </defs>
      <use xlink:href="#DejaVuSans-53"/>
      <use xlink:href="#DejaVuSans-70" x="63.476562"/>
      <use xlink:href="#DejaVuSans-61" x="126.953125"/>
      <use xlink:href="#DejaVuSans-63" x="188.232422"/>
      <use xlink:href="#DejaVuSans-65" x="243.212891"/>
      <use xlink:href="#DejaVuSans-20" x="304.736328"/>
      <use xlink:href="#DejaVuSans-72" x="336.523438"/>
      <use xlink:href="#DejaVuSans-65" x="375.386719"/>
      <use xlink:href="#DejaVuSans-64" x="436.910156"/>
      <use xlink:href="#DejaVuSans-75" x="500.386719"/>
      <use xlink:href="#DejaVuSans-63" x="563.765625"/>
      <use xlink:href="#DejaVuSans-74" x="618.746094"/>
      <use xlink:href="#DejaVuSans-69" x="657.955078"/>
      <use xlink:href="#DejaVuSans-6f" x="685.738281"/>
      <use xlink:href="#DejaVuSans-6e" x="746.919922"/>
     </g>
    </g>
   </g>
   <g id="patch_67">
    <path d="M 59.645313 288.430125 
L 59.645313 22.318125 
" style="fill: none; stroke: #000000; stroke-width: 0.8; stroke-linejoin: miter; stroke-linecap: square"/>
   </g>
   <g id="patch_68">
    <path d="M 416.765313 288.430125 
L 416.765313 22.318125 
" style="fill: none; stroke: #000000; stroke-width: 0.8; stroke-linejoin: miter; stroke-linecap: square"/>
   </g>
   <g id="patch_69">
    <path d="M 59.645313 288.430125 
L 416.765313 288.430125 
" style="fill: none; stroke: #000000; stroke-width: 0.8; stroke-linejoin: miter; stroke-linecap: square"/>
   </g>
   <g id="patch_70">
    <path d="M 59.645313 22.318125 
L 416.765313 22.318125 
" style="fill: none; stroke: #000000; stroke-width: 0.8; stroke-linejoin: miter; stroke-linecap: square"/>
   </g>
   <g id="text_19">
    <!-- Nilfs dedup space reduction -->
    <g transform="translate(154.473438 16.318125) scale(0.12 -0.12)">
     <defs>
      <path id="DejaVuSans-4e" d="M 628 4666 
L 1478 4666 
L 3547 763 
L 3547 4666 
L 4159 4666 
L 4159 0 
L 3309 0 
L 1241 3903 
L 1241 0 
L 628 0 
L 628 4666 
z
" transform="scale(0.015625)"/>
      <path id="DejaVuSans-66" d="M 2375 4863 
L 2375 4384 
L 1825 4384 
Q 1516 4384 1395 4259 
Q 1275 4134 1275 3809 
L 1275 3500 
L 2222 3500 
L 2222 3053 
L 1275 3053 
L 1275 0 
L 697 0 
L 697 3053 
L 147 3053 
L 147 3500 
L 697 3500 
L 697 3744 
Q 697 4328 969 4595 
Q 1241 4863 1831 4863 
L 2375 4863 
z
" transform="scale(0.015625)"/>
     </defs>
     <use xlink:href="#DejaVuSans-4e"/>
     <use xlink:href="#DejaVuSans-69" x="74.804688"/>
     <use xlink:href="#DejaVuSans-6c" x="102.587891"/>
     <use xlink:href="#DejaVuSans-66" x="130.371094"/>
     <use xlink:href="#DejaVuSans-73" x="165.576172"/>
     <use xlink:href="#DejaVuSans-20" x="217.675781"/>
     <use xlink:href="#DejaVuSans-64" x="249.462891"/>
     <use xlink:href="#DejaVuSans-65" x="312.939453"/>
     <use xlink:href="#DejaVuSans-64" x="374.462891"/>
     <use xlink:href="#DejaVuSans-75" x="437.939453"/>
     <use xlink:href="#DejaVuSans-70" x="501.318359"/>
     <use xlink:href="#DejaVuSans-20" x="564.794922"/>
     <use xlink:href="#DejaVuSans-73" x="596.582031"/>
     <use xlink:href="#DejaVuSans-70" x="648.681641"/>
     <use xlink:href="#DejaVuSans-61" x="712.158203"/>
     <use xlink:href="#DejaVuSans-63" x="773.4375"/>
     <use xlink:href="#DejaVuSans-65" x="828.417969"/>
     <use xlink:href="#DejaVuSans-20" x="889.941406"/>
     <use xlink:href="#DejaVuSans-72" x="921.728516"/>
     <use xlink:href="#DejaVuSans-65" x="960.591797"/>
     <use xlink:href="#DejaVuSans-64" x="1022.115234"/>
     <use xlink:href="#DejaVuSans-75" x="1085.591797"/>
     <use xlink:href="#DejaVuSans-63" x="1148.970703"/>
     <use xlink:href="#DejaVuSans-74" x="1203.951172"/>
     <use xlink:href="#DejaVuSans-69" x="1243.160156"/>
     <use xlink:href="#DejaVuSans-6f" x="1270.943359"/>
     <use xlink:href="#DejaVuSans-6e" x="1332.125"/>
    </g>
   </g>
  </g>
 </g>
 <defs>
  <clipPath id="p9cdda15806">
   <rect x="59.645313" y="22.318125" width="357.12" height="266.112"/>
  </clipPath>
 </defs>
</svg>
