<?xml version="1.0" encoding="UTF-8"?> <svg xmlns="http://www.w3.org/2000/svg" xmlns:xlink="http://www.w3.org/1999/xlink" xmlns:v="https://vecta.io/nano" viewBox="0 0 650 385.8"><style><![CDATA[.K{fill:#012d3f}.L{fill:#00baba}.M{fill:#f2b800}.N{stroke-miterlimit:10}.O{stroke-width:2}.P{stroke:#012d3f}.Q{stroke-linecap:round}]]></style><path d="M-10-9.9h670v406.2H-10z" fill="#dae8ed"></path><path d="M17.4 178.6h615.2v176.1H17.4z" fill="#fff"></path><g stroke="#fff" class="N"><path d="M108.4 50.5h30.4v30.4h-30.4z" class="L"></path><path d="M138.8 50.5h30.4v30.4h-30.4z" class="M"></path><path d="M169.2 50.5h30.4v30.4h-30.4z" class="L"></path><path d="M108.4 80.9h30.4v30.4h-30.4z" class="K"></path><path d="M138.8 80.9h30.4v30.4h-30.4z" class="L"></path><path d="M169.2 80.9h30.4v30.4h-30.4zm-60.8 30.4h30.4v30.4h-30.4z" class="M"></path><g class="K"><path d="M138.8 111.3h30.4v30.4h-30.4z"></path><path d="M169.2 111.3h30.4v30.4h-30.4z"></path></g><path d="M293.4 50.5h30.4v30.4h-30.4z" class="L"></path><path d="M323.8 50.5h30.4v30.4h-30.4z" class="M"></path><path d="M354.2 50.5h30.4v30.4h-30.4z" class="L"></path><path d="M293.4 80.9h30.4v30.4h-30.4z" class="K"></path><path d="M323.8 80.9h30.4v30.4h-30.4z" class="L"></path><path d="M354.2 80.9h30.4v30.4h-30.4zm-60.8 30.4h30.4v30.4h-30.4z" class="M"></path><g class="K"><path d="M323.8 111.3h30.4v30.4h-30.4z"></path><path d="M354.2 111.3h30.4v30.4h-30.4z"></path></g></g><path d="M130.3 23.9h2.3v9.8h-2.3v-9.8zm13.6 0v9.8H142l-4.9-6v6h-2.2v-9.8h1.9l4.9 6v-6h2.2zm2.3 0h2.3v8h4.9v1.8h-7.2v-9.8zm8.5 0h2.3v9.8h-2.3v-9.8zm13.6 0v9.8h-1.9l-4.9-6v6h-2.2v-9.8h1.9l4.9 6v-6h2.2zm9.9 8v1.8h-7.6v-9.8h7.4v1.8h-5.2v2.1h4.6v1.8h-4.6v2.3h5.4z" class="K"></path><use xlink:href="#B" class="K"></use><use xlink:href="#C" class="K"></use><path d="M72.5 94.8l-1.8 4.8h-1.4l-1.1-3-1.1 3h-1.3l-1.7-4.8h1.3l1.1 3.3 1.2-3.3H69l1.2 3.3 1.2-3.3h1.1z" class="K"></path><use xlink:href="#D" class="K"></use><use xlink:href="#C" x="23.9" class="K"></use><use xlink:href="#E" class="K"></use><path d="M96.9 96.9v2.8h-1.3V99c-.3.4-.8.7-1.5.7-1.1 0-1.8-.6-1.8-1.5s.6-1.4 2.1-1.4h1.1c0-.6-.4-1-1.1-1-.5 0-1 .2-1.4.5l-.5-1c.5-.4 1.3-.6 2.1-.6 1.5 0 2.3.7 2.3 2.2zm-1.4 1.2v-.5h-1c-.7 0-.9.2-.9.6s.3.6.8.6c.6 0 1-.3 1.1-.7zM61.4 236l-1.2-1.8h-1.4v1.8h-1.5v-6.3H60c1.7 0 2.7.9 2.7 2.3 0 .9-.5 1.6-1.3 2l1.4 2h-1.4zm-1.3-5.1h-1.2v2.2h1.2c.9 0 1.3-.4 1.3-1.1s-.4-1.1-1.3-1.1zm8.6 3.1H65c.1.6.6 1 1.4 1 .5 0 .9-.2 1.2-.5l.7.8c-.5.5-1.1.8-2 .8-1.7 0-2.8-1.1-2.8-2.5s1.1-2.5 2.6-2.5c1.4 0 2.5 1 2.5 2.5.1.1.1.2.1.4zm-3.7-.9h2.4c-.1-.6-.6-1-1.2-1-.7 0-1.1.4-1.2 1z" class="K"></path><use xlink:href="#F" class="K"></use><path d="M80.7 231.1v4.8h-1.3v-.6c-.4.4-.9.6-1.5.6-1.2 0-2.1-.7-2.1-2.2V231h1.4v2.5c0 .8.4 1.2 1 1.2s1.1-.4 1.1-1.3V231l1.4.1zm1 2.5c0-1.5 1.1-2.5 2.7-2.5 1 0 1.8.4 2.2 1.2l-1.1.6c-.3-.5-.6-.7-1.1-.7-.7 0-1.3.5-1.3 1.3s.6 1.3 1.3 1.3c.4 0 .8-.2 1.1-.7l1.1.6c-.4.8-1.2 1.2-2.2 1.2-1.6.1-2.7-.9-2.7-2.3z" class="K"></path><use xlink:href="#G" class="K"></use><use xlink:href="#H" class="K"></use><use xlink:href="#I" class="K"></use><use xlink:href="#J" class="K"></use><use xlink:href="#K" class="K"></use><path d="M122.9 233.2v2.8h-1.3v-.6c-.3.4-.8.7-1.5.7-1.1 0-1.8-.6-1.8-1.5s.6-1.4 2.1-1.4h1.1c0-.6-.4-1-1.1-1-.5 0-1 .2-1.4.5l-.5-1c.5-.4 1.3-.6 2.1-.6 1.5 0 2.3.6 2.3 2.1zm-1.4 1.2v-.4h-1c-.7 0-.9.2-.9.6s.3.6.8.6c.6-.1 1-.3 1.1-.8z" class="K"></path><g class="L"><path d="M84.3 254.4c0-1.9 1.4-3.2 3.3-3.2 1 0 1.8.3 2.4 1l-.6.6c-.5-.5-1.1-.7-1.8-.7-1.4 0-2.5 1-2.5 2.4s1.1 2.4 2.5 2.4c.7 0 1.3-.2 1.8-.8l.6.6a3.31 3.31 0 0 1-2.4 1c-1.8 0-3.3-1.4-3.3-3.3zm10.6.3v2.9h-.8v-.6c-.3.4-.8.7-1.6.7-1.1 0-1.8-.6-1.8-1.4s.5-1.4 1.9-1.4H94v-.2c0-.7-.4-1.2-1.3-1.2-.6 0-1.1.2-1.5.5l-.4-.6c.5-.4 1.2-.6 2-.6 1.4 0 2.1.6 2.1 1.9zm-.8 1.4v-.7h-1.3c-.9 0-1.1.3-1.1.7 0 .5.4.8 1.1.8a1.11 1.11 0 0 0 1.3-.8z"></path><use xlink:href="#L"></use><path d="M106.4 254.7v2.9h-.8v-.6c-.3.4-.8.7-1.6.7-1.1 0-1.8-.6-1.8-1.4s.5-1.4 1.9-1.4h1.4v-.2c0-.7-.4-1.2-1.3-1.2-.6 0-1.1.2-1.5.5l-.4-.6c.5-.4 1.2-.6 2-.6 1.4 0 2.1.6 2.1 1.9zm-.8 1.4v-.7h-1.3c-.9 0-1.1.3-1.1.7 0 .5.4.8 1.1.8.5.1 1-.2 1.3-.8z"></path><use xlink:href="#M"></use><use xlink:href="#N"></use><use xlink:href="#O"></use><use xlink:href="#P"></use><use xlink:href="#Q"></use><use xlink:href="#R"></use><path d="M80.6 268.1a1.93 1.93 0 0 1-1 .3c-1 0-1.5-.5-1.5-1.5v-2.6h-.8v-.7h.8v-1h.9v1h1.4v.7H79v2.6c0 .5.3.8.7.8.3 0 .5-.1.7-.2l.2.6z"></path><use xlink:href="#N" x="-31.5" y="10.8"></use><use xlink:href="#S"></use><use xlink:href="#N" x="-19.5" y="10.8"></use><path d="M99.8 267.7v.7h-4v-.6l2.8-3.5h-2.8v-.7h3.9v.6l-2.8 3.5h2.9z"></path><use xlink:href="#T"></use><use xlink:href="#U"></use><use xlink:href="#V"></use><use xlink:href="#W"></use><use xlink:href="#X"></use><use xlink:href="#Y"></use><use xlink:href="#T" x="-51.6" y="10.8"></use><use xlink:href="#L" x="-41.9" y="21.6"></use><use xlink:href="#Z"></use><use xlink:href="#a"></use><use xlink:href="#b"></use><use xlink:href="#c"></use><path d="M91.2 277.5c0 1.1-.9 1.7-2.5 1.7h-3.3v-6.3h3.1c1.6 0 2.4.7 2.4 1.6 0 .6-.3 1.1-.8 1.4.7.2 1.1.8 1.1 1.6zm-4.3-3.5v1.5h1.5c.7 0 1.1-.3 1.1-.7s-.5-.8-1.2-.8h-1.4zm2.8 3.3c0-.5-.4-.8-1.2-.8h-1.7v1.6h1.7c.8 0 1.2-.3 1.2-.8z"></path><use xlink:href="#d"></use><path d="M99.8 274v1.7h2.9v1.2h-2.9v2.3h-1.5v-6.3h4.8v1.2h-3.3v-.1zm3.8 2c0-1.9 1.5-3.3 3.4-3.3 2 0 3.4 1.4 3.4 3.3s-1.5 3.3-3.4 3.3-3.4-1.4-3.4-3.3zm5.5 0c0-1.2-.8-2-2-2a1.94 1.94 0 0 0-2 2c0 1.2.8 2 2 2a1.94 1.94 0 0 0 2-2zm6.6 3.2l-1.2-1.8h-1.4v1.8h-1.5v-6.3h2.7c1.7 0 2.7.9 2.7 2.3 0 .9-.5 1.6-1.3 2l1.4 2h-1.4zm-1.4-5.1h-1.2v2.2h1.2c.9 0 1.3-.4 1.3-1.1s-.4-1.1-1.3-1.1z"></path><use xlink:href="#d" x="25.9"></use><path d="M84.7 280.3v-.5h38.9v.5H84.7zm-21.4 3v6.7h-.8v-.8c-.4.5-1 .8-1.7.8-1.4 0-2.4-1-2.4-2.4 0-1.5 1-2.4 2.4-2.4.7 0 1.3.3 1.7.8v-2.6h.8v-.1zm-.8 4.3c0-1-.7-1.7-1.6-1.7s-1.6.7-1.6 1.7.7 1.7 1.6 1.7 1.6-.7 1.6-1.7zm6.3-.5v2.9H68v-.6c-.3.4-.8.7-1.6.7-1.1 0-1.8-.6-1.8-1.4s.5-1.4 1.9-1.4h1.4v-.2c0-.7-.4-1.2-1.3-1.2-.6 0-1.1.2-1.5.5l-.4-.6c.5-.4 1.2-.6 2-.6 1.3 0 2.1.6 2.1 1.9zm-.9 1.4v-.7h-1.3c-.9 0-1.1.3-1.1.7 0 .5.4.8 1.1.8a1.11 1.11 0 0 0 1.3-.8z"></path><use xlink:href="#U" x="-36" y="21.6"></use><path d="M77.9 287.1v2.9H77v-.6c-.3.4-.8.7-1.6.7-1.1 0-1.8-.6-1.8-1.4s.5-1.4 1.9-1.4H77v-.2c0-.7-.4-1.2-1.3-1.2-.6 0-1.1.2-1.5.5l-.4-.6c.5-.4 1.2-.6 2-.6 1.3 0 2.1.6 2.1 1.9zm-.9 1.4v-.7h-1.3c-.9 0-1.1.3-1.1.7 0 .5.4.8 1.1.8a1.11 1.11 0 0 0 1.3-.8z"></path><use xlink:href="#N" x="-31.3" y="32.4"></use><use xlink:href="#c" x="5.8" y="10.8"></use><use xlink:href="#e"></use><path d="M102 285.2v.8h-.2c-.9 0-1.5.6-1.5 1.6v2.4h-.9v-4.8h.8v.8c.4-.5.9-.8 1.8-.8z"></path><use xlink:href="#V" x="-7" y="21.6"></use><use xlink:href="#U" x="-0.8" y="21.6"></use><use xlink:href="#U" x="2.8" y="21.6"></use><path d="M117 287.9h-3.9c.1.8.8 1.4 1.7 1.4.6 0 1-.2 1.4-.6l.5.6c-.4.5-1.1.8-1.9.8-1.5 0-2.6-1-2.6-2.4s1-2.4 2.4-2.4 2.4 1 2.4 2.5c0-.1 0 0 0 .1zm-3.8-.6h3.1c-.1-.8-.7-1.4-1.5-1.4-.9 0-1.6.5-1.6 1.4z"></path><use xlink:href="#X" y="21.6"></use><path d="M96.6 300.5a1.93 1.93 0 0 1-1 .3c-1 0-1.5-.5-1.5-1.5v-2.6h-.8v-.7h.8v-1h.9v1h1.4v.7H95v2.6c0 .5.3.8.7.8.3 0 .5-.1.7-.2l.2.6z"></path><use xlink:href="#W" x="-15" y="32.4"></use><use xlink:href="#f"></use><use xlink:href="#g"></use><use xlink:href="#c" x="35.7" y="21.6"></use><use xlink:href="#h"></use></g><g class="K"><use xlink:href="#i"></use><use xlink:href="#J" x="283.5"></use><path d="M405.9 231.1l-1.8 4.8h-1.4l-1.1-3-1.1 3h-1.3l-1.7-4.8h1.3l1.1 3.3 1.2-3.3h1.2l1.2 3.3 1.2-3.3h1.2z"></path><use xlink:href="#I" x="307.4"></use><use xlink:href="#J" x="307.4"></use><use xlink:href="#K" x="307.3"></use><path d="M430.3 233.2v2.8H429v-.6c-.3.4-.8.7-1.5.7-1.1 0-1.8-.6-1.8-1.5s.6-1.4 2.1-1.4h1.1c0-.6-.4-1-1.1-1-.5 0-1 .2-1.4.5l-.5-1c.5-.4 1.3-.6 2.1-.6 1.5 0 2.3.6 2.3 2.1zm-1.4 1.2v-.4h-1c-.7 0-.9.2-.9.6s.3.6.8.6c.6-.1 1-.3 1.1-.8z"></path></g><g class="L"><path d="M387.3 252.1v2.2h3.2v.8h-3.2v2.5h-.9v-6.3h4.4v.8h-3.5z"></path><use xlink:href="#V" x="281.9" y="-10.8"></use><path d="M397 252.8v.8h-.2c-.9 0-1.5.6-1.5 1.6v2.4h-.9v-4.8h.8v.8c.4-.6 1-.8 1.8-.8z"></path><use xlink:href="#c" x="319.5" y="-21.6"></use><use xlink:href="#U" x="296.3" y="-10.8"></use><path d="M416 252.8l-1.8 4.8h-.8L412 254l-1.4 3.6h-.8l-1.8-4.8h.8l1.4 3.8 1.4-3.8h.7l1.4 3.8 1.4-3.8h.9zm3.4 0v.8h-.2c-.9 0-1.5.6-1.5 1.6v2.4h-.9v-4.8h.8v.8c.4-.6 1-.8 1.8-.8z"></path><use xlink:href="#N" x="307.3"></use><path d="M425.7 257.3a1.93 1.93 0 0 1-1 .3c-1 0-1.5-.5-1.5-1.5v-2.6h-.8v-.7h.8v-1h.9v1h1.4v.7H424v2.6c0 .5.3.8.7.8.3 0 .5-.1.7-.2l.3.6z"></path><use xlink:href="#U" x="320.3" y="-10.8"></use><path d="M434.4 255.5h-3.9c.1.8.8 1.4 1.7 1.4.6 0 1-.2 1.4-.6l.5.6c-.4.5-1.1.8-1.9.8-1.5 0-2.6-1-2.6-2.4s1-2.4 2.4-2.4 2.4 1 2.4 2.5c.1-.1.1 0 0 .1zm-3.8-.6h3.1c-.1-.8-.7-1.4-1.5-1.4-.9 0-1.5.5-1.6 1.4z"></path><use xlink:href="#b" x="363.2" y="-21.6"></use><use xlink:href="#U" x="280"></use><path d="M389.4 266c0-1.4 1.1-2.4 2.5-2.4s2.5 1 2.5 2.4-1 2.4-2.5 2.4c-1.4 0-2.5-1-2.5-2.4zm4.1 0c0-1-.7-1.7-1.6-1.7s-1.6.7-1.6 1.7.7 1.7 1.6 1.7 1.6-.7 1.6-1.7z"></path><use xlink:href="#j"></use><use xlink:href="#V" x="294.1"></use><use xlink:href="#c" x="328" y="-10.8"></use><use xlink:href="#h" x="292.3" y="-32.4"></use><path d="M422.9 265.5v2.9h-.8v-.6c-.3.4-.8.7-1.6.7-1.1 0-1.8-.6-1.8-1.4s.5-1.4 1.9-1.4h1.4v-.2c0-.7-.4-1.2-1.3-1.2-.6 0-1.1.2-1.5.5l-.4-.6c.5-.4 1.2-.6 2-.6 1.4 0 2.1.6 2.1 1.9zm-.9 1.4v-.7h-1.3c-.9 0-1.1.3-1.1.7 0 .5.4.8 1.1.8a1.11 1.11 0 0 0 1.3-.8z"></path><use xlink:href="#c" x="345.9" y="-10.8"></use><path d="M428.7 265.5h2.4v.7h-2.4v-.7z"></path><use xlink:href="#N" x="319.3" y="10.8"></use><path d="M434.4 267.9l.4-.7c.4.3 1.1.5 1.7.5.8 0 1.1-.2 1.1-.6 0-1.1-3-.1-3-2 0-.9.8-1.4 2-1.4.6 0 1.3.2 1.7.4l-.4.7c-.4-.3-.9-.4-1.4-.4-.8 0-1.1.3-1.1.7 0 1.1 3 .2 3 2.1 0 .9-.8 1.4-2.1 1.4-.8-.2-1.5-.4-1.9-.7z"></path></g><g class="K"><path d="M537.1 236l-1.2-1.8h-1.4v1.8H533v-6.3h2.7c1.7 0 2.7.9 2.7 2.3 0 .9-.5 1.6-1.3 2l1.4 2h-1.4zm-1.4-5.1h-1.2v2.2h1.2c.9 0 1.3-.4 1.3-1.1.1-.7-.4-1.1-1.3-1.1z"></path><use xlink:href="#G" x="452.3"></use><use xlink:href="#H" x="452.3"></use><path d="M556.4 231.1v4.8H555v-.6c-.4.4-.9.6-1.5.6-1.2 0-2.1-.7-2.1-2.2V231h1.4v2.5c0 .8.4 1.2 1 1.2s1.1-.4 1.1-1.3V231l1.5.1zm.9 2.5c0-1.5 1.1-2.5 2.7-2.5 1 0 1.8.4 2.2 1.2l-1.1.6c-.3-.5-.6-.7-1.1-.7-.7 0-1.3.5-1.3 1.3s.6 1.3 1.3 1.3c.4 0 .8-.2 1.1-.7l1.1.6c-.4.8-1.2 1.2-2.2 1.2-1.5.1-2.7-.9-2.7-2.3zm10.4.4H564c.1.6.6 1 1.4 1 .5 0 .9-.2 1.2-.5l.7.8c-.5.5-1.1.8-2 .8-1.7 0-2.8-1.1-2.8-2.5s1.1-2.5 2.6-2.5c1.4 0 2.5 1 2.5 2.5.1.1.1.2.1.4zm-3.7-.9h2.4c-.1-.6-.6-1-1.2-1-.7 0-1.1.4-1.2 1z"></path><use xlink:href="#F" x="499"></use><path d="M577.5 229.7h2.9c2.1 0 3.5 1.2 3.5 3.2 0 1.9-1.4 3.2-3.5 3.2h-2.9v-6.4zm2.8 5.1c1.3 0 2.1-.7 2.1-2s-.8-2-2.1-2H579v3.9h1.3v.1zm8.8-1.6v2.8h-1.3v-.6c-.3.4-.8.7-1.5.7-1.1 0-1.8-.6-1.8-1.5s.6-1.4 2.1-1.4h1.1c0-.6-.4-1-1.1-1-.5 0-1 .2-1.4.5l-.5-1c.5-.4 1.3-.6 2.1-.6 1.5 0 2.3.6 2.3 2.1zm-1.4 1.2v-.4h-1c-.7 0-.9.2-.9.6s.3.6.8.6c.5-.1.9-.3 1.1-.8zm5.8 1.3c-.3.2-.7.3-1.1.3-1.1 0-1.8-.6-1.8-1.7v-2h-.7v-1.1h.7V230h1.4v1.2h1.2v1.1H592v2c0 .4.2.6.6.6.2 0 .4-.1.6-.2l.3 1z"></path><use xlink:href="#J" x="485.1"></use></g><g class="L"><path d="M532.8 254.4c0-1.9 1.4-3.2 3.3-3.2 1 0 1.8.3 2.4 1l-.6.6c-.5-.5-1.1-.7-1.8-.7-1.4 0-2.5 1-2.5 2.4s1.1 2.4 2.5 2.4c.7 0 1.3-.2 1.8-.8l.6.6a3.31 3.31 0 0 1-2.4 1c-1.9 0-3.3-1.4-3.3-3.3z"></path><use xlink:href="#T" x="438.7" y="-10.8"></use><path d="M549.9 255.2c0 1.5-1 2.4-2.4 2.4-.7 0-1.3-.3-1.7-.8v2.5h-.8v-6.5h.8v.8c.4-.5 1-.8 1.7-.8 1.4 0 2.4.9 2.4 2.4zm-.9 0c0-1-.7-1.7-1.6-1.7s-1.6.7-1.6 1.7.7 1.7 1.6 1.7c1 0 1.6-.7 1.6-1.7zm5.9-.5v2.9h-.9v-.6c-.3.4-.8.7-1.6.7-1.1 0-1.8-.6-1.8-1.4s.5-1.4 1.9-1.4h1.4v-.2c0-.7-.4-1.2-1.3-1.2-.6 0-1.1.2-1.5.5l-.4-.6c.5-.4 1.2-.6 2-.6 1.4 0 2.2.6 2.2 1.9zm-.9 1.4v-.7h-1.3c-.9 0-1.1.3-1.1.7 0 .5.4.8 1.1.8a1.11 1.11 0 0 0 1.3-.8z"></path><use xlink:href="#M" x="448.4"></use><use xlink:href="#V" x="451.6" y="-10.8"></use><use xlink:href="#U" x="457.8" y="-10.8"></use><use xlink:href="#P" x="448.4"></use><use xlink:href="#Q" x="468.9"></use><use xlink:href="#R" x="468.9"></use><use xlink:href="#U" x="440.5"></use><use xlink:href="#N" x="437.4" y="10.8"></use><use xlink:href="#S" x="468.9"></use><use xlink:href="#N" x="449.4" y="10.8"></use><path d="M568.6 267.7v.7h-4v-.6l2.8-3.5h-2.8v-.7h3.9v.6l-2.8 3.5h2.9z"></path><use xlink:href="#T" x="468.9"></use><use xlink:href="#U" x="468.9"></use><use xlink:href="#V" x="468.9"></use><use xlink:href="#W" x="468.9"></use><use xlink:href="#X" x="468.9"></use><use xlink:href="#Y" x="490"></use><use xlink:href="#T" x="438.4" y="10.8"></use><use xlink:href="#L" x="448.1" y="21.6"></use><use xlink:href="#Z" x="490"></use><use xlink:href="#a" x="490"></use><use xlink:href="#b" x="490"></use><use xlink:href="#c" x="490"></use><path d="M579.6 277.8h-2.9l-.6 1.4h-1.5l2.8-6.3h1.4l2.8 6.3h-1.5l-.5-1.4zm-.5-1.1l-1-2.4-1 2.4h2zm4.7-2.7v1.7h2.9v1.2h-2.9v2.3h-1.5v-6.3h4.8v1.2h-3.3v-.1zm5.6.1h-2v-1.2h5.5v1.2h-2v5.1h-1.5v-5.1z"></path><use xlink:href="#d" x="501.4"></use><use xlink:href="#B" x="546.9" y="179.6"></use><path d="M574.7 280.3v-.5h30.9v.5h-30.9z"></path><use xlink:href="#j" x="135.2" y="21.6"></use><use xlink:href="#T" x="438.4" y="21.6"></use><use xlink:href="#O" x="429" y="32.4"></use><path d="M552.2 287.1v2.9h-.8v-.6c-.3.4-.8.7-1.6.7-1.1 0-1.8-.6-1.8-1.4s.5-1.4 1.9-1.4h1.4v-.2c0-.7-.4-1.2-1.3-1.2-.6 0-1.1.2-1.5.5l-.4-.6c.5-.4 1.2-.6 2-.6 1.3 0 2.1.6 2.1 1.9zm-.9 1.4v-.7H550c-.9 0-1.1.3-1.1.7 0 .5.4.8 1.1.8a1.11 1.11 0 0 0 1.3-.8z"></path><use xlink:href="#N" x="443" y="32.4"></use><use xlink:href="#c" x="480.1" y="10.8"></use><use xlink:href="#e" x="474.4"></use><path d="M576.3 285.2v.8h-.2c-.9 0-1.5.6-1.5 1.6v2.4h-.9v-4.8h.8v.8c.4-.5 1-.8 1.8-.8z"></path><use xlink:href="#N" x="464.2" y="32.4"></use><path d="M582.6 289.7a1.93 1.93 0 0 1-1 .3c-1 0-1.5-.5-1.5-1.5v-2.6h-.8v-.7h.8v-1h.9v1h1.4v.7H581v2.6c0 .5.3.8.7.8.3 0 .5-.1.7-.2l.2.6z"></path><use xlink:href="#U" x="477.2" y="21.6"></use><use xlink:href="#a" x="520.1" y="10.8"></use><use xlink:href="#b" x="520.1" y="10.8"></use><use xlink:href="#U" x="426.8" y="32.4"></use><use xlink:href="#W" x="424.2" y="32.4"></use><use xlink:href="#f" x="439.2"></use><use xlink:href="#g" x="439.2"></use><use xlink:href="#c" x="474.9" y="21.6"></use><use xlink:href="#h" x="439.2"></use></g><g class="K"><path d="M291.6 27.5c0 2.2-1.6 3.5-4.3 3.5h-2v2.7H283v-9.8h4.2c2.8 0 4.4 1.4 4.4 3.6zm-2.3 0c0-1.1-.7-1.7-2.1-1.7h-1.8v3.4h1.8c1.4 0 2.1-.6 2.1-1.7zm3.4 1.3c0-2.9 2.3-5.1 5.4-5.1s5.4 2.1 5.4 5.1c0 2.9-2.3 5.1-5.4 5.1s-5.4-2.1-5.4-5.1zm8.5 0c0-1.9-1.3-3.1-3.1-3.1S295 27 295 28.8c0 1.9 1.3 3.1 3.1 3.1s3.1-1.2 3.1-3.1z"></path><use xlink:href="#k"></use><path d="M316 25.8h-3.1V24h8.5v1.8h-3.1v8H316v-8zm5.7 3.1h4v1.8h-4v-1.8zm14.3-1.4c0 2.2-1.6 3.5-4.3 3.5h-2v2.7h-2.3v-9.8h4.2c2.8 0 4.4 1.4 4.4 3.6zm-2.3 0c0-1.1-.7-1.7-2.1-1.7h-1.8v3.4h1.8c1.4 0 2.1-.6 2.1-1.7zm10.2 6.2L342 31h-2.1v2.7h-2.3v-9.8h4.2c2.6 0 4.3 1.4 4.3 3.6 0 1.5-.7 2.5-2 3.1l2.2 3.2h-2.4v-.1zm-2.2-7.9h-1.8v3.4h1.8c1.4 0 2.1-.6 2.1-1.7s-.7-1.7-2.1-1.7zm5.6 3c0-2.9 2.3-5.1 5.4-5.1s5.4 2.1 5.4 5.1c0 2.9-2.3 5.1-5.4 5.1s-5.4-2.1-5.4-5.1zm8.4 0c0-1.9-1.3-3.1-3.1-3.1s-3.1 1.3-3.1 3.1c0 1.9 1.3 3.1 3.1 3.1s3.1-1.2 3.1-3.1zm3.4 0c0-3 2.3-5.1 5.3-5.1 1.7 0 3.1.6 4 1.7l-1.5 1.3c-.7-.8-1.5-1.1-2.5-1.1-1.8 0-3.1 1.3-3.1 3.1s1.3 3.1 3.1 3.1c1 0 1.8-.4 2.5-1.2l1.5 1.3c-.9 1.1-2.3 1.8-4 1.8-3 .2-5.3-1.9-5.3-4.9zm18.5 3.1v1.8H370v-9.8h7.4v1.8h-5.2v2.1h4.6v1.8h-4.6v2.3h5.4z"></path><use xlink:href="#k" x="74.2"></use><path d="M387.5 32.8l.8-1.7c.8.6 2.1 1 3.2 1 1.3 0 1.9-.4 1.9-1.1 0-1.8-5.7-.6-5.7-4.2 0-1.7 1.3-3.1 4.1-3.1 1.2 0 2.5.3 3.4.9l-.7 1.7c-.9-.5-1.8-.8-2.7-.8-1.3 0-1.9.5-1.9 1.1 0 1.8 5.7.6 5.7 4.2 0 1.6-1.4 3-4.2 3-1.4.1-3-.3-3.9-1z"></path></g><path d="M154 152.1v43.5" fill="none" class="N O P Q"></path><path d="M150 194.5l4 6.9 4-6.9z" class="K"></path><g stroke="#fff" class="N"><path d="M282.4 211.8h30.4v30.4h-30.4z" class="L"></path><path d="M312.8 211.8h30.4v30.4h-30.4z" class="M"></path><path d="M343.2 211.8h30.4v30.4h-30.4z" class="L"></path><path d="M282.4 242.2h30.4v30.4h-30.4z" class="K"></path><path d="M312.8 242.2h30.4v30.4h-30.4z" class="L"></path><path d="M343.2 242.2h30.4v30.4h-30.4zm-60.8 30.4h30.4V303h-30.4z" class="M"></path><g class="K"><path d="M312.8 272.6h30.4V303h-30.4z"></path><path d="M343.2 272.6h30.4V303h-30.4z"></path></g><path d="M137.8 272.6h30.4V303h-30.4z" class="M"></path><path d="M137.8 242.2h30.4v30.4h-30.4z" class="K"></path><path d="M137.8 211.8h30.4v30.4h-30.4z" class="L"></path><path d="M490.4 272.6h30.4V303h-30.4z" class="M"></path><path d="M490.4 242.2h30.4v30.4h-30.4z" class="K"></path><path d="M490.4 211.8h30.4v30.4h-30.4z" class="L"></path></g><path d="M339 152.1v43.5" fill="none" class="N O P Q"></path><path d="M335 194.5l4 6.9 4-6.9z" class="K"></path><path d="M452.1 257.4h23.5" fill="none" class="N O P Q"></path><g class="K"><path d="M474.4 261.4l6.9-4-6.9-4z"></path><use xlink:href="#i" x="10" y="-136.4"></use><use xlink:href="#C" x="343.4"></use><path d="M415.9 94.8l-1.8 4.8h-1.4l-1.1-3-1.1 3h-1.3l-1.7-4.8h1.3l1.1 3.3 1.2-3.3h1.2l1.2 3.3 1.2-3.3h1.2z"></path><use xlink:href="#D" x="343.4"></use><use xlink:href="#C" x="367.3"></use><use xlink:href="#E" x="343.3"></use><path d="M440.3 96.9v2.8H439V99c-.3.4-.8.7-1.5.7-1.1 0-1.8-.6-1.8-1.5s.6-1.4 2.1-1.4h1.1c0-.6-.4-1-1.1-1-.5 0-1 .2-1.4.5l-.5-1c.5-.4 1.3-.6 2.1-.6 1.5 0 2.3.7 2.3 2.2zm-1.4 1.2v-.5h-1c-.7 0-.9.2-.9.6s.3.6.8.6c.6 0 1-.3 1.1-.7z"></path><use xlink:href="#l"></use><use xlink:href="#m"></use><path d="M169.9 328c0 1.7-1.3 2.8-3.3 2.8H165v2.1h-1.8v-7.7h3.3c2.1 0 3.4 1.1 3.4 2.8zm-1.8 0c0-.8-.6-1.3-1.6-1.3H165v2.7h1.5c1.1-.1 1.6-.6 1.6-1.4z"></path><use xlink:href="#m" x="16"></use><use xlink:href="#l" x="32.2"></use><path d="M187.2 325.2h1.8v7.7h-1.8v-7.7zm5.2 1.5h-2.5v-1.5h6.7v1.5h-2.5v6.2h-1.8v-6.2h.1z"></path><path d="M201.1 330.2v2.7h-1.8v-2.8l-3-5h1.9l2.1 3.4 2.1-3.4h1.8l-3.1 5.1zm6.8-.7v-4.3h1.8v4.2c0 1.5.6 2.1 1.7 2.1s1.7-.6 1.7-2.1v-4.2h1.8v4.3c0 2.3-1.3 3.5-3.5 3.5s-3.5-1.2-3.5-3.5z"></path><use xlink:href="#n"></use><use xlink:href="#o"></use><use xlink:href="#p"></use><path d="M243.3 325.2h1.8v7.7h-1.8v-7.7zm10.6 0v7.7h-1.5l-3.8-4.7v4.7h-1.8v-7.7h1.5l3.8 4.7v-4.7h1.8z"></path><use xlink:href="#n" x="42.2"></use><path d="M267.4 326.7h-2.5v-1.5h6.7v1.5h-2.5v6.2h-1.8l.1-6.2zm4.6 2.4c0-2.3 1.8-4 4.2-4s4.2 1.7 4.2 4-1.8 4-4.2 4c-2.4-.1-4.2-1.8-4.2-4zm6.6 0c0-1.5-1-2.5-2.4-2.5s-2.4 1-2.4 2.5 1 2.5 2.4 2.5 2.4-1.1 2.4-2.5zm8.1 3.8l-1.5-2.1h-1.7v2.1h-1.8v-7.7h3.3c2.1 0 3.3 1.1 3.3 2.8 0 1.2-.6 2-1.6 2.4l1.7 2.5h-1.7zm-1.7-6.2h-1.5v2.7h1.5c1.1 0 1.6-.5 1.6-1.3 0-.9-.5-1.4-1.6-1.4zm10 2.2h1.6v3.1c-.8.6-2 1-3.1 1-2.4 0-4.2-1.7-4.2-4s1.8-4 4.2-4c1.4 0 2.5.5 3.2 1.3l-1.1 1.1c-.6-.6-1.2-.9-2-.9-1.5 0-2.5 1-2.5 2.5 0 1.4 1 2.5 2.5 2.5.5 0 .9-.1 1.4-.3v-2.3z"></path><use xlink:href="#o" x="74.7"></use><path d="M315.8 332.9v-4.6l-2.3 3.8h-.8l-2.3-3.7v4.5h-1.7v-7.7h1.5l2.9 4.8 2.8-4.8h1.5v7.7h-1.6z"></path><use xlink:href="#o" x="95.7"></use><use xlink:href="#p" x="95.6"></use><path d="M335.8 325.2h1.8v7.7h-1.8v-7.7z"></path><use xlink:href="#m" x="184.6"></use></g><path d="M246.5 20.8v283.4" fill="none" stroke="#98a1ac" class="N O"></path><circle cx="246.5" cy="96.1" r="24.4" class="K"></circle><g class="M"><path d="M245.7 89.9l-5.3 12.2h-2.8l-5.3-12.2h3.1l3.7 8.7 3.8-8.7h2.8z"></path><path d="M245.7 101l1-2.1c1 .8 2.6 1.3 4 1.3 1.7 0 2.4-.6 2.4-1.3 0-2.3-7.1-.7-7.1-5.3 0-2.1 1.7-3.8 5.2-3.8 1.5 0 3.1.4 4.2 1.1l-.9 2.2c-1.1-.6-2.3-1-3.4-1-1.7 0-2.3.6-2.3 1.4 0 2.3 7.1.7 7.1 5.2 0 2-1.7 3.8-5.2 3.8-1.9-.1-3.9-.7-5-1.5zm11.6-.4c0-1 .8-1.7 1.7-1.7s1.7.7 1.7 1.7-.8 1.7-1.7 1.7-1.7-.7-1.7-1.7z"></path></g><defs><path id="B" d="M56.8 99.6l-1.2-1.8h-1.4v1.8h-1.5v-6.3h2.7c1.7 0 2.7.9 2.7 2.3 0 .9-.5 1.6-1.3 2l1.4 2h-1.4zm-1.3-5.1h-1.2v2.2h1.2c.9 0 1.3-.4 1.3-1.1s-.4-1.1-1.3-1.1z"></path><path id="C" d="M63.6 96.9v2.8h-1.3V99c-.3.4-.8.7-1.5.7-1.1 0-1.8-.6-1.8-1.5s.6-1.4 2.1-1.4h1.1c0-.6-.4-1-1.1-1-.5 0-1 .2-1.4.5l-.5-1c.5-.4 1.3-.6 2.1-.6 1.4 0 2.3.7 2.3 2.2zm-1.4 1.2v-.5h-1c-.7 0-.9.2-.9.6s.3.6.8.6.9-.3 1.1-.7z"></path><path id="D" d="M75.8 93.3h2.9c2.1 0 3.5 1.2 3.5 3.2s-1.4 3.2-3.5 3.2h-2.9v-6.4zm2.8 5.1c1.3 0 2.1-.7 2.1-2 0-1.2-.8-2-2.1-2h-1.3v3.9l1.3.1z"></path><path id="E" d="M91.9 99.4c-.3.2-.7.3-1.1.3-1.1 0-1.8-.6-1.8-1.7v-2h-.7v-1.1h.7v-1.2h1.4v1.2h1.2V96h-1.2v2c0 .4.2.6.6.6.2 0 .4-.1.6-.2l.3 1z"></path><path id="F" d="M74.6 229.3v6.7h-1.3v-.6c-.4.4-.9.6-1.5.6-1.4 0-2.4-1-2.4-2.5s1.1-2.5 2.4-2.5c.6 0 1.1.2 1.4.6v-2.4l1.4.1zm-1.4 4.3c0-.8-.5-1.3-1.2-1.3s-1.2.5-1.2 1.3.5 1.3 1.2 1.3c.6 0 1.2-.5 1.2-1.3z"></path><path id="G" d="M92 234h-3.7c.1.6.6 1 1.4 1 .5 0 .9-.2 1.2-.5l.7.8c-.5.5-1.1.8-2 .8-1.7 0-2.8-1.1-2.8-2.5s1.1-2.5 2.6-2.5c1.4 0 2.5 1 2.5 2.5.1.1.1.2.1.4zm-3.7-.9h2.4c-.1-.6-.6-1-1.2-1s-1.1.4-1.2 1z"></path><path id="H" d="M97.9 229.3v6.7h-1.3v-.6c-.4.4-.9.6-1.5.6-1.4 0-2.4-1-2.4-2.5s1.1-2.5 2.4-2.5c.6 0 1.1.2 1.4.6v-2.4l1.4.1zm-1.4 4.3c0-.8-.5-1.3-1.2-1.3s-1.2.5-1.2 1.3.5 1.3 1.2 1.3 1.2-.5 1.2-1.3z"></path><path id="I" d="M101.8 229.7h2.9c2.1 0 3.5 1.2 3.5 3.2 0 1.9-1.4 3.2-3.5 3.2h-2.9v-6.4zm2.8 5.1c1.3 0 2.1-.7 2.1-2s-.8-2-2.1-2h-1.3v3.9h1.3v.1z"></path><path id="J" d="M113.5 233.2v2.8h-1.3v-.6c-.3.4-.8.7-1.5.7-1.1 0-1.8-.6-1.8-1.5s.6-1.4 2.1-1.4h1.1c0-.6-.4-1-1.1-1-.5 0-1 .2-1.4.5l-.5-1c.5-.4 1.3-.6 2.1-.6 1.4 0 2.3.6 2.3 2.1zm-1.4 1.2v-.4h-1c-.7 0-.9.2-.9.6s.3.6.8.6c.5-.1.9-.3 1.1-.8z"></path><path id="K" d="M117.9 235.7c-.3.2-.7.3-1.1.3-1.1 0-1.8-.6-1.8-1.7v-2h-.7v-1.1h.7V230h1.4v1.2h1.2v1.1h-1.2v2c0 .4.2.6.6.6.2 0 .4-.1.6-.2l.3 1z"></path><path id="L" d="M101.5 255.2c0 1.5-1 2.4-2.4 2.4-.7 0-1.3-.3-1.7-.8v2.5h-.9v-6.5h.8v.8c.4-.5 1-.8 1.7-.8 1.5 0 2.5.9 2.5 2.4zm-.9 0c0-1-.7-1.7-1.6-1.7s-1.6.7-1.6 1.7.7 1.7 1.6 1.7 1.6-.7 1.6-1.7z"></path><path id="M" d="M107.6 255.2c0-1.4 1.1-2.4 2.5-2.4.9 0 1.6.4 1.9 1l-.7.4c-.3-.5-.8-.7-1.3-.7-.9 0-1.6.7-1.6 1.7s.7 1.7 1.6 1.7c.5 0 1-.2 1.3-.7l.7.4c-.4.7-1.1 1-1.9 1-1.4 0-2.5-1-2.5-2.4z"></path><path id="N" d="M113 251.3a.65.65 0 0 1 .6-.6c.3 0 .6.2.6.5s-.2.6-.6.6c-.3.1-.6-.2-.6-.5zm.2 1.5h.9v4.8h-.9v-4.8z"></path><path id="O" d="M118.4 257.3a1.93 1.93 0 0 1-1 .3c-1 0-1.5-.5-1.5-1.5v-2.6h-.9v-.7h.8v-1h.9v1h1.4v.7h-1.4v2.6c0 .5.3.8.7.8.3 0 .5-.1.7-.2l.3.6z"></path><path id="P" d="M123.6 252.8l-2.3 5.2c-.4 1-1 1.3-1.7 1.3-.5 0-.9-.2-1.2-.4l.4-.6c.2.2.5.4.9.4s.7-.2.9-.7l.2-.3-2.1-4.8h.9l1.7 3.8 1.6-3.8.7-.1z"></path><path id="Q" d="M63.9 265.2c0-1.8 1.4-3.2 3.4-3.2 1.9 0 3.3 1.4 3.3 3.2s-1.4 3.2-3.3 3.2c-2 .1-3.4-1.3-3.4-3.2zm5.8 0c0-1.4-1-2.4-2.4-2.4s-2.5 1-2.5 2.4 1 2.4 2.5 2.4c1.3 0 2.4-1 2.4-2.4z"></path><path id="R" d="M76.8 266c0 1.5-1 2.4-2.4 2.4-.7 0-1.3-.3-1.7-.8v2.5h-.9v-6.5h.8v.8c.4-.5 1-.8 1.7-.8 1.4 0 2.5.9 2.5 2.4zm-.9 0c0-1-.7-1.7-1.6-1.7s-1.6.7-1.6 1.7.7 1.7 1.6 1.7 1.6-.7 1.6-1.7z"></path><path id="S" d="M92.1 265.6v2.7h-.9v-2.6c0-.9-.5-1.4-1.2-1.4-.9 0-1.4.5-1.4 1.6v2.5h-.9v-2.6c0-.9-.5-1.4-1.2-1.4-.9 0-1.4.5-1.4 1.6v2.5h-.9v-4.8h.8v.7c.3-.5.9-.8 1.6-.8s1.3.3 1.7.9c.4-.5 1-.9 1.8-.9 1.2 0 2 .6 2 2z"></path><path id="T" d="M104.7 265.5v2.9h-.8v-.6c-.3.4-.8.7-1.6.7-1.1 0-1.8-.6-1.8-1.4s.5-1.4 1.9-1.4h1.4v-.2c0-.7-.4-1.2-1.3-1.2-.6 0-1.1.2-1.5.5l-.4-.6c.5-.4 1.2-.6 2-.6 1.3 0 2.1.6 2.1 1.9zm-.9 1.4v-.7h-1.3c-.9 0-1.1.3-1.1.7 0 .5.4.8 1.1.8a1.11 1.11 0 0 0 1.3-.8z"></path><path id="U" d="M109 268.1a1.93 1.93 0 0 1-1 .3c-1 0-1.5-.5-1.5-1.5v-2.6h-.8v-.7h.8v-1h.9v1h1.4v.7h-1.4v2.6c0 .5.3.8.7.8.3 0 .5-.1.7-.2l.2.6z"></path><path id="V" d="M109.9 262.1a.65.65 0 0 1 .6-.6c.3 0 .6.2.6.5s-.2.6-.6.6c-.4.1-.6-.2-.6-.5zm.1 1.5h.9v4.8h-.9v-4.8z"></path><path id="W" d="M112.1 266c0-1.4 1.1-2.4 2.5-2.4s2.5 1 2.5 2.4-1 2.4-2.5 2.4-2.5-1-2.5-2.4zm4.1 0c0-1-.7-1.7-1.6-1.7s-1.6.7-1.6 1.7.7 1.7 1.6 1.7 1.6-.7 1.6-1.7z"></path><path id="X" d="M122.8 265.6v2.7h-.9v-2.6c0-.9-.5-1.4-1.3-1.4-.9 0-1.5.5-1.5 1.6v2.5h-.9v-4.8h.8v.7c.4-.5 1-.8 1.7-.8 1.2.1 2.1.7 2.1 2.1z"></path><path id="Y" d="M47.7 276.4v2.7h-.9v-2.6c0-.9-.5-1.4-1.3-1.4-.9 0-1.5.5-1.5 1.6v2.5h-.9v-6.7h.9v2.6c.4-.5 1-.7 1.7-.7 1.2 0 2 .6 2 2z"></path><path id="Z" d="M65.7 276.8c0 1.5-1 2.4-2.4 2.4-.7 0-1.3-.3-1.7-.8v2.5h-.9v-6.5h.8v.8c.4-.5 1-.8 1.7-.8 1.5 0 2.5.9 2.5 2.4zm-.8 0c0-1-.7-1.7-1.6-1.7s-1.6.7-1.6 1.7.7 1.7 1.6 1.7 1.6-.7 1.6-1.7z"></path><path id="a" d="M71.2 277.1h-3.9c.1.8.8 1.4 1.7 1.4.6 0 1-.2 1.4-.6l.5.6c-.4.5-1.1.8-1.9.8-1.5 0-2.6-1-2.6-2.4s1-2.4 2.4-2.4 2.4 1 2.4 2.5c.1-.1 0 0 0 .1zm-3.8-.6h3.1c-.1-.8-.7-1.4-1.5-1.4-.9 0-1.5.5-1.6 1.4z"></path><path id="b" d="M77 276.4v2.7h-.9v-2.6c0-.9-.5-1.4-1.3-1.4-.9 0-1.5.5-1.5 1.6v2.5h-.9v-4.8h.8v.7c.4-.5 1-.8 1.7-.8 1.3.1 2.1.7 2.1 2.1z"></path><path id="c" d="M78 278.7l.4-.7c.4.3 1.1.5 1.7.5.8 0 1.1-.2 1.1-.6 0-1.1-3-.1-3-2 0-.9.8-1.4 2-1.4.6 0 1.3.2 1.7.4l-.4.7c-.4-.3-.9-.4-1.4-.4-.8 0-1.1.3-1.1.7 0 1.1 3 .2 3 2.1 0 .9-.8 1.4-2.1 1.4-.7-.2-1.5-.4-1.9-.7z"></path><path id="d" d="M97.2,278v1.2h-4.9v-6.3h4.8v1.2h-3.3v1.4h2.9v1.1h-2.9v1.5h3.4V278z"></path><path id="e" d="M98.5 285.2l-1.8 4.8h-.8l-1.4-3.6-1.4 3.6h-.8l-1.8-4.8h.8l1.4 3.8 1.4-3.8h.7l1.4 3.8 1.4-3.8h.9z"></path><path id="f" d="M110.2 294.1v6.7h-.8v-.8c-.4.5-1 .8-1.7.8-1.4 0-2.4-1-2.4-2.4 0-1.5 1-2.4 2.4-2.4.7 0 1.3.3 1.7.8v-2.6l.8-.1zm-.9 4.3c0-1-.7-1.7-1.6-1.7s-1.6.7-1.6 1.7.7 1.7 1.6 1.7 1.6-.7 1.6-1.7z"></path><path id="g" d="M111.6 294.5a.65.65 0 0 1 .6-.6c.3 0 .6.2.6.5s-.2.6-.6.6c-.3.1-.6-.2-.6-.5zm.2 1.5h.9v4.8h-.9V296z"></path><path id="h" d="M120.7 298.6l-1 .9v1.3h-.9v-6.7h.9v4.3l2.6-2.4h1l-2 2 2.2 2.8h-1.1l-1.7-2.2z"></path><path id="i" d="M390.2 236l-1.2-1.8h-1.3v1.8h-1.5v-6.3h2.7c1.7 0 2.7.9 2.7 2.3 0 .9-.5 1.6-1.3 2l1.4 2h-1.5zm-1.3-5.1h-1.2v2.2h1.2c.9 0 1.3-.4 1.3-1.1s-.4-1.1-1.3-1.1z"></path><path id="j" d="M402.5 261.7v6.7h-.8v-.8c-.4.5-1 .8-1.7.8-1.4 0-2.4-1-2.4-2.4 0-1.5 1-2.4 2.4-2.4.7 0 1.3.3 1.7.8v-2.6h.8v-.1zm-.9 4.3c0-1-.7-1.7-1.6-1.7s-1.6.7-1.6 1.7.7 1.7 1.6 1.7 1.6-.7 1.6-1.7z"></path><path id="k" d="M304.4 32.8l.8-1.7c.8.6 2.1 1 3.2 1 1.3 0 1.9-.4 1.9-1.1 0-1.8-5.7-.6-5.7-4.2 0-1.7 1.3-3.1 4.1-3.1 1.2 0 2.5.3 3.4.9l-.7 1.7c-.9-.5-1.8-.8-2.7-.8-1.3 0-1.9.5-1.9 1.1 0 1.8 5.7.6 5.7 4.2 0 1.6-1.4 3-4.2 3-1.5.1-3-.3-3.9-1z"></path><path id="l" d="M146.4 329.1c0-2.3 1.8-4 4.2-4 1.3 0 2.4.5 3.2 1.4l-1.1 1.1c-.5-.6-1.2-.9-1.9-.9-1.4 0-2.5 1-2.5 2.5s1 2.5 2.5 2.5a2.32 2.32 0 0 0 1.9-.9l1.1 1.1c-.7.9-1.8 1.4-3.2 1.4-2.4-.3-4.2-1.9-4.2-4.2z"></path><path id="m" d="M159.9 331.3h-3.6l-.7 1.7h-1.8l3.4-7.7h1.8l3.4 7.7h-1.9l-.6-1.7zm-.6-1.4l-1.2-2.9-1.2 2.9h2.4z"></path><path id="n" d="M216.1 332.1l.6-1.3c.6.5 1.6.8 2.5.8 1.1 0 1.5-.4 1.5-.8 0-1.4-4.5-.5-4.5-3.3 0-1.3 1.1-2.4 3.2-2.4 1 0 2 .2 2.7.7l-.5 1.4c-.7-.4-1.5-.6-2.1-.6-1.1 0-1.5.4-1.5.9 0 1.4 4.5.4 4.5 3.3 0 1.3-1.1 2.4-3.3 2.4-1.2-.2-2.5-.5-3.1-1.1z"></path><path id="o" d="M229.6 331.5v1.4h-6v-7.7h5.8v1.4h-4v1.7h3.6v1.4h-3.6v1.8h4.2z"></path><path id="p" d="M231.1 325.2h3.5c2.5 0 4.2 1.5 4.2 3.9 0 2.3-1.7 3.9-4.2 3.9h-3.5v-7.8zm3.4 6.2c1.5 0 2.5-.9 2.5-2.4s-1-2.4-2.5-2.4h-1.6v4.8h1.6z"></path></defs></svg> 